<?xml version="1.0" encoding="utf-8"?>
<!-- Generator: Adobe Illustrator 27.0.0, SVG Export Plug-In . SVG Version: 6.00 Build 0)  -->
<svg version="1.1" id="OBJECTS" xmlns="http://www.w3.org/2000/svg" xmlns:xlink="http://www.w3.org/1999/xlink" x="0px" y="0px"
	 viewBox="0 0 444.2 370.7" style="enable-background:new 0 0 444.2 370.7;" xml:space="preserve">
<style type="text/css">
	.st0{fill:#FFC857;stroke:#F49C00;stroke-miterlimit:10;}
	.st1{fill:#FFC857;}
	.st2{fill:none;stroke:#F49C00;stroke-miterlimit:10;}
</style>
<g>
	<g>
		<g>
			<path class="st0" d="M295.8,249.8c0,0,5.2,20.4,3.3,36c-1.9,15.5-3.8,16.5-3,19.8c0.8,3.4,11.8,7.9,14.2,4.9
				c2.5-3,8.8-28.4,9.6-37.5c0.8-9.2-2.5-36.9-2.5-36.9S296.1,241.8,295.8,249.8L295.8,249.8z"/>
			<path class="st0" d="M297.4,303.2c0,0-2.1-1.6-6.3,0.7c-4.2,2.3-7.2,9.1-4.2,11.2c3,2.1,15.2,2.1,18.6,0.4
				c3.4-1.7,5.6-7.1,5.8-8.5C311.4,305.6,297.4,303.2,297.4,303.2L297.4,303.2z"/>
		</g>
		<g>
			<g>
				<path class="st0" d="M322.2,186.6c0,0,16.5,14.6,16.8,24.1c0.3,9.5-0.9,27.8-0.9,27.8l-23.2,25l-25.6-22.6l-1.8-14
					c0,0,27.4-8.8,32.6-21.6C325.2,192.4,322.2,186.6,322.2,186.6L322.2,186.6z"/>
				<path class="st0" d="M328.9,201.3c0,0,14.3-2.7,35.4,7.6c21,10.4,41.2,46,43,56.1c1.8,10.1-42.4,41.2-56.1,39.3
					c-13.7-1.8-21.6-5.5-21.6-5.5S303.3,209.2,328.9,201.3L328.9,201.3z"/>
				<path class="st0" d="M389.9,245.8c0,0-26.8,2.4-33.9,20.1c-7,17.7-7.3,32-4.9,38.4c2.4,6.4,23.5,13.1,42.1,8.8
					c18.6-4.3,15.9-28.7,15.5-40.9C408.5,260.1,399.4,245.3,389.9,245.8L389.9,245.8z"/>
			</g>
			<g>
				<path class="st0" d="M276.4,211c0,0-1.4,16.8,3.5,25.9c4.9,9.1,36.1,37.8,38.3,38.1s3.7-12.8-3.4-18.6
					c-7-5.8-21.4-14.9-21.4-21.4s17.4-10.1,22.6-20.1c5.2-10.1,4.3-11.6,4.3-11.6s-11.7,14.3-25.1,15.2
					C281.8,219.6,276.4,211,276.4,211L276.4,211z"/>
				<path class="st0" d="M276.4,212.3c0,0-0.2,5.8,0.1,9.3c0.2,3.5,18.3,7.8,31.4-0.6c9.9-6.3,14.1-12.1,14.1-12.1
					S295.6,218.7,276.4,212.3L276.4,212.3z"/>
			</g>
			<path class="st0" d="M333.5,243.8l5.2-7.2c0,0,5.6,22,5.3,35.5c-0.2,13.5-0.2,23.8,1.1,26.5c1.4,2.7,49.4,1.1,63.8-9.4
				c0,0-0.5,14.3-5.7,18.6c-5.3,4.3-58.5,7.7-64.7,3.8S333.5,243.8,333.5,243.8L333.5,243.8z"/>
		</g>
		<g>
			<path class="st0" d="M314.5,250.4c0,0,5.8,20.4,3.7,36c-2.1,15.5-4.3,16.5-3.4,19.8c0.9,3.4,13.1,7.9,15.9,4.9
				s9.8-28.4,10.7-37.5c0.9-9.1-2.7-36.9-2.7-36.9S314.9,242.4,314.5,250.4z"/>
			<path class="st0" d="M317.3,304.5c0,0-2.2-1.7-6.7,0.6c-4.6,2.3-7.9,9.5-4.8,11.8c3.1,2.3,16.1,2.6,19.8,0.9
				c3.7-1.7,6.2-7.4,6.4-8.9S317.3,304.5,317.3,304.5z"/>
		</g>
		<path class="st0" d="M327.7,304.6c0,0-4.1,11.7,22.2,15.1c26.3,3.4,59.7,0.5,63.1-7.8c3.4-8.2-5-14.9-5-14.9s-1.3,10.6-12.5,11.3
			C384.3,309,333,286.1,327.7,304.6z"/>
	</g>
	<g>
		<g>
			<g>
				<g>
					<path class="st0" d="M268.9,178.1c0,0-1.2,14,2.1,25.3c3.3,11.3,17,17.8,23.4,18.9c6.4,1.1,21.5-8.7,25.6-13
						c4.1-4.3,3.9-28.3,3.8-34.7c-0.2-6.5-23.5-9.6-34.5-8.3C278.3,167.5,269.8,170.7,268.9,178.1L268.9,178.1z"/>
					<path class="st0" d="M272.2,206.6c0,0,13.2,4.6,16-3.5c2.9-8.1,6.1-14.5,5.9-19.7s2.5-12.1,3.3-10.6c0.8,1.5,0.3,14.5,2.5,19.2
						s1.6,9.6,5.8,13.5c4.2,3.9,7.2,3.7,9.5,3.4c2.3-0.3,5,0.5,5,0.5s-12.6,12.1-23.7,13.3C289.3,223.4,275.9,216,272.2,206.6
						L272.2,206.6z"/>
				</g>
				<path class="st0" d="M291.8,203.6c0,0-0.8-7.4,0.1-8c0.9-0.6,4.8-2.4,4.8-2.4s2.5,2.1,3.3,2.7c0.8,0.6-1.3,6.9-1.3,7.5
					S296.8,202.5,291.8,203.6L291.8,203.6z"/>
			</g>
			<g>
				<path class="st0" d="M269.3,183.7c0,0-2.7-19.8-0.4-24.2c2.3-4.4,18.1,11.3,20,14.6S273.2,185.5,269.3,183.7z"/>
				<path class="st0" d="M269.8,182.4c0,0-1.8-20.7,0.6-20.7c2.4,0,11.9,12.3,11.9,15.2S271.3,184.9,269.8,182.4L269.8,182.4z"/>
				<g>
					<path class="st0" d="M323.9,184c0,0,0.7-19.9-2-24.1c-2.8-4.2-16.9,12.9-18.4,16.3C301.9,179.5,320.1,186.2,323.9,184z"/>
					<path class="st0" d="M322.6,182c0,0,0.9-19.7-1.5-19.6c-2.4,0.1-11.3,12.3-11.2,15C310,180.1,321.1,184.4,322.6,182L322.6,182z
						"/>
				</g>
			</g>
		</g>
		<g>
			<g>
				<path class="st0" d="M309.4,192.9c0,2-1.6,3.6-3.5,3.6c-1.9,0-3.5-1.6-3.5-3.6c0-2,1.6-3.6,3.5-3.6
					C307.9,189.4,309.4,191,309.4,192.9z"/>
				<ellipse class="st0" cx="282.9" cy="193.3" rx="3.5" ry="3.6"/>
			</g>
			<g>
				<g>
					<g>
						<path class="st0" d="M292.6,213.6c-0.5,0-1-0.1-1.5-0.4c-1-0.5-1.9-1.6-1.9-2.4c0-0.3,0.2-0.5,0.4-0.5c0.3,0,0.5,0.2,0.5,0.4
							c0,0.5,0.6,1.3,1.4,1.7c0.5,0.3,1.3,0.5,2.2-0.1c1.5-1,1.5-4.2,1.3-5.4c0-0.2,0.1-0.5,0.4-0.5c0.3,0,0.5,0.1,0.5,0.4
							c0,0.2,0.6,4.8-1.7,6.3C293.7,213.4,293.2,213.6,292.6,213.6L292.6,213.6z"/>
						<path class="st0" d="M298.5,213.6c-0.6,0-1.1-0.2-1.6-0.5c-2.3-1.5-1.7-6.1-1.7-6.3c0-0.2,0.3-0.4,0.5-0.4
							c0.2,0,0.4,0.3,0.4,0.5c-0.2,1.2-0.2,4.4,1.3,5.4c0.8,0.5,1.6,0.3,2.2,0.1c0.8-0.4,1.4-1.2,1.4-1.7c0-0.3,0.2-0.4,0.5-0.4
							c0.3,0,0.4,0.2,0.4,0.5c-0.1,0.9-0.9,1.9-1.9,2.4C299.5,213.5,299,213.6,298.5,213.6L298.5,213.6z"/>
					</g>
					<path class="st0" d="M295.4,208.4c0,0-4.3-2.7-3.5-3.5c0.8-0.8,6.9-0.8,6.9,0.2S295.7,208.6,295.4,208.4L295.4,208.4z"/>
				</g>
				<g>
					<path class="st0" d="M300.4,206.3c0.1,0,0.1,0,0.2,0l9.7-5.3c0.2-0.1,0.2-0.3,0.1-0.4c-0.1-0.2-0.3-0.2-0.4-0.1l-9.7,5.3
						c-0.2,0.1-0.2,0.3-0.1,0.4C300.2,206.2,300.3,206.3,300.4,206.3L300.4,206.3z"/>
					<path class="st0" d="M313.9,204.5c0-0.2-0.2-0.3-0.4-0.2l-11.6,2.5c-0.2,0-0.3,0.2-0.2,0.4c0,0.1,0.1,0.2,0.3,0.2
						c0,0,0.1,0,0.1,0l11.6-2.5C313.8,204.9,313.9,204.7,313.9,204.5z"/>
					<path class="st0" d="M312.4,209l-11.9-0.7c-0.2,0-0.3,0.1-0.3,0.3c0,0.2,0.1,0.3,0.3,0.3c0,0,0,0,0,0l11.9,0.7
						c0.2,0,0.3-0.1,0.3-0.3C312.7,209.1,312.6,209,312.4,209L312.4,209z"/>
				</g>
				<g>
					<path class="st0" d="M290.2,205.8l-9.6-5.4c-0.2-0.1-0.3,0-0.4,0.1c-0.1,0.2,0,0.3,0.1,0.4l9.6,5.4c0.1,0,0.1,0.1,0.2,0
						c0.1,0,0.2-0.1,0.2-0.2C290.4,206.1,290.4,205.9,290.2,205.8L290.2,205.8z"/>
					<path class="st0" d="M288.6,207.5c0.1,0,0.2-0.1,0.3-0.2c0-0.2-0.1-0.3-0.2-0.4l-11.6-2.6c-0.2,0-0.3,0.1-0.4,0.2
						c0,0.2,0.1,0.3,0.2,0.4l11.6,2.6C288.5,207.5,288.6,207.5,288.6,207.5L288.6,207.5z"/>
					<path class="st0" d="M289.9,208.4L278,209c-0.2,0-0.3,0.2-0.3,0.3c0,0.2,0.2,0.3,0.3,0.3l11.9-0.6c0,0,0,0,0,0
						c0.2,0,0.3-0.2,0.3-0.3C290.2,208.5,290.1,208.4,289.9,208.4L289.9,208.4z"/>
				</g>
			</g>
		</g>
	</g>
</g>
<g>
	<g>
		<g>
			<path class="st0" d="M99.2,164c0,0,4.7,60.8,4.3,66.2c-0.3,5.5-13.3,49.1-13.3,49.1l-11.5-1.8c0,0,7.7-41.6,7.7-45
				s-16.6-77.4-16.6-77.4S94.4,161.3,99.2,164L99.2,164z"/>
			<g>
				<path class="st0" d="M81.6,274.2c0,0-8.6,4.5-10.1,9.7c-1.5,5.2,0.8,5.9,4.5,6.3c3.7,0.4,10.1,1,13.4-1c3.3-2,1.9-9.6,2-13.8
					C91.5,271.1,81.6,274.2,81.6,274.2L81.6,274.2z"/>
				<path class="st0" d="M73.4,289.8c0,0-1.2-3.7,1.9-7.1c0,0-1.2,1.6-1.4,4.1c-0.2,2.4,0.7,3.2,0.7,3.2L73.4,289.8L73.4,289.8z"/>
				<path class="st0" d="M77.9,290.4c0,0-1.2-3.7,2-7.1c0,0-1.2,1.6-1.4,4.1s0.7,3.2,0.7,3.2S77.9,290.4,77.9,290.4z"/>
				<path class="st0" d="M83,290.6c0,0-1.2-3.9,1.9-7.3c0,0-1.2,1.6-1.4,4.1c-0.2,2.4,0.7,3.2,0.7,3.2H83L83,290.6z"/>
			</g>
		</g>
		<g>
			<path class="st0" d="M157.8,180.2c0,0-1.6,19,12.5,34.5c14.2,15.6,32.2,15.3,36.8,23.5c4.6,8.2,5.4,35.5,4.3,40.4
				s9.7,2.6,9.7,2.6s4.1-44,3.3-48.6c-0.8-4.6-28.6-55.2-33.2-66.4S159.8,167.9,157.8,180.2L157.8,180.2z"/>
			<g>
				<path class="st0" d="M211.9,274.2c0,0-8.6,4.5-10.1,9.7c-1.5,5.2,0.8,5.9,4.5,6.3s10.1,1,13.4-1s1.9-9.6,2-13.8
					C221.8,271.1,211.9,274.2,211.9,274.2L211.9,274.2z"/>
				<path class="st0" d="M203.7,289.8c0,0-1.2-3.7,1.9-7.1c0,0-1.2,1.6-1.4,4.1c-0.2,2.4,0.7,3.2,0.7,3.2L203.7,289.8L203.7,289.8z"
					/>
				<path class="st0" d="M208.2,290.4c0,0-1.2-3.7,2-7.1c0,0-1.2,1.6-1.4,4.1c-0.2,2.4,0.7,3.2,0.7,3.2L208.2,290.4L208.2,290.4z"/>
				<path class="st0" d="M213.3,290.6c0,0-1.2-3.9,1.9-7.3c0,0-1.2,1.6-1.4,4.1c-0.2,2.4,0.7,3.2,0.7,3.2H213.3L213.3,290.6z"/>
			</g>
		</g>
		<g>
			<path class="st0" d="M241.4,85.3c1.7,0.8,3,0.6,4.1-0.1c-0.9-9.4-3.6-17.4-6.6-22c-5.6-8.5-13.4-2.2-9.9,2
				c2,2.4,5.2,10.5,6.9,20.3C237.9,84.8,239.9,84.6,241.4,85.3L241.4,85.3z"/>
			<path class="st0" d="M236.2,109.8c-3.7,18-19.1,29.3-19.1,29.3s-1.7,4.5,3.4,5.2c5.1,0.6,17.9-15.3,23.2-33.7
				c2.4-8.5,2.8-17.4,2-25.3c-1.1,0.7-2.4,0.9-4.1,0.1c-1.6-0.7-3.5-0.5-5.5,0.2C237.3,93.2,237.8,101.9,236.2,109.8L236.2,109.8z"
				/>
		</g>
		<path class="st0" d="M231.1,143.6c-3.4-19.4-26.3-18.4-38.5-16.7c-12.3,1.7-72,1.5-78.5-14.2C107.6,97,103.9,72,103.9,72
			L75.5,94.5c-0.6-1.8-1-2.8-1-2.8s-7.8,31.7-9.2,44C64,148,68.1,160.6,80,172.6c11.9,11.9,34.4,26.6,55.9,23.9
			c21.5-2.7,45.4-24.2,75-23.5c0,0-8.3-1.9-20.4-5C213.8,161.2,232.6,152.3,231.1,143.6L231.1,143.6z"/>
		<path class="st0" d="M76.7,138.1c-0.3-22.2,6.9-35.1,6.9-35.1l1.5-7.5l-12.6,5.1c0,0-7.7,31.2-7.5,38.9s1.7,17.6,10.9,29.3
			c9.2,11.8,21,17,21,17l0.1,0.1C96.9,185.8,77.1,160.2,76.7,138.1L76.7,138.1z"/>
		<path class="st0" d="M72.1,101.8l-1.7,7.3c0,0,9.9-5.9,23.9-3.6c14.1,2.3,18.6,4.7,18.6,4.7l-7.8-29.8L72.1,101.8"/>
		<path class="st0" d="M128.1,177.6l-1.3,19.2c0,0,4.7,0.8,12.2-0.7c7.5-1.5,44.5-17.9,44.5-17.9s0.8-9.1,3.4-13.2
			c0,0-6.8,8.4-7.4,11.3c-0.6,2.8-32.5,12.7-39.3,13.4c-6.8,0.7-10.2,0.6-10.2,0.6L128.1,177.6L128.1,177.6z"/>
		<g>
			<path class="st0" d="M128.1,172.1c0,0-3.5,62.3-3.8,67.8c-0.3,5.5-15.9,52.4-15.9,52.4l-10.6-4.8c0,0,9.4-41.9,9.4-45.4
				S95,176.7,95,176.7S123.3,169.3,128.1,172.1L128.1,172.1z"/>
			<g>
				<path class="st0" d="M99,286.5c0,0-8.6,4.5-10.1,9.7c-1.5,5.2,0.8,5.9,4.5,6.3c3.7,0.4,10.1,1,13.4-1c3.3-2,1.9-9.6,2-13.8
					C108.9,283.4,99,286.5,99,286.5L99,286.5z"/>
				<path class="st0" d="M90.8,302.1c0,0-1.2-3.7,1.9-7.1c0,0-1.2,1.6-1.4,4.1c-0.2,2.4,0.7,3.2,0.7,3.2L90.8,302.1L90.8,302.1z"/>
				<path class="st0" d="M95.3,302.7c0,0-1.2-3.7,2-7.1c0,0-1.2,1.6-1.4,4.1c-0.2,2.4,0.7,3.2,0.7,3.2S95.3,302.7,95.3,302.7z"/>
				<path class="st0" d="M100.4,302.9c0,0-1.2-3.9,1.9-7.3c0,0-1.2,1.6-1.4,4.1c-0.2,2.4,0.7,3.2,0.7,3.2H100.4L100.4,302.9z"/>
			</g>
		</g>
		<g>
			<path class="st0" d="M185.1,155.9c0,0-8.5,23.5,10.2,43s50.8,18.8,57,29c6.1,10.2,7.8,45.7,6.5,51.8c-1.4,6.1,10.2,2.4,10.2,2.4
				s1.9-54.6,0.8-60.4c-0.6-3.3-14-23.7-24.4-44.3c-8.1-16.1-13.3-32.7-16-38.9C223.3,124.5,187.8,140.5,185.1,155.9L185.1,155.9z"
				/>
			<g>
				<path class="st0" d="M259.1,281c0,0-8.6,4.5-10.1,9.7c-1.5,5.2,0.8,5.9,4.5,6.3s10.1,1,13.4-1c3.3-2,1.9-9.6,2-13.8
					C269,278,259.1,281,259.1,281L259.1,281z"/>
				<path class="st0" d="M250.9,296.6c0,0-1.2-3.7,1.9-7.1c0,0-1.2,1.6-1.4,4.1c-0.2,2.4,0.7,3.2,0.7,3.2L250.9,296.6L250.9,296.6z"
					/>
				<path class="st0" d="M255.4,297.2c0,0-1.2-3.7,2-7.1c0,0-1.2,1.6-1.4,4.1c-0.2,2.4,0.7,3.2,0.7,3.2L255.4,297.2z"/>
				<path class="st0" d="M260.5,297.4c0,0-1.2-3.9,1.9-7.3c0,0-1.2,1.6-1.4,4.1s0.7,3.2,0.7,3.2H260.5L260.5,297.4z"/>
			</g>
		</g>
	</g>
	<g>
		<g>
			<path class="st0" d="M93.2,30.6c0,0,12.2-1.5,18.4,15.7s1.1,29.9-6.6,40.5c-7.6,10.5-4.4,16.1-21.5,16.3s-18.3-6.7-18.7-15.4
				C64.5,79,58.6,62.4,58,55.9C57.4,49.3,60.4,29.1,93.2,30.6L93.2,30.6z"/>
			<g>
				<path class="st0" d="M86.3,83.7c0,0,6.5-8.7,8.2-10.6s-5.6-5.6-11.4-6.1c-5.7-0.5-11.5,4-11.9,4.6C70.8,72.2,74.9,83,75.4,84
					C75.9,85,87.2,86.2,86.3,83.7z"/>
				<g>
					
						<ellipse transform="matrix(0.9606 -0.2778 0.2778 0.9606 -13.4283 29.6225)" class="st0" cx="97.8" cy="62.2" rx="6.2" ry="8.1"/>
					<g>
						<g>
							
								<ellipse transform="matrix(0.999 -4.501428e-02 4.501428e-02 0.999 -2.7926 4.4501)" class="st1" cx="97.4" cy="64.2" rx="3.7" ry="3.5"/>
							
								<ellipse transform="matrix(0.999 -4.501428e-02 4.501428e-02 0.999 -2.7926 4.4501)" class="st2" cx="97.4" cy="64.2" rx="3.7" ry="3.5"/>
						</g>
						<g>
							<path class="st1" d="M95.5,53.5c2.3-0.5,4.2,0.6,4.2,0.6c0.4,0.2,0.6,0.6,0.7,1s0.1,0.8-0.2,1.2c-0.3,0.5-0.8,0.8-1.3,0.8
								c-0.3,0-0.6-0.1-0.8-0.2c0,0-1-0.5-2-0.3c-0.3,0.1-0.6,0-0.8-0.1c-0.5-0.2-0.9-0.6-1-1.1C94.2,54.5,94.7,53.7,95.5,53.5
								L95.5,53.5z"/>
							<path class="st2" d="M95.5,53.5c2.3-0.5,4.2,0.6,4.2,0.6c0.4,0.2,0.6,0.6,0.7,1s0.1,0.8-0.2,1.2c-0.3,0.5-0.8,0.8-1.3,0.8
								c-0.3,0-0.6-0.1-0.8-0.2c0,0-1-0.5-2-0.3c-0.3,0.1-0.6,0-0.8-0.1c-0.5-0.2-0.9-0.6-1-1.1C94.2,54.5,94.7,53.7,95.5,53.5
								L95.5,53.5z"/>
						</g>
					</g>
				</g>
				<g>
					<ellipse transform="matrix(0.2224 -0.975 0.975 0.2224 -7.0452 115.0759)" class="st0" cx="68.6" cy="62" rx="8.1" ry="6.2"/>
					<g>
						<g>
							
								<ellipse transform="matrix(0.999 -4.501428e-02 4.501428e-02 0.999 -2.8053 3.198)" class="st1" cx="69.6" cy="63.9" rx="3.5" ry="3.3"/>
							
								<ellipse transform="matrix(0.999 -4.501428e-02 4.501428e-02 0.999 -2.8053 3.198)" class="st2" cx="69.6" cy="63.9" rx="3.5" ry="3.3"/>
						</g>
						<g>
							<path class="st1" d="M66.3,53c2.1-1.1,4.2-0.5,4.2-0.5c0.4,0.1,0.7,0.4,0.9,0.7s0.3,0.8,0.1,1.2c-0.2,0.5-0.6,0.9-1.1,1.1
								c-0.3,0.1-0.6,0.1-0.9,0c0,0-1.1-0.3-2,0.2c-0.3,0.1-0.5,0.2-0.8,0.2c-0.5,0-1-0.4-1.3-0.8C65.2,54.3,65.5,53.4,66.3,53
								L66.3,53z"/>
							<path class="st2" d="M66.3,53c2.1-1.1,4.2-0.5,4.2-0.5c0.4,0.1,0.7,0.4,0.9,0.7s0.3,0.8,0.1,1.2c-0.2,0.5-0.6,0.9-1.1,1.1
								c-0.3,0.1-0.6,0.1-0.9,0c0,0-1.1-0.3-2,0.2c-0.3,0.1-0.5,0.2-0.8,0.2c-0.5,0-1-0.4-1.3-0.8C65.2,54.3,65.5,53.4,66.3,53
								L66.3,53z"/>
						</g>
					</g>
				</g>
				<g>
					<g>
						<g>
							<g>
								<path class="st1" d="M88.7,101.1c3.2-0.1,5-1.4,5.9-2.5c1.6-1.8,1.9-4,1.7-5.5c-0.1-0.3-0.3-0.5-0.7-0.5
									c-0.3,0.1-0.6,0.4-0.5,0.7c0.2,1.2-0.1,3.1-1.4,4.6c-1.3,1.5-3.2,2.2-5.8,2.1c-6.6-0.1-6.6-8.1-6.6-8.4
									c0-0.3-0.3-0.6-0.6-0.6c-0.3,0-0.6,0.3-0.6,0.6c0,0.1,0,9.6,7.8,9.7C88.2,101.1,88.4,101.1,88.7,101.1z"/>
								<path class="st2" d="M88.7,101.1c3.2-0.1,5-1.4,5.9-2.5c1.6-1.8,1.9-4,1.7-5.5c-0.1-0.3-0.3-0.5-0.7-0.5
									c-0.3,0.1-0.6,0.4-0.5,0.7c0.2,1.2-0.1,3.1-1.4,4.6c-1.3,1.5-3.2,2.2-5.8,2.1c-6.6-0.1-6.6-8.1-6.6-8.4
									c0-0.3-0.3-0.6-0.6-0.6c-0.3,0-0.6,0.3-0.6,0.6c0,0.1,0,9.6,7.8,9.7C88.2,101.1,88.4,101.1,88.7,101.1z"/>
							</g>
							<g>
								<path class="st1" d="M74.6,99.9c0.2,0,0.4,0,0.6-0.1c5.4-0.5,6.3-6,6-8.8c0-0.3-0.3-0.6-0.7-0.5c-0.3,0-0.6,0.3-0.5,0.7
									c0,0.3,0.6,6.9-4.9,7.5c-2.1,0.2-3.9-0.3-5.1-1.4c-1.2-1.1-1.5-2.6-1.5-3.6c0-0.3-0.2-0.6-0.6-0.6c-0.3,0-0.6,0.2-0.6,0.6
									c-0.1,1.3,0.4,3.1,1.8,4.5C70.2,99.1,71.8,100,74.6,99.9L74.6,99.9z"/>
								<path class="st2" d="M74.6,99.9c0.2,0,0.4,0,0.6-0.1c5.4-0.5,6.3-6,6-8.8c0-0.3-0.3-0.6-0.7-0.5c-0.3,0-0.6,0.3-0.5,0.7
									c0,0.3,0.6,6.9-4.9,7.5c-2.1,0.2-3.9-0.3-5.1-1.4c-1.2-1.1-1.5-2.6-1.5-3.6c0-0.3-0.2-0.6-0.6-0.6c-0.3,0-0.6,0.2-0.6,0.6
									c-0.1,1.3,0.4,3.1,1.8,4.5C70.2,99.1,71.8,100,74.6,99.9L74.6,99.9z"/>
							</g>
						</g>
						<g>
							<g>
								<path class="st0" d="M74,84.6c0.2,3.6,4.7,6.8,6.4,6.9c1.8,0.1,7.5-3.3,7.4-6.9c-0.2-3.6-3.3-4.7-7.1-4.6
									C76.8,80.1,73.8,80.9,74,84.6L74,84.6z"/>
								<g>
									<g>
										<path class="st1" d="M82.6,90.6c0,0,0.1-4.4,2.1-4.4c2,0,2.1,0.5,1.9,1.3C86.4,88.3,84.1,90.4,82.6,90.6L82.6,90.6z"/>
										<path class="st2" d="M82.6,90.6c0,0,0.1-4.4,2.1-4.4c2,0,2.1,0.5,1.9,1.3C86.4,88.3,84.1,90.4,82.6,90.6L82.6,90.6z"/>
									</g>
									<g>
										<path class="st1" d="M79,90.9c0,0,0.1-4.4-1.9-4.5s-2.1,0.4-2,1.2C75.3,88.3,77.4,90.6,79,90.9z"/>
										<path class="st2" d="M79,90.9c0,0,0.1-4.4-1.9-4.5s-2.1,0.4-2,1.2C75.3,88.3,77.4,90.6,79,90.9z"/>
									</g>
								</g>
							</g>
							
								<ellipse transform="matrix(0.999 -4.501428e-02 4.501428e-02 0.999 -3.6089 3.7131)" class="st0" cx="80.6" cy="82" rx="4.3" ry="1.2"/>
						</g>
					</g>
					<g>
						<g>
							<g>
								<ellipse class="st1" cx="75.5" cy="92.5" rx="0.5" ry="0.5"/>
								<ellipse class="st2" cx="75.5" cy="92.5" rx="0.5" ry="0.5"/>
							</g>
							<g>
								<ellipse class="st1" cx="70.5" cy="91.9" rx="0.5" ry="0.5"/>
								<ellipse class="st2" cx="70.5" cy="91.9" rx="0.5" ry="0.5"/>
							</g>
							<g>
								<ellipse class="st1" cx="72.8" cy="93.6" rx="0.5" ry="0.5"/>
								<ellipse class="st2" cx="72.8" cy="93.6" rx="0.5" ry="0.5"/>
							</g>
							<g>
								<ellipse class="st1" cx="74.1" cy="95.5" rx="0.5" ry="0.5"/>
								<ellipse class="st2" cx="74.1" cy="95.5" rx="0.5" ry="0.5"/>
							</g>
							<g>
								<ellipse class="st1" cx="70.9" cy="95.1" rx="0.5" ry="0.5"/>
								<ellipse class="st2" cx="70.9" cy="95.1" rx="0.5" ry="0.5"/>
							</g>
						</g>
						<g>
							<g>
								<ellipse class="st1" cx="83.9" cy="93.4" rx="0.5" ry="0.5"/>
								<ellipse class="st2" cx="83.9" cy="93.4" rx="0.5" ry="0.5"/>
							</g>
							<g>
								<ellipse class="st1" cx="88.9" cy="92.8" rx="0.5" ry="0.5"/>
								<ellipse class="st2" cx="88.9" cy="92.8" rx="0.5" ry="0.5"/>
							</g>
							<g>
								<path class="st1" d="M87.2,94.6c0,0.3-0.2,0.5-0.5,0.5s-0.5-0.2-0.5-0.5c0-0.3,0.2-0.5,0.5-0.5S87.2,94.3,87.2,94.6z"/>
								<path class="st2" d="M87.2,94.6c0,0.3-0.2,0.5-0.5,0.5s-0.5-0.2-0.5-0.5c0-0.3,0.2-0.5,0.5-0.5S87.2,94.3,87.2,94.6z"/>
							</g>
							<g>
								<path class="st1" d="M85.8,96.5c0,0.3-0.2,0.5-0.5,0.5s-0.5-0.2-0.5-0.5S85,96,85.3,96S85.8,96.2,85.8,96.5z"/>
								<path class="st2" d="M85.8,96.5c0,0.3-0.2,0.5-0.5,0.5s-0.5-0.2-0.5-0.5S85,96,85.3,96S85.8,96.2,85.8,96.5z"/>
							</g>
							<g>
								<ellipse class="st1" cx="88.5" cy="96.1" rx="0.5" ry="0.5"/>
								<ellipse class="st2" cx="88.5" cy="96.1" rx="0.5" ry="0.5"/>
							</g>
						</g>
					</g>
				</g>
			</g>
		</g>
		<g>
			<g>
				<path class="st0" d="M104.7,31.9c0,0,29.6,19.4,30.3,30.2c0.6,9.4-15.1,24.4-17.5,37.7c-1.5,8.3-10.7-2.5-11.6-8.4
					c-0.9-6,9.8-22.3,7.1-35.6S100.9,34.4,102,32.6C103.1,30.7,104.6,31.9,104.7,31.9L104.7,31.9z"/>
				<path class="st0" d="M112.9,39.4c0,0,17.4,13.4,19.3,20.5s-5.1,20.3-10.1,20.9c-5,0.6-7-5.2-6.3-15c0.8-9.9-8.2-25.7-7.4-27.6
					C109.1,36.1,112.9,39.4,112.9,39.4L112.9,39.4z"/>
			</g>
			<g>
				<path class="st0" d="M70.7,34.1c-0.9-1.6-3-1.9-4.4-0.9c-5.7,3.9-26.4,18.8-28.5,28c-2.5,10.6,9.8,25.9,15.5,36.1
					c4.1,7.3,9.2,1.2,10.4-4.7c1.1-5.9-3.7-23.4-2.3-36.9C63.2,38.8,71.8,36.1,70.7,34.1C70.7,34.2,70.7,34.2,70.7,34.1L70.7,34.1z"
					/>
				<path class="st0" d="M59.2,41c0,0-15.1,12.3-17.2,19.4s2,21,7,21.7s7.2-5,6.6-14.9c-0.5-9.9,8.7-25.5,8.1-27.4
					C63.1,37.9,59.2,41,59.2,41L59.2,41z"/>
			</g>
		</g>
	</g>
</g>
<g>
	<g>
		<g>
			<path class="st0" d="M266.4,308.2c0,0,12,11,12.4,16.1s12.2,0.2,11.9-9.4c-0.3-9.6-10.6-18.2-10.6-18.2L266.4,308.2z"/>
			<g>
				<path class="st0" d="M286.4,312.4c0,0,0.7,2.2,0.6,3.9s1.5,1.2,2,0.7s-0.3-4.3-0.3-4.3L286.4,312.4L286.4,312.4z"/>
				<path class="st0" d="M285.9,310.2c0,0,0.5,1.6,0.8,1.6c0.3,0,1.8,0.7,2,0C288.9,311.2,287.9,309.6,285.9,310.2L285.9,310.2z"/>
				<path class="st0" d="M285.6,316.7c0,0-0.5,1.7,0.2,1.8c0.6,0.1,1-0.4,0.9-1.1s-0.1-1.4-0.4-1.4s-0.8,0.9-0.8,0.9"/>
			</g>
		</g>
		<g>
			<path class="st0" d="M289.3,319.9c0,0,0.5,3.3-1.1,4.5c-1.5,1.2-0.1-1.3-0.5-2.9C287.3,319.7,288.7,318.9,289.3,319.9
				L289.3,319.9z"/>
			<path class="st0" d="M286.2,322.7c0,0,0.5,3.3-1.1,4.5s-0.1-1.3-0.5-2.9S285.6,321.7,286.2,322.7L286.2,322.7z"/>
			<path class="st0" d="M283.2,324.4c0,0-0.2,3.3-1.9,4.2c-1.7,0.9,0.2-1.3,0.1-3C281.3,323.8,282.9,323.3,283.2,324.4L283.2,324.4z
				"/>
		</g>
	</g>
	<g>
		<g>
			<g>
				<path class="st0" d="M273.9,279.4c0,0-11.7-0.8-13.8,0.1c-2,1-15.3,19.9-15,22.3s8.9,7.2,15.2,8.8c6.3,1.7,24.4-0.5,25-1.1
					S285.6,279.7,273.9,279.4L273.9,279.4z"/>
				<path class="st0" d="M284.3,309.1c0,0-11.9-2.1-17.6-10.5c-5.7-8.4-0.2-17.4,3.6-18.3c3.7-1,20.8-2.7,26.8-1.1
					c6,1.5,11.5,5.2,12.4,7.8c0.9,2.5-2.9,15.5-7.1,18.7C298.1,308.7,284.3,309.1,284.3,309.1L284.3,309.1z"/>
			</g>
			<g>
				<path class="st0" d="M301.2,282c0,0-3.2-2.3-4.8-2.4s-3.2,0.4-3.2,0.4s2.5,1.7,3.3,1.9C297.3,282,300.4,282,301.2,282L301.2,282
					z"/>
				<path class="st0" d="M299.1,282.5c0,0,2.7-0.4,3.2-0.3s1.9,0.8,2.5,1c0.6,0.2,0.1,0.8-0.7,0.9
					C303.3,284.1,299.8,282.7,299.1,282.5L299.1,282.5z"/>
				<path class="st0" d="M298.9,283c-0.2,0-2.5-0.8-2.6-0.8c-0.2,0-0.1,0.8,0.4,1.3c0.5,0.6,2.1,0.1,2.5-0.1
					C299.6,283.3,298.9,283,298.9,283L298.9,283z"/>
			</g>
		</g>
		<g>
			<g>
				<path class="st1" d="M289.6,283.5c1-0.9,2.3-0.9,2.3-0.9c0.2,0,0.5,0.1,0.6,0.3c0.2,0.2,0.3,0.4,0.3,0.6c0,0.3-0.2,0.6-0.4,0.8
					c-0.1,0.1-0.3,0.1-0.5,0.1c0,0-0.6,0-1.1,0.4c-0.1,0.1-0.3,0.2-0.4,0.2c-0.3,0.1-0.6,0-0.8-0.3
					C289.2,284.4,289.2,283.8,289.6,283.5L289.6,283.5z"/>
				<path class="st2" d="M289.6,283.5c1-0.9,2.3-0.9,2.3-0.9c0.2,0,0.5,0.1,0.6,0.3c0.2,0.2,0.3,0.4,0.3,0.6c0,0.3-0.2,0.6-0.4,0.8
					c-0.1,0.1-0.3,0.1-0.5,0.1c0,0-0.6,0-1.1,0.4c-0.1,0.1-0.3,0.2-0.4,0.2c-0.3,0.1-0.6,0-0.8-0.3
					C289.2,284.4,289.2,283.8,289.6,283.5L289.6,283.5z"/>
			</g>
			<path class="st0" d="M301.2,300c-3.3,0.1-7.3-0.3-8.9-2.9c-0.2-0.3-0.1-0.8,0.2-1c0.3-0.2,0.8-0.1,1,0.2c2,3.1,9.8,2.2,12.6,1.6
				c0.4-0.1,0.8,0.2,0.9,0.6s-0.2,0.8-0.6,0.9C306.2,299.4,303.9,299.9,301.2,300z"/>
			<g>
				
					<ellipse transform="matrix(0.9994 -3.420178e-02 3.420178e-02 0.9994 -9.6557 10.2034)" class="st1" cx="293.4" cy="287.3" rx="2.3" ry="2.2"/>
				
					<ellipse transform="matrix(0.9994 -3.420178e-02 3.420178e-02 0.9994 -9.6557 10.2034)" class="st2" cx="293.4" cy="287.3" rx="2.3" ry="2.2"/>
			</g>
		</g>
	</g>
	<g>
		<g>
			<path class="st0" d="M124.4,309.7c0,0-3.3-0.3-4.1-2c-0.8-1.7,1.3,0.2,3,0.1C125,307.8,125.5,309.4,124.4,309.7L124.4,309.7z"/>
			<path class="st0" d="M122.4,306c0,0-3.3-0.3-4.1-2.1c-0.8-1.8,1.3,0.2,3,0.2S123.5,305.7,122.4,306L122.4,306z"/>
			<path class="st0" d="M121.4,302.8c0,0-3.2-0.9-3.6-2.8s1.2,0.4,2.9,0.7C122.4,301,122.5,302.7,121.4,302.8L121.4,302.8z"/>
		</g>
		<g>
			<path class="st0" d="M136.5,296.7c0,0-12.6,2.6-14.8,2.3c-2.2-0.3-1.1,14.4,6.8,14.1c7.9-0.3,19.7-5.4,20.6-6.7
				C150.1,305.2,136.5,296.7,136.5,296.7z"/>
			<g>
				<path class="st0" d="M126,309.6c0,0,1,2.9,2.3,2.9c1.3,0.1,2.3-1,2.3-1.3c0-0.3-0.9-1.4-1.2-1.5
					C129,309.5,127.1,310.3,126,309.6L126,309.6z"/>
				<path class="st0" d="M130.1,309.3c-0.2,0,0.9,2.2,1.3,2.2c0.4,0,2.3-0.4,2.3-0.4s-1.3-2.3-1.5-2.4
					C132.1,308.6,131.4,309.1,130.1,309.3L130.1,309.3z"/>
				<path class="st0" d="M130.8,308.5c0,0-2.2,0.7-2.9,0.6c-0.7-0.1-0.7-1.7-0.7-1.7s1.7-0.4,2.2-0.4C130,307,130,308.3,130.8,308.5
					L130.8,308.5z"/>
			</g>
		</g>
	</g>
	<g>
		<g>
			<g>
				<path class="st0" d="M229.8,329c0,0,1-5.4-0.5-7.4c-1.4-2-11.3-1.1-11.3-1.1s24.2-19.7,24.8-19.7s4.5-1.2,9.1,5.5
					c4.6,6.8-13.8,26.4-22.7,22.9"/>
				<path class="st0" d="M248.8,303.1c0,0,13.8,13.6,14.2,18c0.4,4.3-6.1,18.2-21.9,20.1c-15.7,1.9-16.4,0.5-24.4,2
					s-14.7,1.6-13.6-3.8c1.2-5.4,5.1-10.1,6.9-10.4c1.8-0.3,14.5-3.2,21.8-7.4C239.1,317.4,232.8,308.6,248.8,303.1L248.8,303.1z"/>
			</g>
			<g>
				<path class="st0" d="M252.4,325.7c0,0-4.2,4.4-3.4,5.1c0.8,0.7,2.1,1.6,4.3,0.3c2.1-1.3,3-5.5,3-5.5L252.4,325.7z"/>
				<path class="st0" d="M255.1,320.8c0,0-2.3,1.9-1.9,2.7s1.2,1.3,1.8,1.3s2.9-0.5,2.9-0.5s-0.5-3.5-0.7-3.8
					S255.1,320.8,255.1,320.8L255.1,320.8z"/>
				<path class="st0" d="M258.8,323.3c0,0-1,3.5-2.2,4.2c-1.2,0.7,0.3,1.5,1.7,1.1c1.4-0.5,1.8-2.1,2-3
					C260.6,324.8,260.3,323,258.8,323.3L258.8,323.3z"/>
			</g>
		</g>
		<g>
			<path class="st0" d="M207.7,344.2c0,0-3.2,0.8-4.6-0.6s1.3-0.2,2.9-0.8S208.6,343.6,207.7,344.2L207.7,344.2z"/>
			<path class="st0" d="M205.9,339.1c0,0-3.2,0.8-4.6-0.6c-1.3-1.4,1.3-0.2,2.9-0.8S206.8,338.4,205.9,339.1L205.9,339.1z"/>
			<path class="st0" d="M206.5,334.3c0,0-3.2,0.8-4.6-0.6c-1.3-1.4,1.3-0.2,2.9-0.8C206.4,332.3,207.4,333.6,206.5,334.3
				L206.5,334.3z"/>
		</g>
	</g>
	<g>
		<path class="st0" d="M126.5,294.5c0,0-3.5,4.8,9,7.6c9.4,2.1,9.9,7.4,13.9,8.5c4.1,1.2,5.4,1.4,13.9,4.5c17.1,6.2,48,9.6,57.3,4.5
			c9.3-5.1,19.3-14.5,29.5-17.1c10.2-2.6,13-9.8,13-9.8L126.5,294.5L126.5,294.5z"/>
		<g>
			<path class="st0" d="M265.9,279.2c0,0,2.6,12.3-8.4,18.1c-11,5.8-38.1,10.2-63.8,5.1c-25.7-5.1-53.6-0.7-60-4
				c-6.4-3.3-10,1.6-4.5-14.3c5.5-15.9,32.8-49.7,56.3-54.8c23.5-5.1,47.5,2.4,57.4,11.8C252.8,250.4,265.4,274.5,265.9,279.2
				L265.9,279.2z"/>
			<g>
				<g>
					<g>
						<path class="st1" d="M174,299.1c0,0-7.1-27.3-4.5-30.4s21.7,3.4,22.6,4c1,0.5,1.1,22.5,2.6,25.7c1.5,3.2-10.4,0-15.3,0.1
							c-5,0.2-4.6-0.2-4.6-0.2"/>
						<path class="st2" d="M174,299.1c0,0-7.1-27.3-4.5-30.4s21.7,3.4,22.6,4c1,0.5,1.1,22.5,2.6,25.7c1.5,3.2-10.4,0-15.3,0.1
							c-5,0.2-4.6-0.2-4.6-0.2"/>
					</g>
					<g>
						<path class="st1" d="M131.6,296.2c0,0,3.1-9.3,6.7-16.7c3.6-7.4,4.1-14.4,4.1-14.4s-13,17.8-14.1,24.5
							C127.2,296.4,128.9,295.1,131.6,296.2L131.6,296.2z"/>
						<path class="st2" d="M131.6,296.2c0,0,3.1-9.3,6.7-16.7c3.6-7.4,4.1-14.4,4.1-14.4s-13,17.8-14.1,24.5
							C127.2,296.4,128.9,295.1,131.6,296.2L131.6,296.2z"/>
					</g>
					<g>
						<path class="st1" d="M144.8,265.5c0,0-11.6,31-10.6,31.5s6.8,1.9,10.5,0.4c3.7-1.5,6.6-27.2,6.3-28.2S148.3,265.8,144.8,265.5
							L144.8,265.5z"/>
						<path class="st2" d="M144.8,265.5c0,0-11.6,31-10.6,31.5s6.8,1.9,10.5,0.4c3.7-1.5,6.6-27.2,6.3-28.2S148.3,265.8,144.8,265.5
							L144.8,265.5z"/>
					</g>
					<g>
						<path class="st1" d="M152.9,269.4c0,0-2.8,21.2-2.2,26s19.2,2.5,20.5,1.8s-5.1-26.7-5-28.8S156,269.8,152.9,269.4L152.9,269.4
							z"/>
						<path class="st2" d="M152.9,269.4c0,0-2.8,21.2-2.2,26s19.2,2.5,20.5,1.8s-5.1-26.7-5-28.8S156,269.8,152.9,269.4L152.9,269.4
							z"/>
					</g>
					<g>
						<path class="st1" d="M233.1,275.3c0,0,1.2,18.5,10.7,24.7c0,0,15.6-4.5,18.3-8.2c0,0-15.4-14-17.6-17.8
							C242.3,270.1,240.6,276.4,233.1,275.3L233.1,275.3z"/>
						<path class="st2" d="M233.1,275.3c0,0,1.2,18.5,10.7,24.7c0,0,15.6-4.5,18.3-8.2c0,0-15.4-14-17.6-17.8
							C242.3,270.1,240.6,276.4,233.1,275.3L233.1,275.3z"/>
					</g>
					<g>
						<path class="st1" d="M244.1,270.5c0,0,11.2,15.7,18.6,17c0,0,2.9-6.6-0.6-14.5c0,0-6.2-4.4-9.1-6.8
							C250,263.7,247.3,267.2,244.1,270.5L244.1,270.5z"/>
						<path class="st2" d="M244.1,270.5c0,0,11.2,15.7,18.6,17c0,0,2.9-6.6-0.6-14.5c0,0-6.2-4.4-9.1-6.8
							C250,263.7,247.3,267.2,244.1,270.5L244.1,270.5z"/>
					</g>
					<g>
						<path class="st1" d="M194.2,272.9c0,0,1.1,24.5,3.8,26.3s19.6,2.3,21.4,1.6c1.7-0.6-4.3-19.4-4.8-22
							C214,276.2,197.6,275,194.2,272.9L194.2,272.9z"/>
						<path class="st2" d="M194.2,272.9c0,0,1.1,24.5,3.8,26.3s19.6,2.3,21.4,1.6c1.7-0.6-4.3-19.4-4.8-22
							C214,276.2,197.6,275,194.2,272.9L194.2,272.9z"/>
					</g>
					<g>
						<path class="st1" d="M216.5,277c0,0,3.3,22.2,6.6,23s15.1,0.5,15.5-0.7s-8.2-20-8.2-22.2C230.4,274.9,221.8,277.9,216.5,277
							L216.5,277z"/>
						<path class="st2" d="M216.5,277c0,0,3.3,22.2,6.6,23s15.1,0.5,15.5-0.7s-8.2-20-8.2-22.2C230.4,274.9,221.8,277.9,216.5,277
							L216.5,277z"/>
					</g>
					<g>
						<path class="st1" d="M255.5,261.3c0,0-2.7,1.2-2,2.9c0.6,1.7,7.6,5.1,7.6,5.1S256.8,261.3,255.5,261.3z"/>
						<path class="st2" d="M255.5,261.3c0,0-2.7,1.2-2,2.9c0.6,1.7,7.6,5.1,7.6,5.1S256.8,261.3,255.5,261.3z"/>
					</g>
				</g>
				<g>
					<path class="st0" d="M244.7,263.5c0,0-13.1-17.9-33.2-19.6l-0.4,1c0,0-22.5,16.6-19.8,21c2.7,4.5,25.6,10.2,39.7,5.6
						C245,266.8,244.7,263.5,244.7,263.5L244.7,263.5z"/>
					<path class="st0" d="M229.8,235.7c-0.9-0.1-15.5,4.3-15.3,5.8s16.9,4.3,22.7,10.5c5.8,6.2,8.5,10.7,11.3,10
						c2.8-0.7,4.9-4,4.1-5.9C251.8,254.2,243.6,236.6,229.8,235.7L229.8,235.7z"/>
					<path class="st0" d="M202.6,228.3c0,0-6.9,1.4-6.2,3.9c0.7,2.5,12.9,9.2,14.2,9.3c1.3,0.1,5.8-3.8,10.9-5.6s6.1-2.4,5.1-2.8
						C225.5,232.7,204.1,228.3,202.6,228.3L202.6,228.3z"/>
					<path class="st0" d="M193.1,234.2c0,0-16.5,2.9-20.6,8.6c-4.2,5.7-6.1,17.4-5.6,20.5s16.5,2,19.2,2.1
						c2.8,0.1,9.3-11.8,15.2-16.1c6-4.3,6.9-5.2,6.9-5.2S196.7,235.1,193.1,234.2L193.1,234.2z"/>
					<path class="st0" d="M146.8,261.5c0,0,9-12.8,17-18.1c7.9-5.2,9.6-5.8,9.6-4.2c0.1,1.6-9.6,14.3-9.3,19.9
						C164.4,264.6,147.3,265.5,146.8,261.5L146.8,261.5z"/>
					<path class="st0" d="M175.2,237.1c0,0-1.1-1.8,5-5.1c6-3.3,14.9-2.4,14.9-2.4s1,0.9-3,2.6S175.9,236.3,175.2,237.1L175.2,237.1
						z"/>
				</g>
			</g>
		</g>
	</g>
</g>
<g>
	<g>
		<g>
			<path class="st0" d="M155.7,188.6c0,0-0.5-3.7-3.1-3.1c-2.5,0.6-3.6,1.4-3.6,3.3c0,2-4.1,2.2-4.1,3.9s-0.8,2.9,1.5,3.3
				c2.3,0.4-3.3,3.9,1,5.9c4.3,2,6.6,2.4,8.1-0.2C157.3,199.1,156.8,188.6,155.7,188.6L155.7,188.6z"/>
			<g>
				<path class="st0" d="M246.9,184c0,0-10.9-10.2-27.5-17.1c-16.7-6.9-26.8-12.7-41.2-5.6c-14.3,7.2-21.3,16.7-24.5,28.2
					c-3.2,11.6-3,22.9-1.4,26.1c1.6,3.2,24.1,17.8,30.5,18.7c6.5,0.9,21.3,1.4,26.1-7.4C213.8,218.2,246.9,184,246.9,184L246.9,184z
					"/>
				<g>
					<g>
						<g>
							<path class="st0" d="M210.1,201.2c0,0-4.5,14.2-5.1,18.4c-0.6,4.2,3.6,8.7,3.6,8.7S209.8,202.6,210.1,201.2z"/>
							<path class="st0" d="M190.2,232.7c0,0,13.6,9.6,17.3,9.1s5.7-3.5,5.1-5.1s-8.5-9-11.3-9.9
								C198.5,225.9,190.2,232.7,190.2,232.7L190.2,232.7z"/>
							<path class="st0" d="M208.6,228.3c0,0-0.6-11.9-2.8-9.8c-4.5,4.3-12.1,0.4-15,3.5c-2,2.1-0.2,11-0.2,11s13.2-1.4,15.8-2.3
								C208.1,230,208.6,228.3,208.6,228.3L208.6,228.3z"/>
						</g>
						<path class="st0" d="M246,184c0,0-5.3,22.9-11.3,33.6c-6,10.6-7.9,14.8-7.6,19.7c0.2,4.9,4.2,13.2,2.3,14.8
							c-1.9,1.6-8.8,3.5-11.3-3.5c-2.5-6.9-11.1-21.1-11.3-29.2c-0.2-8.1,3.9-16.9,3.9-16.9L246,184L246,184z"/>
					</g>
					<g>
						<path class="st0" d="M201,224.3c0,0-2.4-9.1-7.9-16.1c0,0,8.6,2.8,8.9,13.9c0.3,11.1-2,7.8-2,7.8L201,224.3"/>
						<path class="st0" d="M172.3,197.6c0,0,24.8,8.2,28.2,20.2c3.4,12-9.7,15.9-13.9,15.9s-7.2-0.3-7.2-0.3s11.5-1.3,15.8,4.9
							c4.3,6.2,3.5,9.7,2.5,10.5c-0.9,0.8-17.9-0.9-24.8-5.4c-6.9-4.5-18.6-17.2-21.2-29.2C149,202.1,172.3,197.5,172.3,197.6
							L172.3,197.6z"/>
						<path class="st0" d="M190.4,236.2c0,0-12.6-3.9-12.9-4.7c-0.3-0.8,10.6,2.7,17.5-0.6c0,0-0.6,1.4-2.4,1.8
							c-1.7,0.5-5.5,1-5.5,1s3,0.5,5.3,1.8c2.3,1.4,2.9,3.2,2.9,3.2S193.9,237.3,190.4,236.2L190.4,236.2z"/>
					</g>
				</g>
			</g>
		</g>
		<path class="st0" d="M246.9,184c0,0-2.4,6-2.9,7.8c-0.5,1.8-18.4-8.5-18.4-17.2C225.7,174.5,242.4,184,246.9,184L246.9,184z"/>
	</g>
	<g>
		<g>
			<path class="st0" d="M212.2,132c0,0-1.9-13.1,2-14.5c3.9-1.4,11.6,7.6,14.7,12.3c3.1,4.8,6,18.2,6,18.2l-6.3,4
				C228.6,152,214.5,141.1,212.2,132z"/>
			<path class="st0" d="M259.1,173.9c0,0-2.1,7.5-9,9.8c-6.9,2.3-19.2-2.8-22.8-5.6c-3.6-2.8-12.1-9.3-12.4-14.7
				c-0.1-1,6.3-16.3,12.4-18.7c6.1-2.4,8.4-2,13.7,0.8c5.2,2.8,9.8,6.4,11.7,7.5c1.9,1.2,3,9,4.3,12.3
				C258.2,168.6,259.4,172.4,259.1,173.9L259.1,173.9z"/>
			<g>
				<path class="st0" d="M228.1,154.7c0,0-2.3-17.9-8.8-25.1c-6.5-7.3-11-10.2-12.6-9.9s-3.5,19.4,2.3,27.6
					c5.9,8.2,11.7,14.7,13.6,14.7S228.1,154.7,228.1,154.7L228.1,154.7z"/>
				<path class="st0" d="M220.4,154.8c0,0-2-15.6-5.8-23.9c-3.8-8.3-6.7-10-7.1-8.6c-0.3,1.4-1.2,13.4,0.8,18.4
					c2,5,9.4,13.1,10,14.9S220,156,220.4,154.8z"/>
			</g>
		</g>
		<g>
			<g>
				<ellipse class="st0" cx="239.2" cy="161.1" rx="2.9" ry="3"/>
				<g>
					<path class="st0" d="M255.6,174.6v0.2c0,0,0,2.2-1.2,4c-0.6,0.9-3.4,1.6-5.4,1.1c-0.9-0.2-2-0.8-2.1-2.2
						c-0.1-0.4-0.3-0.5-0.7-0.5c-0.4,0-0.4,0.5-0.4,0.5c0.1,1.6,1.2,2.7,2.9,3.2c0.5,0.1,1.1,0.2,1.8,0.2c1.8,0,4.1-0.6,4.8-1.7
						c1.3-2,1.4-4.4,1.4-4.5v-0.2L255.6,174.6L255.6,174.6z"/>
					<path class="st0" d="M256.6,178.8c0.2-0.3,0.5-0.7,0.6-0.9c-0.4-0.8-0.7-2.1-0.6-3.1l0-0.4l-0.9-0.1l0,0.2
						C255.7,175,255.6,177.6,256.6,178.8L256.6,178.8L256.6,178.8z"/>
					<path class="st0" d="M256.6,174.7c-0.2,0.3-0.6,0.4-0.9,0.1c-0.9-0.6-2.4-1.9-2-2.5c0.5-0.8,4.5-0.8,4.4-0.1
						C258,172.8,257.1,174,256.6,174.7z"/>
				</g>
			</g>
			<g>
				<g>
					<line class="st2" x1="251.4" y1="174.1" x2="244.4" y2="165.7"/>
					<path class="st0" d="M251.3,174.4c-0.1,0-0.1-0.1-0.2-0.1l-7.1-8.5c-0.1-0.1-0.1-0.3,0-0.5c0.1-0.1,0.3-0.1,0.5,0l7.1,8.5
						c0.1,0.1,0.1,0.3,0,0.5C251.5,174.4,251.4,174.5,251.3,174.4L251.3,174.4z"/>
				</g>
				<g>
					<line class="st2" x1="249.6" y1="174.7" x2="239.7" y2="168.1"/>
					<path class="st0" d="M249.6,175c0,0-0.1,0-0.1,0l-9.9-6.6c-0.1-0.1-0.2-0.3-0.1-0.4c0.1-0.1,0.3-0.2,0.4-0.1l9.9,6.6
						c0.1,0.1,0.2,0.3,0.1,0.4C249.8,175,249.7,175,249.6,175L249.6,175z"/>
				</g>
				<g>
					<line class="st2" x1="250.4" y1="176.5" x2="239.1" y2="172.9"/>
					<path class="st0" d="M250.3,176.9C250.3,176.9,250.3,176.9,250.3,176.9l-11.3-3.7c-0.2-0.1-0.3-0.2-0.2-0.4
						c0.1-0.2,0.2-0.3,0.4-0.2l11.3,3.7c0.2,0.1,0.3,0.2,0.2,0.4C250.6,176.8,250.5,176.9,250.3,176.9L250.3,176.9z"/>
				</g>
			</g>
		</g>
	</g>
</g>
</svg>
