<?xml version="1.0" encoding="UTF-8"?>
<svg id="OBJECTS" xmlns="http://www.w3.org/2000/svg" viewBox="0 0 407.39 440.87">
  <defs>
    <style>
      .cls-1 {
        stroke-width: 2.92px;
      }

      .cls-1, .cls-2, .cls-3, .cls-4, .cls-5 {
        fill: #ffc857;
      }

      .cls-1, .cls-3 {
        stroke: #210a35;
      }

      .cls-1, .cls-3, .cls-5 {
        stroke-miterlimit: 10;
      }

      .cls-6 {
        fill: #007a7a;
      }

      .cls-7 {
        fill: #995834;
      }

      .cls-8 {
        fill: #c6a664;
      }

      .cls-9 {
        fill: #230c3a;
      }

      .cls-10 {
        fill: #197f67;
      }

      .cls-11 {
        fill: #088484;
      }

      .cls-3 {
        stroke-width: 2.73px;
      }

      .cls-4 {
        stroke: #088484;
        stroke-linecap: round;
        stroke-linejoin: round;
        stroke-width: .91px;
      }

      .cls-5 {
        stroke: #007a7a;
        stroke-width: .54px;
      }
    </style>
  </defs>
  <g>
    <path class="cls-2" d="M314.38,232.2c.33,2.12,8.07,16.88,10.64,24.1,7.65-4.45,10.73-.94,1.4,6.67,2.9,9.34,3.89,15.72,3.89,15.72,0,0-18.12,2.45-26.92-.53-2.78,.79-6.5,7.18-6.5,7.18l-9.4-2.16s-2.46-22.83-6.73-36.31,3.94-21.29,3.94-21.29l29.68,6.63Z"/>
    <path class="cls-2" d="M299.18,246.35s-5.04,16.56-4.92,21.98c-4.44,1.78-9.23,1.25-9.23,1.25l-2.17-17.43,16.33-5.8Z"/>
    <path class="cls-2" d="M304.05,245.05s-15.65,13.68-31.36,17.57-26.21-.64-.08-14.5c26.14-13.86,31.44-3.08,31.44-3.08Z"/>
    <path class="cls-2" d="M317.44,237.89s-17.2,10.65-27.91,14.13-17.22,1.23-17.22,1.23c0,0-4.76-11.95-6.76-17.81-2-5.85,14.94-13.57,20.08-15.45,5.15-1.89,28.08-5.69,31.8,17.9Z"/>
    <path class="cls-2" d="M301.31,253.09s-3.62-3.43-7.66-.26,4.32,17.28,10.48,11.43c6.16-5.85-2.82-11.17-2.82-11.17Z"/>
    <g>
      <path class="cls-2" d="M301.31,253.09s-3.62-3.43-7.66-.26,4.32,17.28,10.48,11.43"/>
      <path class="cls-7" d="M301.31,253.09c-2.38-1.86-5.95-1.78-7.8,.52-.86,1.46-.36,3.3,.2,4.84,1.45,3.95,6.08,9.36,10.42,5.8-4.14,4.46-9.88-1.2-11.33-5.45-.63-1.75-1.14-3.98,.01-5.68,2.15-2.56,6.31-2.43,8.5-.03h0Z"/>
    </g>
    <path class="cls-2" d="M234.73,296.09l-19.01,3.68-45.09,22.61s-13.74-4.39-19.05-3.57c-5.31,.83-11.5,.7-11.08,5.71,.42,5.01,22.05,4.19,22.05,4.19,0,0-5.91,1.64-5.77,4.89,.14,3.24,12.04-1.87,15.85-5.37,12.23-2.99,49.24-14.55,49.24-14.55l23.35-1.45-10.49-16.14Z"/>
    <path class="cls-2" d="M265.91,284.35c-1.42,.22-33.06,11.31-33.06,11.31,0,0,7.82,17.64,12.68,20.88,4.86,3.23,20.38-32.18,20.38-32.18Z"/>
    <polygon class="cls-2" points="81 352.36 63.15 344.26 66.59 336.65 85.93 345.61 81 352.36"/>
    <polygon class="cls-2" points="87.28 319.29 70.71 307.18 75.25 299.67 92.09 311.74 87.28 319.29"/>
    <path class="cls-2" d="M214.08,396.5l-69.94,.36-66.28-43.73,6.41-10.06,69.48,31.63,24.65-7.1s-45.13-5.68-45.3-6.74-47.8-41.53-47.8-41.53c0,0,4.83-10.91,6.11-9.66,1.28,1.25,61.61,34.67,61.61,34.67,0,0,31.32-8.5,44.19-5.06,12.87,3.44,17.85,54.17,16.88,57.22Z"/>
    <path class="cls-2" d="M309.95,287.65c-1.06,.17-10.95-16.79-31.07-20.19-20.11-3.4-16.49,15.26-16.49,15.26l-23.01,40.94s-9.76-2.11-4.05,4.26c-13.82-2.57-30.04,9.75-30.04,9.75,0,0,12.93,24.83,11.62,42.08l-1.31,17.25s21.74-4.83,30.26-8.33c8.52-3.5,51.67-26.89,61.16-42.88s16.94-56.67,16.94-56.67l-14.01-1.45Z"/>
    <path class="cls-2" d="M301.9,333.88l-21.16,22.51s-21.62,59.22-22.79,58.67c-1.17-.54-17.01,9.54-26.76,16.85-9.74,7.32,5.15,14.43,21.83,2.77-2.47,5.1,.23,6.13,4.88,1.05s7.33-18.19,7.33-18.19l31.85-51.74,25.08-25.3-20.26-6.64Z"/>
    <path class="cls-2" d="M310.82,296.28c1.4-2.8,3.94-4.86,6.98-5.6,5.28-1.29,13.15-1.85,15.22,5.36,3.18,11.11-7.47,47.59-7.47,47.59l-32.96-9.02s9.33-20.55,18.23-38.32Z"/>
    <g>
      <path class="cls-2" d="M262.4,282.72s-4.43,22.81,6.85,25.41c11.28,2.6,30.61-8.39,35.15-14.17"/>
      <path class="cls-8" d="M262.4,282.72c-.78,7.12-1.83,18.67,4.23,23.68,1.32,1.04,3.05,1.34,4.71,1.52,3.81,.25,7.6-.48,11.26-1.63,7.89-2.68,15.82-6.4,21.81-12.33-3.61,4.39-8.65,7.39-13.63,10-6.32,3.07-13.46,5.84-20.61,4.83-11.01-1.65-9.37-18.07-7.76-26.07h0Z"/>
    </g>
    <g>
      <g>
        <path class="cls-2" d="M235.33,327.91s10.47,6.71,14.24,12.29"/>
        <path class="cls-8" d="M235.33,327.91c5.55,2.89,11.08,6.76,14.24,12.29-4.33-4.59-9.5-8.16-14.24-12.29h0Z"/>
      </g>
      <g>
        <path class="cls-2" d="M239.38,323.65s10.55,4.89,13.64,8.4"/>
        <path class="cls-8" d="M239.38,323.65c5.03,1.7,10.32,4.11,13.64,8.4-4.33-3.18-9.2-5.33-13.64-8.4h0Z"/>
      </g>
    </g>
    <path class="cls-2" d="M205.29,337.66l-8.09,1.62s17.05,28.08,14.07,57.92c3.07,.19,4.33-.21,4.33-.21,0,0,8.4-31.14-10.31-59.33Z"/>
    <g>
      <path class="cls-2" d="M170.14,355.37s10.3,12,11.79,25.1"/>
      <path class="cls-6" d="M170.14,355.37c6.37,6.77,11.31,15.66,11.79,25.1-1.98-9.16-6.59-17.39-11.79-25.1h0Z"/>
    </g>
    <path class="cls-5" d="M203.78,382.78l-4.03-15.42s-19.43,2.75-20.27,2.61c-.84-.14-6.99,9.25-6.99,9.25l11.72,7.15,19.57-3.59Z"/>
    <polygon class="cls-5" points="194.46 354.3 188.58 342.71 165.84 345.15 160.17 354.2 172.54 358.53 194.46 354.3"/>
    <path class="cls-5" d="M205.99,358.5s-16.66-.4-29.46,6.48"/>
    <polygon class="cls-2" points="84.27 343.06 77.85 353.12 86.36 358.87 93.52 347.15 84.27 343.06"/>
    <path class="cls-2" d="M85.29,319.32s6.9,7.09,7.44,7c.53-.08,7.77-11.27,7.77-11.27l-10.19-6.03-5.02,10.3Z"/>
    <path class="cls-2" d="M68.44,337.17l-2.52,8.28s-12.11,20.11-25.72,28.75c-13.62,8.65-18.3,8.29-6.37-11.25,11.92-19.54,17.54-32.38,22.04-31.44,4.5,.93,12.58,5.66,12.58,5.66Z"/>
    <path class="cls-2" d="M72.08,308.4l5.3-7.42s-4.87-3.91-5.62-4.34c-.75-.43-14.41,5.4-26.99,11.89-12.59,6.49-15.71,12.88-13.61,14.06,2.11,1.18,19.64-4.43,25.79-6.35,6.16-1.92,14.59-7.76,14.59-7.76"/>
    <g>
      <path class="cls-2" d="M296.06,257.57s1.72-5.87,6.23,.38c-1.86,.99-.41,2.49,.72,2.38"/>
      <path class="cls-7" d="M296.06,257.57c1.3-4.63,4.68-2.46,6.54,.44-.3,.19-.67,.36-.88,.63-.56,.79,.45,1.68,1.29,1.68-1.7,.17-2.48-1.73-.82-2.56,0,0-.07,.31-.07,.31-1.89-2.55-4.36-4.43-6.06-.5h0Z"/>
    </g>
    <path class="cls-1" d="M320.47,247.07s-4.25,1.55-6.15,3.85"/>
    <path class="cls-2" d="M321.81,254.19c.1,1.03-.36,1.91-1.03,1.97-.67,.06-1.29-.71-1.39-1.74-.1-1.03,.36-1.91,1.03-1.97,.67-.06,1.29,.71,1.39,1.74Z"/>
    <g>
      <path class="cls-2" d="M324.4,269.18s-3.92,8.37-8.76-2.9"/>
      <path class="cls-7" d="M324.4,269.18c-1.52,4.66-5.58,4.35-7.59,.21-.53-.99-.91-2.04-1.16-3.12,.62,.92,1.19,1.85,1.81,2.72,2.35,3.47,4.42,3.61,6.95,.19h0Z"/>
    </g>
    <path class="cls-2" d="M287.82,219.76c.1,.44-.85,1.02-2.12,1.31-1.27,.28-2.38,.16-2.47-.28-.1-.44,.85-1.02,2.12-1.31,1.27-.28,2.38-.16,2.47,.28Z"/>
    <g>
      <g>
        <path class="cls-2" d="M258,429.17s-2.54,3.49-4.98,5.53"/>
        <path class="cls-7" d="M258,429.17c-1.22,2.17-2.88,4.16-4.98,5.53,1.47-1.64,3.44-3.98,4.98-5.53h0Z"/>
      </g>
      <g>
        <path class="cls-2" d="M251.61,430.44s-7.71,7.92-16.31,10.05"/>
        <path class="cls-7" d="M251.61,430.44c-4.39,4.67-9.96,8.68-16.31,10.05,6.15-2.01,11.46-5.86,16.31-10.05h0Z"/>
      </g>
      <g>
        <path class="cls-2" d="M249.42,428.04s-13.5,8.8-18.83,10.95"/>
        <path class="cls-7" d="M249.42,428.04c-5.95,4.14-12.08,8.24-18.83,10.95,6.48-3.3,12.51-7.36,18.83-10.95h0Z"/>
      </g>
      <g>
        <path class="cls-2" d="M245.29,425.83s-9.81,6.49-16.44,8.76"/>
        <path class="cls-7" d="M245.29,425.83c-5.05,3.6-10.48,6.92-16.44,8.76,5.72-2.46,11.02-5.71,16.44-8.76h0Z"/>
      </g>
    </g>
    <g>
      <g>
        <line class="cls-2" x1="155.79" y1="326.22" x2="141.78" y2="326.26"/>
        <path class="cls-7" d="M155.79,326.22c-4.67,.68-9.35,.7-14.02,.05,4.66-.69,9.35-.7,14.02-.05h0Z"/>
      </g>
      <g>
        <line class="cls-2" x1="155.45" y1="322.66" x2="140.17" y2="323.16"/>
        <path class="cls-7" d="M155.45,322.66c-5.07,.83-10.17,1-15.28,.5,5.07-.84,10.17-1,15.28-.5h0Z"/>
      </g>
      <g>
        <line class="cls-2" x1="155.2" y1="320.08" x2="143.77" y2="319.88"/>
        <path class="cls-7" d="M155.2,320.08c-3.82,.6-7.64,.54-11.43-.2,3.82-.61,7.64-.53,11.43,.2h0Z"/>
      </g>
    </g>
  </g>
  <g>
    <path class="cls-2" d="M20.94,130.96l2.76,15.55s8.34,9.3,8.79,15.07c.45,5.77,.3,13.75-2.5,16.56-2.79,2.82-9.31,.79-10.78-9.27-1.47-10.06-1.53-21.28-1.53-21.28l-3.85-17.79,7.1,1.16Z"/>
    <path class="cls-2" d="M147.31,122.63l17.65,8.51s9.23,2.59,14.62,8.8c5.39,6.22,4.62,12,2.33,17.94-2.29,5.93-8.4,2.84-10.51-4.3-2.11-7.14-4.81-10.86-4.81-10.86,0,0-2.16,3.06-1.7,5.67s-.32,5.23-3.75,.26-.02-11.94-.02-11.94l-17.06-8.77,3.27-5.31Z"/>
    <path class="cls-2" d="M136.85,263.75s21.45,10.87,33.75,14.32c12.3,3.45,24.16,12.24,8.03,12.83-16.13,.59-49.74-16.59-49.42-17.44,.33-.85,.38-10.24,.38-10.24l7.26,.53Z"/>
    <path class="cls-2" d="M140.71,230.19l-1.22,5.69s19.91,4.76,28.21,3.42c8.31-1.34,21.06,2.61,6.8,8.46-14.27,5.85-41.97-6.46-41.97-6.46l.53-11.48,7.65,.36Z"/>
    <path class="cls-2" d="M54.88,169.16l42.07,33.11s-2.44,2.95,1.11,3.02c2.19,8.63,22.31,62.48,22.31,62.48,0,0,15.46-.53,19.05-5.63-9.02-20.36-26.43-64.4-26.43-64.4l-38.55-34.67,18.61-4.5,39.63,21.78s-5.83,1.65,1.95,3.35l-5.33,46.63,15.32,2.34,7.38-53.62s-36.91-28.84-36.86-29.8c.04-.96-39.46,1.33-60.26,19.92Z"/>
    <path class="cls-2" d="M69.8,40.88c.71,.07,17.46-33.91,26.38-35.58s31.08,10.29,37.2,20.92c6.12,10.64-1.41,19.42-12.25,25.45-10.85,6.04-16.12,9.6-16.12,9.6,0,0,4.04,33.69,7.84,37.1,0,0,6.85-1.98,2.93,1.86,12.78,3.47,36.94,17.17,36.94,17.17,0,0-12.66,20.19-15.45,23.01l-22.25-5.42s5.92,11.78,7.37,16.23c-9.52-2.46-44.86,1.44-66.76,20.98-11.71-9.39-25.82-38.44-25.82-38.44l-28.48-4.42s-2.79-28.1,3.51-40.02c6.31-11.93,33.1-51.73,64.94-48.46Z"/>
    <path class="cls-2" d="M95.49,61.99s-11.23-7.5-14.01-11c-2.78-3.51,4.8-18.11,10.05-22.9,5.25-4.79,20.15-11.21,32.75-5.38,12.6,5.83,10.31,14.93,5.96,18.61-4.34,3.68-24.08,17-34.75,20.67Z"/>
    <path class="cls-2" d="M94.12,61.05c.86,.37,1.67,.58,2.37,.58,.64-.24,1.31-.52,1.99-.81,5.39-4.32,22.06-27.14,22.06-27.14,0,0-4.86-11.37-5.5-11.61-.2-.08-2.03-.71-4.51-1.55-8.2,.72-15.6,4.49-18.99,7.57-4.69,4.27-11.22,16.35-10.6,21.4,.33,.91,.55,1.5,.55,1.5,0,0,.9,.95,2.29,2.28,3.13,2.75,7.99,6.16,10.35,7.78Z"/>
    <path class="cls-2" d="M126.95,24.13c-.81-.49-1.69-.97-2.67-1.42-5.62-2.6-11.7-2.76-17.18-1.72,.74,1.49,1.68,2.98,2.04,3.72,1,2.03,2.31,4.7,4.7,5.38,.77-1.52-.03-3.56-.88-4.96,1.75,2.9,3.44,5.79,5.1,8.75,1.15,2.04,4.33,8.1,6.85,8.52,1.44-3.28-2.15-7.39-2.74-10.43,1.8,2.03,4.21,6.99,7.04,7.46,1.42-3.19-.85-8.21-3.16-10.45,1.24,.9,5.12,4.82,6.38,2.84,.97-1.53-2.63-5.23-5.5-7.69Z"/>
    <g>
      <path class="cls-2" d="M55.03,63.42s-17.18,26.23-22.13,35.28c1.79,1.66,4.42,2.43-1.72,4.45-.92,4.27,2.77,30.04,2.77,30.04l-4.13,.6"/>
      <path class="cls-11" d="M55.03,63.42c-3.69,5.94-12.93,20.8-16.46,26.54-1.81,2.96-3.6,5.93-5.27,8.95l-.09-.55c2.46,1.9,3.51,3.03-.04,4.52-.61,.25-1.23,.46-1.85,.67l.28-.31c-.31,2.45-.04,4.95,.11,7.42,.58,7.52,1.47,15.02,2.35,22.52v.1s-.08,.01-.08,.01l-4.14,.5,4.11-.7-.08,.11c-1.42-9.66-3.17-19.36-3.2-29.14,.02-.16,.12-1.08,.14-1.22l.26-.09c1.1-.4,2.45-.8,3.32-1.53,.42-.42,.06-.59-.29-.95-.53-.46-1.21-.94-1.76-1.48l.17-.3c6.96-12.04,14.69-23.59,22.53-35.06h0Z"/>
    </g>
    <g>
      <g>
        <path class="cls-2" d="M32.9,98.69s-6.5-3.97-10.45-5.73"/>
        <path class="cls-11" d="M32.66,99.08c-3.32-2.16-6.67-4.32-10.21-6.12,3.68,1.54,7.19,3.43,10.68,5.35,0,0-.47,.78-.47,.78h0Z"/>
      </g>
      <g>
        <path class="cls-2" d="M31.18,103.14s-5.41-1.11-9-1.28"/>
        <path class="cls-11" d="M31.09,103.59c-2.93-.72-5.89-1.4-8.91-1.73,3.04,.03,6.07,.4,9.09,.84l-.18,.89h0Z"/>
      </g>
    </g>
    <g>
      <path class="cls-2" d="M103.98,72.81s-4.4,32.87,11.06,62.2"/>
      <path class="cls-11" d="M103.98,72.81c-1.2,18.52,1.11,37.52,7.89,54.85,.39,1.13,1.02,2.6,1.53,3.69,0,0,1.63,3.65,1.63,3.65-10.3-18.63-13.71-41.18-11.06-62.2h0Z"/>
    </g>
    <g>
      <path class="cls-2" d="M115.79,100.25s-3.04,3.45-4.3,7.35"/>
      <path class="cls-11" d="M115.79,100.25c-1.34,2.6-2.78,4.85-4.3,7.35,.31-2.91,2-5.58,4.3-7.35h0Z"/>
    </g>
    <g>
      <path class="cls-2" d="M112.85,98.39s-3.52,1.56-5.37,5.72"/>
      <path class="cls-11" d="M112.85,98.39c-2.07,1.76-3.71,3.61-5.37,5.72,.49-2.68,2.7-5.11,5.37-5.72h0Z"/>
    </g>
    <path class="cls-4" d="M94.12,61.05s4.05,2.21-2.83,4.91c-3.61,4.94-18.95,47.21,17.2,84.77"/>
    <polygon class="cls-2" points="31.48 113.73 0 108.88 .17 129.88 34.31 134.78 31.48 113.73"/>
    <path class="cls-2" d="M137.28,140.43s10.57-12.47,15.56-22.88c-2.96-3.25-18.37-10.01-18.37-10.01l-13.69,29.61,16.5,3.28Z"/>
    <g>
      <polyline class="cls-2" points="106.03 39.93 100.26 57.01 94.45 46.82"/>
      <path class="cls-7" d="M106.03,39.93c-1.62,6.14-3.6,12.16-5.69,18.15-1.11-1.99-2.21-3.99-3.25-6.01-.92-1.73-1.8-3.47-2.64-5.24,2.17,3.26,4.2,6.6,6.18,9.97l-.79,.08c1.88-5.71,3.88-11.38,6.19-16.94h0Z"/>
    </g>
    <g>
      <path class="cls-2" d="M91.55,42.13s-7.5,9.76,1.26,8.93"/>
      <path class="cls-7" d="M91.55,42.13c-1.63,3.61-5.41,8.76,1.26,8.93-1.04,.27-2.2,.42-3.33-.08-3.33-1.98,.15-6.98,2.07-8.84h0Z"/>
    </g>
    <path class="cls-2" d="M104.25,38.67c-.38,.98-1.19,1.57-1.81,1.33s-.82-1.23-.45-2.2c.38-.98,1.19-1.57,1.81-1.33,.62,.24,.83,1.23,.45,2.2Z"/>
    <path class="cls-2" d="M109.19,43.1c-.38,.98-1.19,1.57-1.81,1.33-.62-.24-.83-1.23-.45-2.2,.38-.98,1.19-1.57,1.81-1.33s.83,1.23,.45,2.2Z"/>
    <line class="cls-3" x1="108.79" y1="33.21" x2="102.25" y2="31.66"/>
    <line class="cls-3" x1="111.95" y1="36.37" x2="112.73" y2="42.35"/>
    <g>
      <path class="cls-2" d="M22.76,161.24s1.29,10.84-.7,15.06"/>
      <path class="cls-7" d="M22.76,161.24c1.01,4.81,1.64,10.56-.7,15.06,1.13-4.95,.45-10.01,.7-15.06h0Z"/>
    </g>
    <g>
      <path class="cls-2" d="M27.16,161.84s.97,11.69-.76,17.11"/>
      <path class="cls-7" d="M27.16,161.84c.93,5.61,1.31,11.71-.76,17.11,.84-5.69,.44-11.37,.76-17.11h0Z"/>
    </g>
    <g>
      <path class="cls-2" d="M30.37,162.34s1.46,10.42,0,15.46"/>
      <path class="cls-7" d="M30.37,162.34c1.18,5,1.8,10.54,0,15.46,.55-5.16-.07-10.26,0-15.46h0Z"/>
    </g>
    <g>
      <path class="cls-2" d="M172.77,143.41c-.02,.36,4.42,11.56,3.14,16.79"/>
      <path class="cls-7" d="M172.77,143.41c2.21,5.14,4.67,11.16,3.14,16.79,.25-5.76-2.11-11.19-3.14-16.79h0Z"/>
    </g>
    <g>
      <path class="cls-2" d="M176.62,142.58s4.92,10.9,2.88,17.78"/>
      <path class="cls-7" d="M176.62,142.58c2.8,5.28,4.96,11.91,2.88,17.78,.8-6.08-1.25-12-2.88-17.78h0Z"/>
    </g>
    <g>
      <path class="cls-2" d="M179.8,142.84s2.91,6.97,3,11.14"/>
      <path class="cls-7" d="M179.8,142.84c1.96,3.31,3.4,7.25,3.01,11.14-.87-3.8-2.2-7.31-3.01-11.14h0Z"/>
    </g>
  </g>
  <g>
    <path class="cls-2" d="M351.58,61.5s-.21,10.01-1.92,13.85c-10.01-1.49-21.94-6.6-25.35-3.41s-14.27,4.47-14.27,4.47c0,0-39.41-10.01-49.85-16.19-10.44-6.18-13.21-7.88-13.21-7.88,0,0-4.26-7.24-12.14-6.18-7.88,1.07-17.68,8.73-19.6,11.5-1.92,2.77,2.13,5.96,9.16,3.62,7.03-2.34,13.63-4.9,13.63-4.9,0,0-4.26,2.98-7.24,4.9-2.98,1.92,1.92,2.98,5.33,1.7,3.41-1.28,10.23-4.05,10.23-4.05l28.55,18.75,45.16,9.16s38.98,2.34,60.29-2.56c-9.16-4.9-20.88-8.31-20.88-8.31l.85-20.02-8.73,5.54Z"/>
    <path class="cls-2" d="M380.34,84.3s19.81,32.17,27.05,51.77c-25.99,4.47-45.59,1.07-45.59,1.07,0,0-13.85,24.92-33.66,32.81-.43-20.66-3.41-26.84-11.5-38.56-8.1-11.72,4.9-45.16,4.9-45.16,0,0,43.03,1.7,58.8-1.92Z"/>
    <path class="cls-2" d="M238.88,99.21s-19.6,11.08-20.88,11.08-10.23,.85-19.6-1.7c-9.37-2.56-23.01-10.23-18.75-.85,4.26,9.37,42.18,14.49,42.18,14.49l19.17-15.76-2.13-7.24Z"/>
    <path class="cls-2" d="M224.84,119.76c-10.4-2.24-28.09-6.28-30.84-8.39-1.84-1.42-1.23-2.97-.06-4.21-8.62-3.05-17.89-7.37-14.28,.58,4.26,9.37,42.18,14.49,42.18,14.49l2.99-2.46Z"/>
    <path class="cls-2" d="M303.22,84.72s-1.28-19.6-3.83-24.29c-2.56-4.69-31.95,13.21-43.88,14.49-11.93,1.28-24.71,4.26-24.71,4.26,0,0,8.1,34.51,7.24,39.62,0,0,37.92-19.17,43.88-25.56-4.69,11.08-5.54,27.27-5.54,27.27l26.84-35.79Z"/>
    <path class="cls-2" d="M325.8,148.63s.21-53.68-.85-67.96c-1.07-14.27-3.62-35.79-22.37-6.39-18.75,29.4-49.85,47.08-49.85,47.08,0,0,9.16,7.24,12.36,10.01-.21,8.52,10.01,28.97,26.42,39.2,16.4,10.23,36.64-.64,36.64-.64,0,0-.21-13.85-2.34-21.3Z"/>
    <path class="cls-2" d="M316.43,96.65c-3.62,9.8-21.3,42.18-29.4,56.24-8.52-10.23-21.94-21.52-21.94-21.52l4.05-12.57,47.29-22.16Z"/>
    <g>
      <path class="cls-2" d="M265.09,131.38s13.42,11.29,21.94,21.52c8.1-14.06,25.78-46.44,29.4-56.24"/>
      <path class="cls-9" d="M265.09,131.38c8.07,6.38,15.75,13.25,22.52,21.03,0,0-1.24,.11-1.24,.11l7.69-13.87c7.28-13.53,15.88-28.15,22.37-41.99-.83,2.52-1.88,4.96-2.93,7.39-5.38,12.08-11.6,23.83-17.95,35.42-2.75,4.94-5.52,9.88-8.41,14.74-6.59-8.08-14.44-15.69-22.05-22.83h0Z"/>
    </g>
    <path class="cls-2" d="M271.69,131.17c-1.28,0-13.63,23.86-13.63,23.86,0,0-14.06,8.1-28.97,11.08-14.91,2.98,.85,11.5,10.23,11.08,9.37-.43,28.55-13.63,28.55-13.63l9.37-28.12-5.54-4.26Z"/>
    <path class="cls-2" d="M388.01,137.77s-1.49,21.52-2.77,26.63c-21.09-6.82-69.24-36.85-69.24-36.85,0,0-12.78,2.56-19.39,2.56s-7.46-3.62-2.13-8.95,12.99-10.65,17.47-9.16c4.47,1.49,9.37,11.5,9.37,11.5l49.42,22.16-2.34-7.67,19.6-.21Z"/>
    <g>
      <g>
        <line class="cls-2" x1="310.57" y1="123.47" x2="294.53" y2="129.53"/>
        <path class="cls-7" d="M310.57,123.47c-5.13,2.6-10.48,4.63-16.05,6.06,5.12-2.6,10.48-4.62,16.05-6.06h0Z"/>
      </g>
      <g>
        <line class="cls-2" x1="309.97" y1="119.23" x2="291.5" y2="127.41"/>
        <path class="cls-7" d="M309.97,119.23c-5.9,3.29-12.06,6.02-18.47,8.18,5.9-3.3,12.06-6.02,18.47-8.18h0Z"/>
      </g>
      <g>
        <line class="cls-2" x1="307.55" y1="115.3" x2="294.49" y2="121.15"/>
        <path class="cls-7" d="M307.55,115.3c-4.1,2.52-8.45,4.48-13.06,5.85,4.09-2.52,8.46-4.47,13.06-5.85h0Z"/>
      </g>
      <g>
        <path class="cls-2" d="M233.66,51.71s-10.29,5.45-15.75,9.69"/>
        <path class="cls-7" d="M233.66,51.71c-4.42,3.07-11.09,6.88-15.75,9.69,4.56-4.21,10.05-7.29,15.75-9.69h0Z"/>
      </g>
      <g>
        <path class="cls-2" d="M230.94,48.38s-12.72,8.78-15.44,10.9"/>
        <path class="cls-7" d="M230.94,48.38c-4.8,4.15-9.92,7.77-15.44,10.9,4.77-4.13,9.95-7.79,15.44-10.9h0Z"/>
      </g>
    </g>
    <path class="cls-2" d="M231.56,165.56c-.82,.19-1.64,.38-2.47,.54-14.91,2.98,.85,11.5,10.23,11.08,9.37-.43,28.55-13.63,28.55-13.63l1.13-3.38c-6.19,3.36-16.77,8.71-23.51,9.94-7.54,1.37-14.04-.71-13.92-4.55Z"/>
    <g>
      <path class="cls-2" d="M361.8,137.13c.25-1.54,2.97-20.02,4.18-29.1"/>
      <path class="cls-10" d="M361.8,137.13c.78-9.78,2.17-19.5,4.18-29.1-.78,9.77-2.18,19.5-4.18,29.1h0Z"/>
    </g>
    <path class="cls-2" d="M337.3,97.65s-10.79-15.05-9.94-32.95c.85-17.89,7.1-30.68-7.39-42.89,20.45-17.61,41.19-24.71,50.84-20.74s20.74,40.33,12.21,83.22c-15.62,11.93-32.95,13.35-32.95,13.35,0,0,9.94-31.24,9.37-47.72-.57-16.47-13.63-7.95-13.63-7.95l-10.23,13.63s-4.54,25.56,1.7,42.04Z"/>
    <path class="cls-2" d="M335.03,26.92s3.98,9.09,1.99,14.49c-1.99,5.4-9.66,14.2,0,26.42,12.78-.85,30.68-7.39,30.11-24.71,5.68,2.56,10.51-1.7,9.66-7.1-.85-5.4-3.69-11.08-9.94-4.54-6.53-.85-12.21-9.94-12.5-15.05-9.09,5.4-19.31,10.51-19.31,10.51Z"/>
    <g>
      <path class="cls-2" d="M343.58,38.69s1.21,7.27-.3,10.6c-4.54-2.42-7.27,0-.61,4.54"/>
      <path class="cls-7" d="M343.58,38.69c.81,3.64,1.46,7.67-.08,11.22-1.23-.61-2.78-1.47-4.13-1.02-.97,.7,.59,2.32,1.2,3.01,.64,.7,1.37,1.31,2.1,1.93-.85-.45-1.65-.99-2.41-1.6-1.02-.8-3-2.9-1.28-4.05,1.53-.7,3.16,.05,4.5,.71,0,0-.62,.21-.62,.21,1.21-3.28,.8-6.95,.71-10.41h0Z"/>
    </g>
    <g>
      <path class="cls-2" d="M359.93,59.89s-3.63,3.33-9.08,4.84"/>
      <path class="cls-7" d="M359.93,59.89c-2.2,2.72-5.6,4.51-9.08,4.84,3.11-1.55,6.06-3.09,9.08-4.84h0Z"/>
    </g>
    <g>
      <path class="cls-2" d="M374.16,35.06s-4.84-4.84-7.27,2.12c2.42,1.51,0,3.63,0,3.63"/>
      <path class="cls-7" d="M374.16,35.06c-3.32-2.26-5.49-1.41-6.89,2.25,0,0-.16-.47-.16-.47,.67,.44,1.3,1.28,1.11,2.14-.17,.83-.72,1.42-1.33,1.84,1.08-1.45,1.2-2.58-.48-3.48,.07-.18,.47-1.26,.55-1.46,1.46-3.47,4.97-3.68,7.2-.82h0Z"/>
    </g>
    <path class="cls-2" d="M350.85,41.42c0,1.67-.61,3.03-1.36,3.03s-1.36-1.36-1.36-3.03,.61-3.03,1.36-3.03,1.36,1.36,1.36,3.03Z"/>
    <path class="cls-2" d="M341.91,40.81c0,1.67-.61,3.03-1.36,3.03s-1.36-1.36-1.36-3.03,.61-3.03,1.36-3.03,1.36,1.36,1.36,3.03Z"/>
    <path class="cls-2" d="M346.61,29.91s7.27-1.51,9.99,4.84"/>
    <path class="cls-2" d="M341.76,30.52s-3.03-.91-4.84,2.12"/>
    <path class="cls-2" d="M341.16,56.25s9.69-3.94,14.84-2.73c-2.42,6.96-7.27,13.93-14.84,2.73Z"/>
    <path class="cls-2" d="M346.71,54.42l.25,3.12,7.58-.55c.55-1.1,1.04-2.28,1.45-3.46-2.55-.6-6.23,.07-9.28,.89Z"/>
  </g>
</svg>