<?xml version="1.0" encoding="UTF-8"?>
<svg id="Livello_1" data-name="Livello 1" xmlns="http://www.w3.org/2000/svg" viewBox="0 0 119.42 147.95">
  <defs>
    <style>
      .cls-1 {
        fill: #ffc857;
      }

      .cls-2 {
        fill: #0b1a3f;
      }
    </style>
  </defs>
  <path class="cls-2" d="M84.27,55.33c-1.11,0-2.21-.35-3.15-1.03-1.66-1.21-2.48-3.22-2.13-5.25l1.35-7.89-5.74-5.59c-1.47-1.44-1.99-3.55-1.36-5.5,.64-1.96,2.29-3.35,4.33-3.65l7.93-1.15,3.55-7.18c.91-1.84,2.75-2.99,4.81-2.99s3.9,1.15,4.81,2.99l3.54,7.18,7.93,1.15c2.04,.3,3.7,1.69,4.33,3.65,.64,1.96,.12,4.06-1.36,5.5l-5.73,5.59,1.35,7.9c.35,2.03-.47,4.04-2.14,5.25-1.66,1.21-3.83,1.37-5.65,.41l-7.09-3.73-7.09,3.73c-.79,.42-1.65,.62-2.5,.62Zm9.59-10.44c.86,0,1.71,.21,2.5,.62l6.24,3.28-1.19-6.95c-.3-1.74,.28-3.52,1.54-4.75l5.05-4.92-6.98-1.01c-1.75-.25-3.26-1.35-4.04-2.94l-3.12-6.32-3.12,6.32c-.78,1.58-2.29,2.68-4.04,2.93l-6.98,1.01,5.05,4.92c1.26,1.23,1.84,3.01,1.54,4.75l-1.19,6.95,6.24-3.28c.78-.41,1.64-.62,2.5-.62Zm-.58-24.16s0,0,0,0h0Z"/>
  <path class="cls-2" d="M83.78,105.7c-1,0-1.99-.31-2.83-.93-1.5-1.09-2.24-2.9-1.92-4.73l1.22-7.11-5.17-5.04c-1.33-1.29-1.8-3.19-1.22-4.95,.57-1.76,2.07-3.02,3.9-3.29l7.14-1.04,3.19-6.47c.82-1.66,2.48-2.7,4.33-2.7s3.51,1.03,4.33,2.69h0s3.19,6.47,3.19,6.47l7.14,1.04c1.83,.27,3.33,1.53,3.9,3.29,.57,1.76,.1,3.66-1.22,4.95l-5.17,5.04,1.22,7.11c.31,1.83-.42,3.64-1.92,4.73-1.5,1.09-3.45,1.23-5.09,.37l-6.39-3.36-6.39,3.36c-.71,.37-1.49,.56-2.25,.56Zm-4.09-20.86l4.55,4.43c1.14,1.11,1.66,2.71,1.39,4.28l-1.07,6.26,5.62-2.95c1.41-.74,3.09-.74,4.5,0l5.62,2.95-1.07-6.26c-.27-1.57,.25-3.17,1.39-4.28l4.55-4.43-6.28-.91c-1.57-.23-2.93-1.21-3.64-2.64l-2.81-5.7-2.81,5.69c-.71,1.43-2.07,2.42-3.64,2.64l-6.28,.91Zm20.39-5.95h0Zm-8.17-4.35h0s0,0,0,0Z"/>
  <path class="cls-1" d="M119.39,132.73c-4.06,3.1-8.48,5.8-13.27,8.06-37.07,17.56-81.39,1.72-98.96-35.36C-10.41,68.33,5.45,24.01,42.52,6.46c7.01-3.32,14.27-5.45,21.57-6.46-27.38,20.83-37.42,58.6-22.11,90.93,14.25,30.1,46.11,46.19,77.43,41.8h-.03Z"/>
</svg>