<?xml version="1.0" encoding="UTF-8"?>
<svg id="Livello_2" data-name="Livello 2" xmlns="http://www.w3.org/2000/svg" viewBox="0 0 85.46 136.04">
  <defs>
    <style>
      .cls-1 {
        fill: #f5f5f7;
      }

      .cls-2 {
        fill: #e8ba25;
      }
    </style>
  </defs>
  <path class="cls-1" d="M85.1,133.86c-4.52,1.18-9.21,1.89-14.05,2.1C33.54,137.64,1.75,108.57,.07,71.05-1.61,33.52,27.47,1.74,64.98,.07c7.09-.32,13.97,.46,20.49,2.19-30.48,7.87-52.34,36.19-50.88,68.89,1.36,30.45,22.54,55.32,50.52,62.71Z"/>
  <g>
    <path class="cls-1" d="M47.7,93.46c-13.53,0-26.87-6.24-35.42-18l7.83-5.81,.06,.08c11.01,15.15,32.3,18.51,47.45,7.5l5.73,7.88c-7.74,5.63-16.73,8.34-25.65,8.34Z"/>
    <path class="cls-1" d="M73.17,85.24l-2.66-3.99-3.22-3.76,.32-.25c8.49-6.17,10.37-18.1,4.2-26.58l7.88-5.73c9.29,12.78,6.5,30.71-6.19,40.08l-.33,.24Z"/>
    <path class="cls-1" d="M71.87,50.73l-.04-.05c-1.6-2.2-3.93-3.63-6.59-4.05-2.66-.42-5.32,.22-7.49,1.8l-5.73-7.88c4.28-3.11,9.52-4.37,14.74-3.54,5.23,.83,9.82,3.64,12.93,7.92l-7.83,5.8Z"/>
    <path class="cls-1" d="M48.97,59.88c-2.17-2.99-3.05-6.65-2.48-10.3,.58-3.63,2.52-6.83,5.49-9h.01s.02-.02,.03-.03l.93,1.28,4.98,6.47-.18,.14c-.88,.64-1.46,1.59-1.63,2.67-.17,1.08,.09,2.16,.73,3.04l-7.88,5.73Z"/>
    <path class="cls-1" d="M57.76,64.35c-3.36,0-6.67-1.55-8.79-4.46l-.12-.17,3.97-2.65,3.97-2.98h.01c.4,.56,1.09,.67,1.58,.31l5.73,7.88c-1.92,1.4-4.15,2.07-6.36,2.07Z"/>
    <path class="cls-1" d="M64.12,62.27l-3.51-4.83h0l-5.73-7.88c1.7-1.23,3.77-1.73,5.85-1.41,2.07,.33,3.9,1.44,5.13,3.14,1.23,1.7,1.73,3.77,1.41,5.85s-1.44,3.9-3.14,5.13Z"/>
  </g>
  <circle class="cls-1" cx="57.59" cy="53.59" r="4.36"/>
  <circle class="cls-2" cx="58.49" cy="56.13" r="5.64"/>
</svg>