<?xml version="1.0" encoding="UTF-8"?>
<svg id="Livello_1" data-name="Livello 1" xmlns="http://www.w3.org/2000/svg" viewBox="0 0 206.77 95.08">
  <defs>
    <style>
      .cls-1 {
        fill: #fff;
      }

      .cls-2 {
        fill: #b0d7ff;
      }
    </style>
  </defs>
  <path class="cls-1" d="M103.94,95.08c-1.4,0-2.81-.03-4.21-.08-13.48-.48-27.12-3.29-40.53-8.37-10.71-4.05-21.29-9.54-31.46-16.31C10.41,58.78,.42,47.65,0,47.18l3.2-2.85c.1,.11,10.12,11.26,27.02,22.5,9.9,6.58,20.19,11.91,30.58,15.83,12.96,4.89,26.11,7.6,39.11,8.06,35.84,1.27,70.73-14.38,103.71-46.49l2.99,3.07c-32.57,31.72-67.1,47.78-102.68,47.78Z"/>
  <path class="cls-1" d="M3.14,50.85L.14,47.78C34,14.81,69.97-1.24,107.04,.07c13.48,.48,27.12,3.29,40.53,8.37,10.71,4.05,21.29,9.54,31.46,16.31,17.32,11.54,27.31,22.67,27.73,23.13l-3.2,2.85c-.1-.11-10.12-11.26-27.02-22.5-9.9-6.58-20.19-11.91-30.58-15.83-12.96-4.89-26.11-7.6-39.11-8.06C71,3.1,36.11,18.74,3.14,50.85Z"/>
  <path class="cls-1" d="M103.96,95.01c-26.06,0-47.27-21.2-47.27-47.27S77.9,.47,103.96,.47s47.27,21.2,47.27,47.27-21.2,47.27-47.27,47.27Zm0-90.25c-23.7,0-42.98,19.28-42.98,42.98s19.28,42.98,42.98,42.98,42.98-19.28,42.98-42.98S127.66,4.76,103.96,4.76Z"/>
  <g>
    <circle class="cls-2" cx="104.43" cy="48.85" r="26.87"/>
    <path class="cls-1" d="M104.43,77.87c-16,0-29.02-13.02-29.02-29.02s13.02-29.02,29.02-29.02,29.02,13.02,29.02,29.02-13.02,29.02-29.02,29.02Zm0-53.75c-13.64,0-24.73,11.09-24.73,24.73s11.09,24.73,24.73,24.73,24.73-11.09,24.73-24.73-11.09-24.73-24.73-24.73Z"/>
  </g>
</svg>