<?xml version="1.0" encoding="UTF-8"?>
<svg id="Livello_1" data-name="Livello 1" xmlns="http://www.w3.org/2000/svg" viewBox="0 0 185.07 333.84">
  <defs>
    <style>
      .cls-1, .cls-2 {
        fill: #ffc857;
      }

      .cls-2 {
        isolation: isolate;
        opacity: .5;
      }
    </style>
  </defs>
  <g id="Layer_1" data-name="Layer 1">
    <g>
      <g>
        <path class="cls-1" d="M56.84,178.6l.31,90.14s1.21,5.06-7.16,5.82c0,0-5.04,.17-6.46-4.81-1.41-4.98,4.35-89.83,4.35-89.83l8.98-1.32h0Z"/>
        <path class="cls-2" d="M57.14,268.73l-.31-90.14-8.98,1.32s-2.16,31.89-3.51,57.71c2.45,.79,4.98,1.67,5.89,4.31,.07,.2-.11,.46-.33,.44-2.02-.22-4.02,.13-5.85,.93-.44,8.87-.73,16.58-.77,21.41,2.58-1.5,4.81-3.55,6.98-5.6,.2-.19,.49-.1,.58,.16,.47,1.29,.53,2.7,.51,4.05-.02,1.28-.13,2.57-.17,3.85-.05,1.39,.03,2.78,.03,4.16,0,1.02,.02,2.05,.04,3.08,6.95-1.13,5.87-5.66,5.87-5.66h0Z"/>
        <path class="cls-1" d="M49.97,275.21c-.65,0-5.64-.17-7.08-5.28-1.43-5.04,4.08-86.59,4.32-90.06,.02-.31,.25-.56,.56-.6l8.98-1.32c.18-.03,.38,.03,.52,.15s.23,.31,.23,.5l.31,90.07c.07,.38,.27,1.96-.84,3.51-1.22,1.7-3.55,2.72-6.93,3.03h-.07Zm-1.49-94.71c-1.99,29.45-5.42,85.25-4.33,89.08,1.26,4.44,5.76,4.35,5.8,4.33,2.9-.26,4.97-1.13,5.94-2.49,.89-1.24,.61-2.51,.61-2.53,0-.05-.02-.1-.02-.15l-.31-89.38-7.71,1.13h0Z"/>
      </g>
      <g>
        <path class="cls-1" d="M146.34,248.62l-89.13-7.3s-2.66,1.31-2.66,6.7c0,6.23,2.66,5.57,4.35,5.82s86.17,8.08,86.17,8.08l1.26-13.32h0Z"/>
        <path class="cls-1" d="M146.34,248.62l-89.13-7.3s-2.66,1.31-2.66,6.7c0,6.23,2.66,5.57,4.35,5.82s86.17,8.08,86.17,8.08l1.26-13.32h0Z"/>
        <path class="cls-2" d="M144,248.43c-.44,.57-1.06,1.02-1.64,1.35-.88,.51-1.95,.64-2.94,.69-1.24,.07-2.48,0-3.72-.09-2.74-.17-5.47-.11-8.22-.17-3.6-.07-7.18-.21-10.77-.36-3.6-.15-7.21-.16-10.81-.24-3.6-.09-7.19-.19-10.79-.36-3.58-.17-7.16-.38-10.73-.68-3.33-.28-6.65-.72-9.97-1.05-2.84-.28-5.7-.46-8.53-.86-2.72-.39-5.47-.97-7.95-2.19-.14-.07-.18-.24-.16-.39,.21-1.12,1.07-1.93,2.06-2.54l-2.62-.22s-2.66,1.31-2.66,6.7c0,6.23,2.66,5.57,4.35,5.82,1.7,.26,86.17,8.08,86.17,8.08l1.26-13.32-2.34-.19h0Z"/>
        <path class="cls-2" d="M127.45,254.44c-7.99-.04-15.99-.43-23.97-.93-7.86-.5-15.72-1.04-23.56-1.74-3.86-.34-7.71-.73-11.55-1.27-1.94-.27-3.87-.57-5.8-.92-1.46-.26-2.92-.54-4.29-1.13-1.67-.72-3.11-1.98-3.28-3.85-.26,.9-.45,2.02-.45,3.42,0,6.23,2.66,5.57,4.35,5.82,1.7,.26,86.17,8.08,86.17,8.08l.77-8.1c-6.12,.46-12.26,.63-18.4,.59v.02Z"/>
        <path class="cls-1" d="M145.07,262.6h-.06c-3.45-.32-84.51-7.83-86.2-8.09-.19-.03-.4-.04-.62-.06-2.17-.17-4.29-.81-4.29-6.41s2.9-7.23,3.03-7.29c.1-.05,.23-.07,.34-.06l89.13,7.3c.17,.02,.34,.1,.45,.24,.11,.13,.17,.31,.15,.48l-1.26,13.32c-.03,.34-.31,.59-.65,.59v-.02Zm-87.71-20.6c-.49,.34-2.16,1.81-2.16,6.03,0,4.85,1.57,4.98,3.09,5.11,.24,.02,.49,.04,.72,.07,1.58,.24,77.61,7.29,85.48,8.02l1.13-12.01-88.26-7.22h0Z"/>
      </g>
      <g>
        <path class="cls-1" d="M46.98,243.84s5.45,1.36,4.99,6.66c-.45,5.3-35.54,40.85-35.54,40.85l-.69-16.55,22.89-24.77s5.86-7.42,8.35-6.2Z"/>
        <path class="cls-1" d="M20.37,272.1c5.59-5.86,11.3-11.61,16.83-17.53,3.34-3.58,6.71-7.29,10.47-10.49-.42-.17-.7-.24-.7-.24-2.5-1.22-8.35,6.2-8.35,6.2l-22.89,24.77,.09,2.13c1.5-1.62,3.02-3.24,4.55-4.83h0Z"/>
        <path class="cls-2" d="M46.98,243.84c-1.06-.51-2.71,.51-4.26,1.86,.66-.17,1.33-.28,2.01-.31,1.51-.07,3.06,.53,3.25,2.23,.07,.66-.24,1.32-.59,1.87-.47,.75-1.07,1.42-1.69,2.06-1.28,1.32-2.71,2.48-4.07,3.71-.78,.71-1.46,1.5-2.17,2.27-1.13,1.2-2.25,2.4-3.38,3.6-2.3,2.43-4.61,4.85-6.91,7.28-4.3,4.54-8.6,9.09-12.86,13.67-.08,.09-.17,.17-.24,.27l.38,9.02s35.1-35.55,35.54-40.85-4.99-6.66-4.99-6.66h0Z"/>
        <path class="cls-1" d="M16.42,292.01c-.08,0-.16-.02-.24-.04-.24-.1-.41-.32-.42-.58l-.69-16.55c0-.17,.05-.34,.17-.47l22.89-24.77c.99-1.26,6.21-7.63,9.07-6.37,.66,.19,5.88,1.89,5.42,7.33-.45,5.38-32.12,37.6-35.73,41.25-.12,.12-.3,.19-.46,.19h-.02Zm-.03-16.95l.62,14.77c14.02-14.25,34-35.75,34.31-39.38,.39-4.7-4.3-5.92-4.5-5.97-.04,0-.09-.03-.13-.04-1.39-.67-5.32,3.19-7.56,6.01l-22.74,24.61h0Z"/>
      </g>
      <g>
        <path class="cls-1" d="M21.52,219.9l1.42,93.94s1.33,5.26-7.4,6.15c0,0-5.26,.24-6.79-4.93-1.54-5.18,3.43-93.67,3.43-93.67l9.35-1.48h0Z"/>
        <path class="cls-1" d="M11.15,311.9c-.05-3.79-.15-7.57-.08-11.36,.07-4.15,.31-8.27,.45-12.41,.14-4.16,.26-8.33,.42-12.51,.16-4.19,.41-8.38,.62-12.57,.21-4.15,.34-8.31,.49-12.46,.15-4.19,.3-8.39,.63-12.57,.23-2.83,.64-5.66,.71-8.5,.05-2.08,.05-4.15,.04-6.23,0-.75,0-1.5-.03-2.26l-2.23,.36s-4.96,88.5-3.43,93.67c.61,2.06,1.81,3.25,3.03,3.95-.53-2.32-.59-4.76-.63-7.12h0Z"/>
        <path class="cls-2" d="M22.94,313.83l-1.42-93.94-9.35,1.48s-.25,4.49-.63,11.51c1.2,.85,2.56,1.55,3.66,2.48,.84,.71,1.6,1.56,2,2.6,.42,1.09,.49,2.3,.5,3.46,0,1.27-.1,2.55-.17,3.82-.09,1.43-.09,2.86-.11,4.3-.13,6.89-.21,13.79,.05,20.68,0,.15-.11,.3-.25,.33-1.69,.45-2.79,2.13-3.56,3.6-.79,1.52-1.38,3.19-1.68,4.88-.33,1.82-.38,3.71,.23,5.47,.54,1.55,1.54,2.9,2.55,4.18,.54,.69,1.16,1.36,1.61,2.12,.41,.7,.69,1.47,.87,2.25,.42,1.77,.43,3.62,.37,5.44-.05,1.77-.2,3.55-.13,5.33,.1,2.59,.22,5.18,.36,7.77,.14,2.64,.31,5.27,.48,7.91,5.65-1.6,4.63-5.65,4.63-5.65v-.03Z"/>
        <path class="cls-1" d="M15.49,320.64c-.84,0-5.84-.23-7.37-5.39-1.54-5.23,3.2-90.28,3.4-93.9,.02-.31,.24-.56,.55-.61l9.35-1.48c.18-.03,.38,.03,.52,.15s.23,.31,.24,.49l1.41,93.87c.08,.39,.31,2.03-.83,3.65-1.25,1.79-3.66,2.87-7.16,3.23h-.11Zm-2.69-98.7c-1.72,30.72-4.61,88.94-3.42,92.93,1.36,4.61,5.93,4.46,6.13,4.46,3.01-.31,5.16-1.23,6.17-2.65,.93-1.32,.64-2.64,.62-2.69,0-.04-.02-.1-.02-.15l-1.41-93.19-8.08,1.28h0Z"/>
      </g>
      <g>
        <path class="cls-1" d="M150.23,188.91l4.66,90.02s1.46,5-6.88,6.16c0,0-5.04,.42-6.68-4.49-1.65-4.91,0-89.94,0-89.94l8.91-1.75h0Z"/>
        <path class="cls-1" d="M150.23,188.91l4.66,90.02s1.46,5-6.88,6.16c0,0-5.04,.42-6.68-4.49-1.65-4.91,0-89.94,0-89.94l8.91-1.75h0Z"/>
        <path class="cls-1" d="M154.89,278.93l-4.66-90.02-.59,.11c.51,6.1,.37,12.24,.24,18.34-.07,3.48-.13,6.97-.07,10.45,.06,3.65,.16,7.3,.19,10.95,.08,7.28,.1,14.56,.3,21.83,.18,7.02,.38,14.03,.63,21.04,.15,4.15,.37,8.32,.75,12.46,4.17-1.86,3.2-5.18,3.2-5.18h0Z"/>
        <path class="cls-2" d="M148.6,277.73c-.05-2.42,.04-4.84,.26-7.25,.22-2.33,.61-4.63,.97-6.93,.44-2.8,.85-5.71,.27-8.53-.27-1.34-.78-2.55-1.58-3.67-.57-.79-1.18-1.67-2.01-2.16-.55-.32-1.38-.68-1.37-1.42,0-.65,.34-1.32,.61-1.9,.69-1.48,1.64-2.82,2.36-4.28,.58-1.18,1.07-2.41,1.63-3.6,.58-1.23,1.17-2.46,1.74-3.7,.35-.76,.67-1.54,.99-2.31l-2.23-43.08-8.91,1.75s-1.65,85.03,0,89.94,6.68,4.49,6.68,4.49c.43-.06,.82-.13,1.2-.21-.38-2.36-.56-4.77-.6-7.15v.02Z"/>
        <path class="cls-1" d="M147.78,285.74c-1.21,0-5.52-.34-7.08-4.94-1.67-4.97-.1-86.68-.03-90.16,0-.31,.23-.57,.53-.63l8.91-1.75c.18-.03,.38,0,.53,.13,.15,.11,.24,.29,.25,.48l4.65,89.96c.09,.38,.37,1.95-.66,3.54-1.14,1.76-3.42,2.9-6.77,3.36,0,0-.13,0-.32,0h0Zm-5.81-94.56c-.57,29.51-1.29,85.42-.03,89.19,1.47,4.37,5.96,4.05,6.01,4.05,2.86-.4,4.89-1.35,5.8-2.75,.85-1.28,.51-2.53,.5-2.58,0-.04-.02-.1-.03-.15l-4.62-89.27-7.64,1.5h0Z"/>
      </g>
      <g>
        <path class="cls-1" d="M141.37,253.02s5.61,.04,6.42,5.31c.81,5.25-24.96,48.06-24.96,48.06l-4.56-15.93,16.69-30.95s3.7-7.09,6.41-6.49Z"/>
        <path class="cls-1" d="M141.37,253.02s5.61,.04,6.42,5.31c.81,5.25-24.96,48.06-24.96,48.06l-4.56-15.93,16.69-30.95s3.7-7.09,6.41-6.49Z"/>
        <path class="cls-1" d="M131.23,271.73c1.91-3.65,3.64-7.38,5.72-10.94,1.58-2.71,3.37-5.37,5.56-7.63-.67-.13-1.14-.14-1.14-.14-2.72-.6-6.41,6.49-6.41,6.49l-16.69,30.95,1.14,4c3.7-7.7,7.86-15.17,11.82-22.73h0Z"/>
        <path class="cls-2" d="M147.79,258.32c-.81-5.25-6.42-5.31-6.42-5.31-1.05-.23-2.23,.68-3.31,1.89,1.36-.58,3.02-.91,4.3-.04,.79,.53,1.38,1.35,1.47,2.31,.1,.97-.29,1.92-.74,2.75-.51,.93-1.15,1.75-1.75,2.62-.77,1.1-1.54,2.21-2.3,3.32-3.57,5.16-7.01,10.42-10.34,15.73-1.68,2.66-3.32,5.34-4.96,8.03-1.29,2.12-2.61,4.22-3.9,6.33l2.98,10.44s25.77-42.8,24.96-48.06h0Z"/>
        <path class="cls-1" d="M122.83,307.03h-.09c-.26-.03-.47-.22-.54-.47l-4.56-15.93c-.04-.17-.03-.34,.05-.49l16.68-30.95c.65-1.24,4.02-7.4,7.07-6.83,.7,.03,6.15,.45,6.99,5.86,.82,5.34-22.39,44.09-25.05,48.5-.12,.2-.33,.31-.56,.31h0Zm-3.86-16.5l4.08,14.22c10.27-17.15,24.65-42.74,24.09-46.33-.72-4.63-5.58-4.75-5.78-4.75-.04,0-.09,0-.13-.02-1.53-.34-4.26,3.39-5.7,6.15l-16.55,30.72h0Z"/>
      </g>
      <g>
        <path class="cls-1" d="M116.83,287.77l-96.01-13.81s-4.8,0-6.75,5.04,3.75,8.51,5.45,8.77,98.74,12.07,98.74,12.07l-1.44-12.07h0Z"/>
        <path class="cls-1" d="M116.83,287.77l-96.01-13.81s-4.8,0-6.75,5.04,3.75,8.51,5.45,8.77,98.74,12.07,98.74,12.07l-1.44-12.07h0Z"/>
        <path class="cls-1" d="M20.31,276.05c1.62-.04,3.26,.17,4.86,.38,2.04,.27,4.08,.62,6.09,1,4.17,.8,8.32,1.75,12.51,2.4,4.37,.69,8.81,.98,13.19,1.46,8.81,.97,17.59,2.09,26.37,3.26,8.76,1.16,17.52,2.34,26.3,3.42,2.43,.3,4.87,.57,7.3,.83l-.12-1.02-96.01-13.81s-3.45,.02-5.68,3.1c1.63-.68,3.46-.97,5.18-1.02Z"/>
        <path class="cls-2" d="M116.83,287.77l-5.71-.82c.04,.68-.1,1.35-.57,1.95-.96,1.25-2.69,1.77-4.17,2.05-3.62,.68-7.41,.28-11.05-.07-1.9-.18-3.81-.31-5.72-.45-2.71-.19-5.4-.45-8.1-.76-5.32-.61-10.63-1.41-15.91-2.33-5.31-.93-10.6-1.97-15.89-3.06-5.07-1.05-10.13-2.21-15.22-3.19-2.02-.39-4.03-.88-6.01-1.47-1.2-.36-2.39-.75-3.54-1.23-.92-.38-1.84-.81-2.63-1.43-.52-.42-1.06-1.02-.93-1.75,.08-.44,.36-.79,.71-1.06l-1.28-.18s-4.8,0-6.75,5.04c-1.95,5.04,3.75,8.51,5.45,8.77s98.74,12.07,98.74,12.07l-1.44-12.07h.02Z"/>
        <path class="cls-1" d="M118.27,300.5h-.08c-3.96-.48-97.07-11.82-98.76-12.07-1.38-.21-4.15-1.83-5.53-4.22-.99-1.72-1.14-3.6-.44-5.43,2.09-5.39,7.3-5.46,7.35-5.46,0-.02,.06,0,.1,0l96.01,13.81c.3,.04,.52,.28,.56,.57l1.44,12.07c.03,.2-.04,.4-.18,.54-.12,.12-.29,.19-.46,.19h0Zm-97.49-25.87c-.47,.02-4.41,.27-6.09,4.63-.57,1.47-.45,2.92,.35,4.3,1.29,2.23,3.8,3.46,4.59,3.59,1.59,.24,88.43,10.81,97.9,11.96l-1.28-10.74-95.46-13.73h0Z"/>
      </g>
      <g>
        <path class="cls-1" d="M125.27,237l4.66,90.02s1.46,5-6.88,6.16c0,0-5.04,.42-6.68-4.49s0-89.94,0-89.94l8.91-1.75h0Z"/>
        <path class="cls-1" d="M119.35,325.24c-.15-3.1-.33-6.2-.51-9.29-.37-6.56-.65-13.13-.88-19.69-.23-6.57-.4-13.15-.52-19.73-.12-6.57-.2-13.15-.25-19.72-.04-6.07-.06-12.13-.06-18.2l-.76,.15s-1.65,85.03,0,89.94c.76,2.26,2.23,3.39,3.6,3.94-.34-2.45-.5-4.93-.62-7.4h0Z"/>
        <path class="cls-2" d="M129.93,327.02l-4.66-90.02-8.91,1.75s-.05,2.5-.12,6.65c.05,.03,.1,.05,.15,.08,1.89,1.05,3.97,2.18,5.14,4.08,.65,1.06,.79,2.22,.93,3.42,.18,1.54,.31,3.09,.38,4.64,.33,6.27,.1,12.54,.24,18.81,.15,6.52,.28,13.04,.48,19.56,.19,6.54,.45,13.07,.82,19.6,.33,5.67,.76,11.34,1.33,17,5.36-1.73,4.23-5.58,4.23-5.58h0Z"/>
        <path class="cls-1" d="M122.82,333.83c-1.21,0-5.52-.34-7.08-4.94-1.67-4.97-.1-86.68-.03-90.16,0-.31,.23-.57,.53-.63l8.91-1.75c.18-.03,.38,0,.53,.13,.15,.11,.24,.29,.25,.48l4.65,89.96c.09,.38,.37,1.95-.66,3.54-1.14,1.76-3.42,2.9-6.77,3.36,0,0-.13,0-.32,0h0Zm-5.81-94.56c-.57,29.51-1.29,85.42-.03,89.19,1.47,4.37,5.97,4.05,6.01,4.05,2.86-.4,4.89-1.35,5.8-2.75,.85-1.28,.51-2.53,.5-2.58,0-.04-.02-.1-.03-.15l-4.62-89.27-7.65,1.5h0Z"/>
      </g>
      <g>
        <path class="cls-1" d="M.67,225.88h0v-11.64l54.67-41.64,13.5,.25c.77-.1,1.54-.19,2.33-.23,2.36-.1,7.83,.12,14.87,.55l76.6,1.42,.12,13.06c0,.16,0,.32,0,.49v.79l-.05,.05c-.17,1.67-.74,3.6-1.85,5.8l-13.32,40.7s-2.34,10.8-21.75,9.63l-106.89-11.73S.5,231.4,.66,225.88h0Z"/>
        <path class="cls-1" d="M.67,225.88h0v-11.64l54.67-41.64,13.5,.25c.77-.1,1.54-.19,2.33-.23,2.36-.1,7.83,.12,14.87,.55l76.6,1.42,.12,13.06c0,.16,0,.32,0,.49v.79l-.05,.05c-.17,1.67-.74,3.6-1.85,5.8l-13.32,40.7s-2.34,10.8-21.75,9.63l-106.89-11.73S.5,231.4,.66,225.88h0Z"/>
        <path class="cls-1" d="M16.34,230.25c-1.69-.51-3.37-1.07-5.05-1.62-1.25-.41-2.49-.87-3.66-1.48-1.67-.87-3.16-2.07-4.1-3.71-.89-1.54-1.27-3.32-1.55-5.04-.26-1.52-.48-3.05-.76-4.56l-.55,.42v11.64h0c-.17,5.52,18.24,7.52,18.24,7.52l17.58,1.93c-6.79-1.4-13.53-3.06-20.16-5.08h0Z"/>
        <path class="cls-1" d="M162.77,188.14v-.49l-.12-13.06-76.6-1.42c-7.04-.42-12.51-.65-14.87-.55-.79,.03-1.57,.12-2.33,.23l-13.5-.25L.66,214.24v.86c.59,1.39,1.75,2.54,3,3.43,2.72,1.94,5.98,3.11,9.15,4.06,7.22,2.17,14.77,3.26,22.25,4.06,9.85,1.05,19.75,1.68,29.63,2.47,15.95,1.27,31.91,2.56,47.81,4.33,3.14,.35,6.31,.42,9.43,.92,2.57,.41,5.4,1.08,7.22,3.09,1.91,2.12,2.49,4.84,2.93,7.62,13.64-1.21,15.46-9.57,15.46-9.57l13.32-40.7c1.1-2.22,1.67-4.14,1.85-5.8l.06-.05v-.79h-.02Z"/>
        <path class="cls-1" d="M128.69,245.88c-.93,0-1.91-.03-2.93-.09l-106.92-11.73c-1.93-.21-18.75-2.22-18.82-8.05,0-.03,0-.07,0-.11v-11.64c0-.2,.1-.4,.26-.52l54.67-41.64c.11-.09,.25-.12,.41-.13l13.46,.25c.88-.12,1.63-.19,2.34-.23,2.2-.1,7.23,.09,14.93,.55l76.57,1.42c.36,0,.64,.3,.65,.65l.13,13.16v1.18c0,.12-.03,.24-.09,.34-.22,1.78-.85,3.72-1.87,5.78l-13.3,40.66c-.08,.38-2.41,10.17-19.48,10.18v-.02ZM1.32,225.77s0,.09,0,.13c-.1,3.58,10.78,6.1,17.65,6.85l106.9,11.73c18.52,1.11,20.94-8.7,21.04-9.12l13.33-40.76s.03-.06,.03-.09c1-2.02,1.61-3.89,1.78-5.59,0-.07,.03-.14,.06-.21v-1.04l-.12-12.42-75.96-1.41c-7.69-.46-12.67-.65-14.83-.55-.69,.03-1.41,.1-2.27,.22-.03,0-.07,0-.1,0l-13.27-.24L1.32,214.56v11.21Z"/>
      </g>
      <g>
        <path class="cls-1" d="M153.42,166.72s14.44,2.41,7.45,16.44l-13.32,40.7s-2.34,10.8-21.75,9.63l-106.89-11.73s-23.59-2.57-17.14-9.88c10.69-12.12,42.09-43.56,42.09-43.56,0,0,6.29-6.38,16.81-6.86,10.51-.47,92.75,5.24,92.75,5.24h0Z"/>
        <g>
          <path class="cls-1" d="M51.84,169.55c-6.08,5.99-12.38,11.75-18.45,17.73-5.1,5.03-10.03,10.24-14.49,15.83,3.18-3.02,6.25-6.13,9.29-9.29,7.01-7.27,13.76-14.83,21.15-21.7,3.86-3.59,7.91-7.03,11.75-10.67-.15,0-.3,0-.43,.02-.36,.02-.7,.05-1.05,.09-2.52,2.73-5.13,5.39-7.78,8h0Z"/>
          <path class="cls-1" d="M24.46,207.56c-4.09,4.23-7.91,8.73-11.73,13.2,.93,.19,1.81,.35,2.6,.48,4.71-5.57,9.38-11.25,13.06-17.55-1.34,1.26-2.66,2.54-3.94,3.87Z"/>
          <path class="cls-1" d="M43.69,197.23c4.75-5.86,9.58-11.64,14.51-17.35,4.92-5.69,9.93-11.3,15.05-16.81,.39-.42,.78-.83,1.17-1.25h-.14c-.89,.85-1.78,1.69-2.68,2.54-5.37,5.08-10.72,10.18-15.98,15.38-5.29,5.22-10.48,10.54-15.49,16.03-4.96,5.43-9.73,11.03-14.22,16.87-2.3,2.99-4.51,6.05-6.64,9.17l4.84,.53c1.86-2.47,3.72-4.94,5.59-7.39,4.57-5.96,9.22-11.87,13.95-17.71l.02-.02Z"/>
          <path class="cls-1" d="M86.97,162.48c-.99,1.02-1.97,2.05-2.94,3.09-4.42,4.75-8.65,9.7-12.91,14.59-4.4,5.05-8.93,10-13.33,15.05-4.64,5.33-9.16,10.78-13.33,16.49-2.84,3.9-5.43,8-8.2,11.96l1.61,.17c1.39-2.59,3.01-5.06,4.75-7.43,4.34-5.9,9.39-11.22,14.31-16.62,5.48-6,11.03-11.94,16.78-17.69,.31-.31,.8,.17,.49,.49-1.57,1.59-2.76,3.48-3.96,5.34-1.25,1.92-2.58,3.78-3.9,5.65-2.44,3.49-4.93,6.96-7.29,10.51-1.2,1.82-2.37,3.65-3.5,5.52-1.07,1.8-2.1,3.61-3.21,5.39-2.05,3.28-4.24,6.49-6.37,9.73l.67,.07c.25-.41,.5-.81,.75-1.22,1.98-3.18,4.2-6.2,6.34-9.27,2.37-3.39,4.76-6.79,7.15-10.18,4.82-6.82,9.63-13.63,14.57-20.34,4.67-6.34,9.37-12.68,14.24-18.87,.58-.74,1.19-1.47,1.79-2.19-1.54-.09-3.05-.17-4.52-.25h0Z"/>
          <path class="cls-1" d="M66.52,218.23c3.85-5.36,7.74-10.67,11.44-16.14,3.45-5.08,6.6-10.32,9.75-15.58,1.77-2.96,3.57-5.91,5.44-8.81-2.39,3.11-4.77,6.22-7.11,9.37-3.51,4.74-6.87,9.58-10.37,14.33-3.46,4.7-6.94,9.38-10.19,14.22-2.3,3.41-4.48,6.91-6.44,10.53l1.75,.19c1.88-2.73,3.8-5.43,5.72-8.12h0Z"/>
          <path class="cls-1" d="M101.89,184.79c-1.83,2.61-3.73,5.18-5.46,7.86-1.47,2.28-2.86,4.65-3.85,7.19,2.22-1.68,3.7-4.3,5.18-6.58,.93-1.44,2.02-2.78,3.07-4.15,1.07-1.41,2.16-2.83,3.22-4.24,2.11-2.81,4.15-5.66,6.23-8.5,2.86-3.91,5.62-7.91,8.25-11.98-.63-.04-1.27-.08-1.9-.12-1.34,1.54-2.63,3.12-3.85,4.76-3.84,5.11-7.22,10.54-10.89,15.76h0Z"/>
          <path class="cls-1" d="M93.57,218.57c1.54-2.96,3.19-5.86,4.86-8.76,1.42-2.48,2.87-4.98,4.13-7.57-3.61,6.04-7.35,12.01-10.92,18.07-1.72,2.93-3.4,5.88-5.01,8.88l1.6,.17c.22-.46,.44-.93,.66-1.39,1.51-3.16,3.05-6.3,4.67-9.41h0Z"/>
          <path class="cls-1" d="M115.46,188.63c-.83,1.93-1.54,3.91-2.11,5.93,.58-.79,1.15-1.61,1.67-2.44,2.23-3.65,3.75-7.64,5.18-11.66-.19,.24-.38,.48-.57,.72-1.71,2.28-3.05,4.83-4.17,7.45h0Z"/>
          <path class="cls-1" d="M122.9,188.89c-1.61,3.88-3.09,7.82-4.54,11.77,.79-1.49,1.61-2.97,2.44-4.42,3.49-6.05,7.34-11.89,10.85-17.93,2.36-4.08,4.56-8.28,6.35-12.65-.83-.05-1.68-.11-2.56-.17-1.41,1.95-2.74,3.96-3.98,6.02-3.33,5.54-6.09,11.41-8.56,17.38h0Z"/>
          <path class="cls-1" d="M139.69,184.23c-1.02,2.3-2,4.61-2.96,6.93,.42-.72,.84-1.45,1.27-2.17,1.64-2.73,3.38-5.41,5.08-8.11,1.63-2.59,3.33-5.18,4.74-7.91,1.07-2.09,1.96-4.28,2.88-6.45-.46-.03-.97-.07-1.53-.1-.77,1.15-1.52,2.33-2.23,3.53-2.74,4.59-5.09,9.4-7.25,14.29h0Z"/>
          <path class="cls-1" d="M146.28,187.83c-1.89,3.74-3.95,7.4-5.98,11.07-2.07,3.76-4.16,7.51-6.2,11.28-.87,1.61-1.89,3.13-2.79,4.73-.74,1.32-1.42,2.72-1.71,4.22,.11-.11,.24-.21,.35-.33,3-3.21,4.41-7.57,6.82-11.2,1.56-2.35,3.08-4.71,4.64-7.06,1.55-2.32,3.1-4.64,4.57-7.01,3.06-4.91,5.6-10.1,7.97-15.38,1.18-2.64,2.31-5.29,3.47-7.93,.24-.57,.5-1.13,.77-1.68-.74-.45-1.48-.79-2.16-1.06-1.55,3.04-3.02,6.12-4.46,9.21-1.74,3.73-3.46,7.46-5.31,11.14h0Z"/>
          <path class="cls-1" d="M119.71,225.8c-1.28,1.67-2.45,3.45-3.46,5.3-.23,.42-.45,.85-.65,1.28l2.06,.23c.9-2.5,1.81-4.99,2.61-7.52-.19,.24-.38,.48-.57,.72h0Z"/>
          <path class="cls-1" d="M140.69,214.48c-1.17,1.48-2.34,2.97-3.5,4.46-3.6,4.63-7.06,9.43-9.79,14.63,2.53,.07,4.74-.08,6.68-.38,1.12-2.33,2.16-4.7,3.09-7.1,1.46-3.77,2.71-7.64,3.51-11.61h0Z"/>
          <path class="cls-1" d="M118.95,211.91c-2.28,4.14-4.72,8.45-5.63,13.13,1.51-1.47,2.83-3.12,3.98-4.87,2.59-3.94,4.47-8.33,5.98-12.78,.94-2.77,1.73-5.59,2.42-8.42-.23,.36-.45,.72-.66,1.07-2.26,3.83-3.94,7.97-6.08,11.86h0Z"/>
          <path class="cls-1" d="M103.14,219.69c-2.38,3.33-4.4,6.92-6.11,10.64l3.51,.38c1.89-4.22,2.97-8.81,4.29-13.24-.58,.72-1.15,1.46-1.69,2.22h0Z"/>
          <path class="cls-1" d="M73.8,219.68c1.2-1.57,2.35-3.19,3.42-4.86,2.8-4.34,5.19-8.93,7.55-13.52,.9-1.75,1.8-3.51,2.71-5.25-2.63,3.68-5.03,7.53-7.27,11.46-2.28,3.98-4.39,8.05-6.41,12.17h0Z"/>
        </g>
        <path class="cls-2" d="M153.42,166.72s-82.24-5.72-92.75-5.24c-10.51,.47-16.81,6.86-16.81,6.86,0,0-31.4,31.43-42.09,43.56-6.45,7.31,17.14,9.88,17.14,9.88l106.89,11.73c19.41,1.17,21.75-9.63,21.75-9.63l13.32-40.7c6.99-14.04-7.45-16.44-7.45-16.44h0Zm-13.26,30.85c-1.48,4.69-5.36,8.44-9.24,11.22-4.28,3.06-9.12,5.32-14.05,7.11-12,4.35-24.9,5.52-37.6,5.46-7.1-.03-14.19-.45-21.27-1.03-3.02-.24-6.03-.54-9.05-.69-2.92-.15-5.85-.24-8.76-.4-5.84-.32-11.82-.82-17.4-2.71-2.12-.72-4.36-1.62-6.13-3.02-1.02-.81-1.82-1.89-2.18-3.15-.79-2.77,.51-5.72,1.9-8.06,1.95-3.29,4.56-6.18,7.26-8.87,1.89-1.89,3.87-3.67,5.92-5.4,4.08-5,9.22-9.1,15.09-11.88,4.71-2.23,9.79-3.59,14.98-4.07,2.98-.28,5.99-.2,8.98-.16,3.37,.06,6.74,.17,10.1,.38,13.61,.79,27.29,2.68,40.33,6.76,5.39,1.69,11.02,3.6,15.7,6.85,1.91,1.33,3.73,2.95,4.84,5.02,1.11,2.05,1.31,4.4,.6,6.61l-.02,.02Z"/>
        <path class="cls-2" d="M149.2,203.8c-3.54,5.69-8.02,10.84-13.59,14.62-5.73,3.89-12.46,6.02-19.25,7.09-14.4,2.28-29.11,.4-43.57-.16-17.72-.67-35.72-.57-53-5.09-3.12-.82-6.31-1.72-9.22-3.11-2.31-1.1-4.96-2.83-5.54-5.52-.25-1.19-.11-2.42,.24-3.61-1.31,1.42-2.49,2.71-3.47,3.84-6.45,7.31,17.14,9.88,17.14,9.88l106.89,11.73c19.41,1.17,21.75-9.63,21.75-9.63l13.32-40.7c2.17-4.36,2.27-7.6,1.38-9.99-3.64,10.52-7.15,21.15-13.06,30.63v.02Z"/>
        <path class="cls-1" d="M63.29,162.6c-.53,.51-1.07,1.18-1.15,1.95-.17,1.58,1.76,2.44,2.97,2.85,1.23,.42,2.44,.67,3.74,.72,1.48,.06,2.99-.07,4.42-.46,1.24-.34,2.53-.91,3.35-1.95,.68-.86,.99-2.1,.47-3.12-.12-.24-.28-.46-.45-.66-4.81-.24-8.89-.4-11.87-.46-.54,.31-1.04,.69-1.49,1.13h0Z"/>
        <path class="cls-1" d="M85.71,164.72c-.69,.94-1.22,2.17-.77,3.33,.58,1.48,2.37,2.16,3.78,2.53,1.8,.47,3.71,.48,5.54,.27,1.9-.22,3.88-.72,5.45-1.86,1.23-.89,2.28-2.46,1.94-4.04-.16-.71-.58-1.25-1.13-1.68-4.27-.25-8.47-.51-12.45-.72-.92,.6-1.74,1.34-2.36,2.18h0Z"/>
        <path class="cls-1" d="M114.68,164.39c-1.03,.93-1.88,2.21-1.89,3.63-.06,3.7,4.89,4.88,7.77,4.89,1.88,0,3.8-.27,5.58-.88,1.56-.54,3.34-1.48,3.88-3.17,.53-1.67-.12-2.91-1.25-3.8-4.34-.29-9.01-.58-13.81-.89-.1,.08-.18,.15-.28,.23Z"/>
        <path class="cls-1" d="M138.11,167.84c-.76,1.06-1.25,2.38-.79,3.67,.58,1.65,2.4,2.57,3.94,3.11,1.84,.64,3.7,.88,5.64,.78,1.95-.1,3.99-.48,5.72-1.42,1.51-.82,2.64-2.15,2.61-3.94-.02-1.34-.92-2.48-1.93-3.34-.83-.06-5.81-.4-13.07-.89-.81,.57-1.54,1.25-2.1,2.03Z"/>
        <path class="cls-1" d="M128.69,234.23c-.93,0-1.91-.03-2.93-.09l-106.92-11.73c-1.7-.18-16.68-1.95-18.62-6.96-.5-1.29-.14-2.64,1.06-4.01,10.58-12,41.8-43.28,42.12-43.59,.26-.26,6.6-6.56,17.24-7.04,10.43-.47,89.47,5.01,92.83,5.24h.06c.26,.04,6.48,1.13,8.95,5.96,1.56,3.07,1.23,6.89-.99,11.38l-13.3,40.66c-.08,.38-2.41,10.17-19.48,10.18h-.02ZM62.26,162.09c-.63,0-1.15,0-1.56,.03-10.11,.45-16.31,6.6-16.37,6.66-.31,.31-31.51,31.57-42.06,43.53-.87,.99-1.14,1.86-.83,2.67,1.4,3.61,13.14,5.65,17.54,6.13l106.9,11.73c18.6,1.11,21.01-9.01,21.04-9.12l13.33-40.77s.03-.06,.03-.09c2.05-4.11,2.39-7.56,1.02-10.25-2.09-4.09-7.53-5.18-7.97-5.25-1.99-.14-76.05-5.27-91.07-5.27h0Z"/>
      </g>
      <g>
        <path class="cls-1" d="M184.33,20.38l-3.76,33.38s-.24,8.61-4.51,11.45c-.99,.65-6.13,4.56-7.59,4.42-7.78-.73-71.62-11.91-100.45-12.18,0,0-13.08,.31-14.4-5.31-1.32-5.62-.92-38.15-.92-38.15,0,0-6.14-3.54-.61-7.43,2.02-1.42,8.19-5.72,14.3-5.9,9.01-.27,85.57,2.88,106.55,7.22,0,0,12.64,1.42,11.39,12.5v.02Z"/>
        <path class="cls-1" d="M69.14,2.88c7.27-.75,14.59-.68,21.89-.68s14.98,.11,22.46,.25c-22.24-1.23-42.71-1.91-47.11-1.78-6.11,.18-12.28,4.48-14.3,5.9-.21,.15-.39,.3-.58,.44,5.59-2.33,11.62-3.51,17.64-4.13Z"/>
        <path class="cls-1" d="M180.93,11.27c-5.19,3.53-10.49,6.9-15.53,10.65-3.18,2.36-6.13,5-9.25,7.41-3.27,2.53-6.65,4.93-9.95,7.43-6.75,5.13-13.42,10.37-20.05,15.65-3.88,3.09-7.73,6.21-11.56,9.37,25.01,3.32,49.27,7.42,53.88,7.85,1.46,.14,6.61-3.76,7.59-4.42,4.27-2.84,4.51-11.45,4.51-11.45l3.75-33.38c.49-4.38-1.19-7.24-3.39-9.11h0Z"/>
        <path class="cls-1" d="M168.54,70.29h-.13c-1.95-.18-7.38-1.02-14.9-2.17-22.33-3.43-63.91-9.81-85.5-10.01-.53,0-13.61,.25-15.04-5.81-1.26-5.38-.99-34.17-.94-37.95-.81-.55-2.82-2.1-2.91-4.21-.07-1.47,.8-2.86,2.58-4.11C53.77,4.59,60.01,.2,66.37,.01c9.02-.26,85.99,2.94,106.7,7.23,.07,0,13.21,1.62,11.9,13.21l-.65-.07,.65,.07-3.75,33.38c0,.31-.31,8.94-4.8,11.92-.16,.1-.43,.3-.78,.54-3.45,2.45-5.86,3.98-7.11,3.98h0Zm-100.53-13.48c21.7,.2,63.34,6.59,85.71,10.02,7.49,1.15,12.9,1.98,14.83,2.16,.64,.06,2.78-1.2,6.36-3.74,.36-.25,.65-.45,.81-.57,3.93-2.62,4.22-10.85,4.22-10.93l3.76-33.43c.48-4.29-1.15-7.57-4.87-9.74-2.85-1.67-5.91-2.02-5.94-2.03C152.17,4.26,75.43,1.05,66.41,1.32c-3.95,.11-8.65,2.06-13.95,5.78-1.39,.98-2.07,1.97-2.02,2.98,.08,1.87,2.57,3.33,2.59,3.34,.2,.12,.33,.34,.32,.58,0,.32-.38,32.52,.9,38.01,.98,4.18,10.25,4.9,13.75,4.81h0Z"/>
      </g>
      <g>
        <path class="cls-1" d="M65.46,165.74c-.52-.46-.93-1.01-1.27-1.61l-1.6-146.04,9.48,.52,.7,147.41c-2.11,1.33-5.39,1.38-7.3-.3h0Z"/>
        <path class="cls-1" d="M72.07,18.62l-9.48-.52,.51,46.74c1.42,2.42,2.21,5.18,2.79,7.91,.62,2.86,.99,5.76,1.39,8.66,.46,3.4,.86,6.79,1.05,10.22,.22,3.92,.29,7.85,.34,11.77,.1,8.05,.2,16.11,.16,24.17-.04,8.19-.17,16.37-.28,24.56-.07,4.95-.12,9.9-.16,14.84,1.53,.18,3.15-.15,4.39-.93l-.7-147.41h-.02Z"/>
        <path class="cls-1" d="M69.17,167.68c-1.49,0-2.99-.44-4.15-1.44-.54-.47-1-1.05-1.41-1.77-.05-.1-.09-.21-.09-.32l-1.6-146.04c0-.18,.07-.36,.2-.48s.31-.18,.49-.18l9.48,.52c.35,.02,.62,.31,.62,.65l.7,147.41c0,.23-.11,.44-.31,.56-1.08,.68-2.5,1.08-3.94,1.08h0Zm-4.34-3.72c.31,.52,.66,.95,1.06,1.29h0c1.51,1.32,4.22,1.48,6.22,.41l-.7-146.42-8.17-.45,1.59,145.16h0Z"/>
      </g>
      <g>
        <path class="cls-1" d="M125.05,169.92c-2.39,1.41-6.96,.63-8.02-2.19L126.01,20.06l9.42,1.2-9.95,148.34c-.14,.11-.28,.23-.44,.31Z"/>
        <path class="cls-1" d="M126.01,20.06l-3.11,51.07c1.51,1.96,2.21,4.43,2.57,6.84,.41,2.68,.45,5.39,.49,8.09,.05,3.42,.13,6.83,.06,10.25-.08,3.94-.27,7.87-.48,11.81-.42,7.99-.86,15.98-1.36,23.97-.51,7.98-1.06,15.95-1.65,23.92-.36,4.84-.72,9.7-1.09,14.54,1.31,.14,2.63-.07,3.6-.64,.16-.1,.3-.2,.44-.31l9.95-148.34-9.42-1.2h0Z"/>
        <path class="cls-1" d="M122.22,171.26c-.86,0-1.75-.15-2.59-.44-1.59-.56-2.72-1.58-3.22-2.87-.03-.09-.04-.17-.04-.27L125.35,20.02c0-.18,.1-.35,.24-.46,.14-.11,.32-.17,.5-.15l9.42,1.2c.34,.04,.59,.35,.57,.69l-9.95,148.34c0,.18-.1,.35-.24,.46-.17,.13-.33,.26-.51,.38h0c-.88,.51-2,.78-3.16,.78h.02Zm-4.53-3.64c.38,.87,1.21,1.56,2.37,1.97,1.59,.56,3.46,.46,4.65-.24h0s.09-.05,.13-.09l9.89-147.44-8.12-1.03-8.94,146.82h0Zm7.37,2.3h0Z"/>
      </g>
      <g>
        <path class="cls-1" d="M91.15,169.35c-1.05-.25-1.76-.87-2.26-1.65l3.54-139.58,9.45,.86-4.36,138.32c-1.37,1.92-4.16,2.58-6.37,2.04Z"/>
        <path class="cls-1" d="M92.43,28.12l-.99,39.06c3.01,4.42,4.08,9.99,4.56,15.24,.57,6.2,.27,12.42,.15,18.62-.07,3.53,.1,7.04,.19,10.58,.11,4.67,.15,9.34,.08,14.01-.07,4.67-.26,9.32-.51,13.98-.24,4.56-.31,9.12-.37,13.67-.07,5.25-.12,10.52-.35,15.77,.93-.37,1.75-.93,2.33-1.74l4.36-138.32-9.45-.86h0Z"/>
        <path class="cls-1" d="M92.69,170.18c-.59,0-1.16-.07-1.69-.2-1.11-.27-2.01-.93-2.65-1.93-.07-.11-.1-.24-.1-.37l3.54-139.58c0-.18,.09-.35,.22-.47,.14-.12,.31-.18,.5-.17l9.45,.86c.34,.03,.6,.32,.59,.67l-4.36,138.32c0,.13-.04,.25-.12,.36-1.23,1.74-3.39,2.49-5.37,2.49h0Zm-3.13-2.67c.45,.64,1.03,1.03,1.75,1.2h0c1.76,.44,4.28,0,5.57-1.63l4.34-137.5-8.14-.75-3.52,138.67h0Z"/>
      </g>
      <g>
        <path class="cls-1" d="M149.59,171.72c-1.49,1.14-3.67,1.21-5.34,.44-1.09-.51-1.85-1.35-2.2-2.36l15.66-139.94,9.48,.49-16.56,140.13c-.26,.47-.6,.9-1.05,1.25h0Z"/>
        <path class="cls-1" d="M157.72,29.85l-5.25,46.92c.29-.26,.58-.53,.88-.79,.8-.69,2.16-1.7,2.94-.41,.46,.77,.54,1.79,.63,2.66,.18,1.95,.15,3.91,.12,5.86-.06,4.69-.31,9.36-.68,14.02-.72,9.31-1.73,18.61-2.89,27.87-1.15,9.2-2.5,18.38-3.91,27.54-.98,6.37-1.97,12.73-2.94,19.1,1.07,0,2.14-.29,2.98-.94,.45-.34,.79-.78,1.05-1.25L167.21,30.33l-9.48-.49h-.02Z"/>
        <path class="cls-1" d="M146.61,173.32c-.89,0-1.8-.19-2.64-.58-1.23-.58-2.14-1.55-2.54-2.75-.03-.09-.04-.18-.03-.28l15.66-139.94c.03-.34,.35-.59,.68-.58l9.48,.49c.18,0,.35,.1,.46,.24s.17,.32,.15,.5l-16.56,140.13c0,.09-.03,.17-.08,.24-.33,.59-.73,1.06-1.22,1.44h0c-.93,.72-2.14,1.09-3.39,1.09h.02Zm-3.88-3.61c.31,.79,.94,1.45,1.81,1.85,1.54,.72,3.46,.57,4.66-.36h0c.31-.24,.58-.55,.81-.93L166.46,30.97l-8.17-.42-15.58,139.17h0Z"/>
      </g>
      <g>
        <path class="cls-1" d="M178.54,24.03l-3.76,33.38s-.38,13.06-8.15,12.31c-7.78-.73-75.57-8.36-104.4-8.63,0,0-13.08,.31-14.4-5.31s-.92-38.15-.92-38.15c0,0-1.6-12.81,13.69-13.32,9.01-.3,85.57,2.88,106.55,7.22,0,0,12.64,1.42,11.39,12.5h0Z"/>
        <path class="cls-1" d="M57.62,35.85c-.12-.1-.33-.19-.45-.2-.24-.02-.44,.06-.68,.21-.39,.24-.73,.58-1.04,.97-.4,.61-.69,1.34-.88,1.92-.48,1.45-.75,3.12-.39,4.62,.24,.98,.79,1.75,1.82,1.89,.58,.09,1.1-.13,1.53-.59,1.05-1.13,1.27-3.12,1.27-4.67,0-.86-.1-1.7-.32-2.53-.17-.63-.42-1.23-.86-1.61h0Z"/>
        <path class="cls-1" d="M56.29,12.89c-.31,.36-.55,.75-.73,1.2-1.54,3.85-1.92,8.39-1.54,12.49,.14,1.52,.39,3.28,1.32,4.56,.84,1.15,2.09,1.06,3.25,.42,1.9-1.06,3.36-2.88,4.62-4.62,1.41-1.96,2.69-4.08,3.57-6.34,.79-2.04,1.41-4.48,.59-6.61-1.53-3.99-8.43-4.19-11.07-1.1Z"/>
        <path class="cls-2" d="M167.15,11.53c-20.98-4.35-97.55-7.52-106.55-7.22-15.29,.51-13.69,13.32-13.69,13.32,0,0-.4,32.54,.92,38.15,1.32,5.62,14.4,5.31,14.4,5.31,28.82,.27,96.62,7.89,104.4,8.63,7.78,.73,8.15-12.31,8.15-12.31l3.76-33.38c1.25-11.07-11.39-12.5-11.39-12.5h0Zm-31.04,14.43c-.37,3.03-1.85,5.78-3.71,8.16-2.02,2.59-4.51,4.79-7.16,6.72-2.48,1.8-5.13,3.38-7.92,4.65-3.76,1.71-7.79,2.9-11.77,3.94-4.5,1.17-9.07,2.06-13.66,2.8s-9.17,1.41-13.82,1.41c-4.63,0-9.26-.51-13.81-1.38-1.92-.37-3.86-.74-5.72-1.32-1.67-.51-3.3-1.22-4.63-2.37-2.97-2.57-3.61-6.82-3.95-10.52-.54-5.78-.93-11.78-.14-17.58,.17-2.36,.59-4.78,1.59-6.82,.05-.16,.1-.32,.16-.48,.04-.11,.13-.18,.22-.21,.91-1.54,2.19-2.8,4.04-3.55,1.85-.75,3.94-1.02,5.91-1.27,2.23-.28,4.48-.4,6.72-.5,4.68-.19,9.36-.48,14.04-.45,4.85,.03,9.7,.33,14.54,.82,4.74,.48,9.49,1.08,14.17,1.95,4.67,.87,9.28,2.04,13.75,3.65,2.94,1.06,6.07,2.1,8.44,4.22,1.16,1.04,1.99,2.31,2.4,3.82,.38,1.41,.5,2.88,.32,4.32v-.02Z"/>
        <path class="cls-2" d="M167.15,11.53c-.2-.04-.41-.08-.62-.12,.23,.12,.45,.25,.68,.38,1.96,1.17,3.64,2.8,4.5,4.95,1.06,2.64,.66,5.69,.38,8.45-.71,6.89-2.5,13.85-5.91,19.91-1.62,2.88-3.66,5.58-6.18,7.73-2.65,2.26-5.81,3.77-9.13,4.79-6.91,2.12-14.24,2.23-21.4,2.56-9.45,.43-18.89,.09-28.34,.03-9.28-.05-18.51-.72-27.7-2.05-4.64-.67-9.25-1.51-13.83-2.5-3.01-.65-5.86-1.69-7.82-4.19-1.76-2.23-2.57-5.04-3.19-7.76-.78-3.44-1.31-6.95-1.72-10.45,.05,9.19,.27,19.57,.96,22.52,1.32,5.62,14.4,5.31,14.4,5.31,28.82,.27,96.62,7.89,104.4,8.63,7.78,.73,8.15-12.31,8.15-12.31l3.76-33.38c1.25-11.07-11.39-12.5-11.39-12.5v-.02Z"/>
        <path class="cls-1" d="M167.26,70.41c-.23,0-.45,0-.69-.03-1.15-.11-3.64-.37-7.11-.73-19.89-2.09-72.71-7.66-97.23-7.89-.53,0-13.61,.24-15.04-5.81-1.31-5.58-.96-36.43-.93-38.28-.06-.57-.49-5.5,2.84-9.4,2.47-2.89,6.33-4.44,11.48-4.61,8.9-.3,85.57,2.85,106.71,7.23,.07,0,13.21,1.62,11.9,13.21l-3.76,33.38c0,.27-.27,8-4.08,11.37-1.17,1.03-2.54,1.55-4.09,1.55h0Zm-105.05-9.97c24.6,.23,77.48,5.79,97.37,7.9,3.47,.37,5.95,.63,7.1,.73,1.48,.14,2.71-.25,3.79-1.2,3.39-2.99,3.65-10.41,3.65-10.49l3.76-33.44c1.16-10.29-10.32-11.72-10.81-11.77-21.13-4.37-97.59-7.51-106.46-7.22-4.76,.16-8.3,1.55-10.52,4.15-3.09,3.61-2.55,8.4-2.55,8.45v.09c0,.32-.38,32.52,.9,38,.98,4.18,10.25,4.9,13.75,4.81h0ZM178.54,24.03h0Z"/>
        <g>
          <path class="cls-1" d="M54.05,35.88c.6-2.66,1.09-5.36,1.51-8.05,.9-5.89,1.48-11.82,2.31-17.72,.26-1.88,.56-3.77,.9-5.65-.99,.1-1.9,.27-2.74,.48-.12,.57-.24,1.14-.34,1.71-.82,4.68-.93,9.44-1.47,14.15-.56,4.99-.76,10.08-.17,15.08Z"/>
          <path class="cls-1" d="M70.31,22.5c.66-5.74,1.41-11.48,2.18-17.21,.03-.25,.07-.51,.1-.77-.86-.03-1.7-.05-2.5-.08-.31,2.49-.62,4.98-.89,7.47-.61,5.68-1.12,11.37-1.54,17.07-.21,2.85-.4,5.7-.58,8.55-.17,2.72-.27,5.45-.5,8.16-.4,4.89-.94,9.77-1.09,14.67,0,.26,0,.52-.02,.79h.11c.05-1.65,.15-3.31,.28-4.96,.44-5.62,1.23-11.2,2.07-16.77,.85-5.65,1.69-11.28,2.35-16.95v.03Z"/>
          <path class="cls-1" d="M81.59,60.7c.23-5.38,.77-10.73,1.22-16.07,.46-5.54,.69-11.09,1.03-16.64,.36-5.82,.74-11.65,.94-17.48,.06-1.79,.1-3.59,.12-5.38-.2,1.61-.39,3.23-.58,4.84-.75,6.37-1.43,12.74-2.1,19.12-.66,6.34-1.26,12.67-1.85,19.02-.3,3.17-.59,6.34-.9,9.5-.13,1.39-.27,2.78-.39,4.16,.81,.05,1.64,.1,2.48,.15,.02-.41,.03-.81,.04-1.22h0Z"/>
          <path class="cls-1" d="M94.31,40.94c-.26,1.79-.53,3.58-.81,5.36-.85,5.38-1.74,10.83-2.03,16.29,1.34,.1,2.7,.2,4.06,.31,.1-3.74-.15-7.48-.32-11.21-.17-3.54,.03-7.29-.88-10.75h0Z"/>
          <path class="cls-1" d="M95.26,25.83c0-.11,0-.22,0-.33,.29-6.51,1.04-12.99,1.74-19.47-.07,.29-.14,.58-.21,.87-1.36,6.2-1.78,12.58-1.54,18.92h0Z"/>
          <path class="cls-1" d="M105.23,59.25c-.93-9.97-1.27-19.96-1.87-29.94-.31-5.16-.69-10.32-.86-15.49-.02,.85-.05,1.69-.06,2.54-.14,9.88,.27,19.75,.75,29.61,.29,5.87,.59,11.75,.84,17.63,.56,.04,1.12,.1,1.67,.14-.17-1.49-.32-2.99-.46-4.49h0Z"/>
          <path class="cls-1" d="M116.19,30.67c.51-2.4,.91-4.82,1.2-7.25,.66-5.54,.86-11.12,1.09-16.69-.94-.06-1.88-.11-2.82-.17-.54,4.01-.9,8.05-.91,12.1,0,4.03,.32,8.13,1.44,12.02h0Z"/>
          <path class="cls-1" d="M124.98,7.15c-.43,7.16-2.09,14.19-3.26,21.25-1.27,7.57-2.24,15.27-4.67,22.58-.1,.31-.57,.34-.67,0-1.11-3.89-1.73-7.9-2.19-11.9-.4-3.46-.71-6.92-1.16-10.37-.45-3.38-.88-6.76-1.19-10.16-.37-4.05-.55-8.16-.31-12.24-.62-.03-1.23-.07-1.85-.1,.08,2.63,.17,5.24,.27,7.86,.21,5.05,.5,10.11,.88,15.16,.38,5.04,.95,10.04,1.46,15.07,.5,5,1.02,10,1.55,15,.18,1.7,.21,3.45,.28,5.19,.97,.09,1.93,.17,2.9,.26,.1-.6,.18-1.2,.27-1.8,.4-2.74,.97-5.44,1.52-8.16,1.17-5.79,2.3-11.6,3.34-17.41,.86-4.85,2-9.65,2.91-14.5,.97-5.09,1.77-10.23,1.96-15.4v-.18c-.69-.04-1.38-.1-2.07-.14l.02-.02Z"/>
          <path class="cls-1" d="M132.11,49.02c.36-4.52,.74-9.04,1-13.57,.34-5.92,.82-11.82,1.14-17.73,.14-2.57,.28-5.16,.3-7.74,0-.71,0-1.41,0-2.12l-1.39-.1c-.28,2.37-.54,4.75-.75,7.13-.23,2.63-.42,5.26-.57,7.9-.15,2.56-.32,5.11-.36,7.67-.07,5.19,.2,10.38,.47,15.56,.05,1,.1,2.01,.16,3.01h0Z"/>
          <path class="cls-1" d="M143.86,56.2c-.14-10.38-.65-20.74-.1-31.1,.14-2.64,.32-5.29,.51-7.93,.17-2.35,.19-4.69,.2-7.04,0-.48,0-.96,0-1.44-.1,0-.21-.02-.31-.03-.38,4.07-.62,8.15-.78,12.24-.38,9.8-.34,19.61-.86,29.4-.3,5.61-.72,11.23-.98,16.85,.76,.08,1.5,.16,2.24,.23,.11-3.72,.13-7.44,.09-11.16h0Z"/>
          <path class="cls-1" d="M156.25,36.96c.13,2.48,.21,4.96,.24,7.44,.24-2.67,.46-5.35,.65-8.02,.41-5.62,.55-11.25,.86-16.88,.17-3.11,.38-6.21,.54-9.32-.68-.09-1.38-.17-2.1-.26-.02,.38-.03,.76-.07,1.14-.43,5.72-.47,11.49-.4,17.24,.03,2.89,.11,5.78,.26,8.67h0Z"/>
          <path class="cls-1" d="M155.14,62.52s0,.05,0,.07c-.35,1.95-.74,3.88-1.1,5.83,.32,.03,.63,.07,.94,.1,.02-2,.08-4.01,.17-6h0Z"/>
          <path class="cls-1" d="M167.76,69.73c.09-.84,.18-1.68,.29-2.51,.61-5.17,1.35-10.32,1.9-15.5,.28-2.59,.51-5.19,.64-7.79,.13-2.59,.19-5.19,.3-7.79,.31-7.78,.62-15.55,.78-23.34-.65-.28-1.27-.5-1.83-.66-.05,3.65-.13,7.3-.25,10.95-.21,6.23-.52,12.45-.95,18.68-.36,5.12-.88,10.2-1.54,15.29-.54,4.19-1.09,8.38-1.5,12.58,.42,.04,.77,.08,1.05,.1,.4,.03,.77,.03,1.13,0h0Z"/>
          <path class="cls-1" d="M58.8,60.23c.03-1.34,.07-2.69,.09-4.03,.02-1.2,0-2.39,.12-3.59,.21-2.21,.53-4.41,.83-6.61,.31-2.3,.59-4.6,.72-6.91,.1-1.64,.1-3.3-.07-4.93-.62,1.8-1.15,3.63-1.59,5.48-1.02,4.31-1.62,8.73-1.89,13.15-.16,2.65-.19,5.32-.09,7.99,.65,.09,1.27,.15,1.84,.2,0-.25,.02-.5,.03-.75Z"/>
        </g>
      </g>
    </g>
  </g>
</svg>