<?xml version="1.0" encoding="UTF-8"?>
<svg xmlns="http://www.w3.org/2000/svg" viewBox="0 0 460.71 423.4">
  <defs>
    <style>
      .cls-1 {
        mix-blend-mode: multiply;
        opacity: .5;
      }

      .cls-1, .cls-2, .cls-3, .cls-4 {
        fill: #ffc857;
        stroke: #f49c00;
        stroke-miterlimit: 10;
      }

      .cls-3 {
        stroke-width: 2.27px;
      }

      .cls-4 {
        stroke-width: 3px;
      }

      .cls-5 {
        isolation: isolate;
      }
    </style>
  </defs>
  <g class="cls-5">
    <g id="OBJECTS">
      <g>
        <g>
          <g>
            <rect class="cls-2" x=".5" y="101.85" width="52.59" height="309.6"/>
            <rect class="cls-2" x=".5" y="105.72" width="52.59" height="309.6"/>
            <path class="cls-2" d="M.5,124.05v.34H30.09"/>
            <path class="cls-2" d="M.5,142.67v.34H30.09"/>
            <line class="cls-2" x1="8.57" y1="142.67" x2="8.57" y2="124.57"/>
            <path class="cls-2" d="M.5,161.21v.34H30.09"/>
            <path class="cls-2" d="M.5,179.82v.34H30.09"/>
            <line class="cls-2" x1="8.57" y1="179.82" x2="8.57" y2="161.72"/>
            <path class="cls-2" d="M.5,198.36v.34H30.09"/>
            <path class="cls-2" d="M.5,216.97v.34H30.09"/>
            <line class="cls-2" x1="8.57" y1="216.97" x2="8.57" y2="198.87"/>
            <path class="cls-2" d="M.5,235.51v.34H30.09"/>
            <path class="cls-2" d="M.5,254.12v.34H30.09"/>
            <line class="cls-2" x1="8.57" y1="254.12" x2="8.57" y2="236.03"/>
            <path class="cls-2" d="M.5,272.66v.34H30.09"/>
            <path class="cls-2" d="M.5,291.28v.34H30.09"/>
            <line class="cls-2" x1="8.57" y1="291.27" x2="8.57" y2="273.18"/>
            <path class="cls-2" d="M.5,309.81v.34H30.09"/>
            <path class="cls-2" d="M.5,328.43v.34H30.09"/>
            <line class="cls-2" x1="8.57" y1="328.42" x2="8.57" y2="310.33"/>
            <path class="cls-2" d="M.5,346.96v.34H30.09"/>
            <path class="cls-2" d="M.5,365.58v.34H30.09"/>
            <line class="cls-2" x1="8.57" y1="365.58" x2="8.57" y2="347.48"/>
            <path class="cls-2" d="M.5,384.12v.34H30.09"/>
            <path class="cls-2" d="M.5,402.73v.34H30.09"/>
            <line class="cls-2" x1="8.57" y1="402.73" x2="8.57" y2="384.63"/>
            <polygon class="cls-1" points="29.89 415.32 12.88 415.32 29.89 101.85 29.89 415.32"/>
            <path class="cls-2" d="M36.31,61.49c-.69-4.58,3.12-8.72,7.31-10.67,4.2-1.95,8.93-2.48,13.18-4.3,4.25-1.82,8.26-5.66,7.99-10.28,1.04,3.38,3.57,6.65,6.41,8.76,3.77,2.8,8.5,3.89,12.69,6,4.19,2.11,8.16,6,7.88,10.68"/>
            <rect class="cls-2" x="28.88" y="60.53" width="71.8" height="9.73"/>
            <rect class="cls-2" x="29.87" y="93.41" width="69.82" height="328.58"/>
            <rect class="cls-2" x="23.27" y="65.73" width="83.01" height="11.25"/>
            <path class="cls-2" d="M29.95,93.41H99.61c10.31,0,18.66-8.36,18.66-18.66H11.29c0,10.31,8.36,18.66,18.66,18.66Z"/>
            <circle class="cls-2" cx="64.91" cy="33.66" r="5.19"/>
            <polygon class="cls-2" points="29.87 93.41 99.69 93.41 99.69 96.95 29.87 93.41"/>
            <path class="cls-2" d="M29.89,112.19v.34H100.07"/>
            <line class="cls-2" x1="50.54" y1="112.19" x2="50.54" y2="94.09"/>
            <line class="cls-2" x1="78.55" y1="112.19" x2="78.55" y2="94.09"/>
            <path class="cls-2" d="M29.89,130.73v.34H100.07"/>
            <line class="cls-2" x1="64.35" y1="130.73" x2="64.35" y2="112.63"/>
            <path class="cls-2" d="M29.89,149.34v.34H100.07"/>
            <line class="cls-2" x1="50.54" y1="149.34" x2="50.54" y2="131.25"/>
            <line class="cls-2" x1="78.55" y1="149.34" x2="78.55" y2="131.25"/>
            <path class="cls-2" d="M29.89,167.88v.34H100.07"/>
            <line class="cls-2" x1="64.35" y1="167.88" x2="64.35" y2="149.78"/>
            <path class="cls-2" d="M29.89,186.49v.34H100.07"/>
            <line class="cls-2" x1="50.54" y1="186.49" x2="50.54" y2="168.4"/>
            <line class="cls-2" x1="78.55" y1="186.49" x2="78.55" y2="168.4"/>
            <path class="cls-2" d="M29.89,205.03v.34H100.07"/>
            <line class="cls-2" x1="64.35" y1="205.03" x2="64.35" y2="186.93"/>
            <path class="cls-2" d="M29.89,223.65v.34H100.07"/>
            <line class="cls-2" x1="50.54" y1="223.64" x2="50.54" y2="205.55"/>
            <line class="cls-2" x1="78.55" y1="223.64" x2="78.55" y2="205.55"/>
            <path class="cls-2" d="M29.89,242.18v.34H100.07"/>
            <line class="cls-2" x1="64.35" y1="242.18" x2="64.35" y2="224.09"/>
            <path class="cls-2" d="M29.89,260.8v.34H100.07"/>
            <line class="cls-2" x1="50.54" y1="260.8" x2="50.54" y2="242.7"/>
            <line class="cls-2" x1="78.55" y1="260.8" x2="78.55" y2="242.7"/>
            <path class="cls-2" d="M29.89,279.34v.34H100.07"/>
            <line class="cls-2" x1="64.35" y1="279.33" x2="64.35" y2="261.24"/>
            <path class="cls-2" d="M29.89,297.95v.34H100.07"/>
            <line class="cls-2" x1="50.54" y1="297.95" x2="50.54" y2="279.85"/>
            <line class="cls-2" x1="78.55" y1="297.95" x2="78.55" y2="279.85"/>
            <path class="cls-2" d="M29.89,316.49v.34H100.07"/>
            <line class="cls-2" x1="64.35" y1="316.48" x2="64.35" y2="298.39"/>
            <path class="cls-2" d="M29.89,335.1v.34H100.07"/>
            <line class="cls-2" x1="50.54" y1="335.1" x2="50.54" y2="317"/>
            <line class="cls-2" x1="78.55" y1="335.1" x2="78.55" y2="317"/>
            <path class="cls-2" d="M29.89,353.64v.34H100.07"/>
            <line class="cls-2" x1="64.35" y1="353.64" x2="64.35" y2="335.54"/>
            <path class="cls-2" d="M29.89,372.25v.34H100.07"/>
            <line class="cls-2" x1="50.54" y1="372.25" x2="50.54" y2="354.16"/>
            <line class="cls-2" x1="78.55" y1="372.25" x2="78.55" y2="354.16"/>
            <path class="cls-2" d="M29.89,390.79v.34H100.07"/>
            <line class="cls-2" x1="64.35" y1="390.79" x2="64.35" y2="372.69"/>
            <path class="cls-2" d="M29.89,409.4v.34H100.07"/>
            <line class="cls-2" x1="50.54" y1="409.4" x2="50.54" y2="391.31"/>
            <line class="cls-2" x1="78.55" y1="409.4" x2="78.55" y2="391.31"/>
            <line class="cls-2" x1="64.35" y1="421.76" x2="64.35" y2="409.84"/>
          </g>
          <g>
            <g>
              <path class="cls-4" d="M222.28,52.85V416.69c0,.44-.65,3.56-.65,4H106.81V102.32c14.26,0,30.01-2.23,42.48-9.15,12.47-6.92,23.28-16.46,35.21-24.27,11.93-7.82,23.55-17.01,37.78-16.04Z"/>
              <path class="cls-4" d="M106.81,197.09c14.26,0,30.01-2.23,42.48-9.15,12.47-6.92,23.28-16.46,35.21-24.27,11.93-7.82,23.55-17.01,37.78-16.04"/>
              <path class="cls-4" d="M106.81,231.15c14.26,0,30.01-2.23,42.48-9.15s23.28-16.46,35.21-24.27c11.93-7.82,23.55-17.01,37.78-16.04"/>
              <path class="cls-4" d="M222.89,52.67c-2.84,.56-5.7-1.21-7.48-3.49-1.79-2.28-2.8-5.06-4.22-7.59-2-3.6-4.93-6.8-8.69-8.47-2.6-1.15-5.49-1.53-8.33-1.56-3.32-.03-6.98,.58-9.09,3.14-1.84,2.24-2.01,5.44-1.56,8.3,.46,2.89,1.5,5.77,3.46,7.95s4.94,3.56,7.84,3.14c3.31-.48,6.07-3.42,6.46-6.75,.39-3.32-1.53-6.76-4.5-8.29-2.23-1.14-5.27-1.1-6.92,.78-1.29,1.48-1.37,3.82-.33,5.49s3.05,2.61,5.01,2.56"/>
              <path class="cls-4" d="M156.03,89.15c2.92-1.28,4.75-5.11,5.55-8.2,.8-3.09,.73-6.32,.92-9.51,.24-4.05,.93-8.16,2.81-11.75,1.88-3.6,5.08-6.66,9.02-7.63,3.94-.97,8.56,.5,10.64,3.99,2.29,3.84,.88,9.22-2.6,12.02-1.84,1.48-4.42,2.33-6.57,1.39-1.34-.59-2.34-1.79-2.97-3.11-.89-1.84-1.15-4.07-.35-5.95,.81-1.88,2.81-3.29,4.84-3.07,2.04,.22,3.77,2.32,3.3,4.32"/>
              <circle class="cls-4" cx="174.68" cy="42.33" r="8.44" transform="translate(93.35 202.62) rotate(-76.72)"/>
              <path class="cls-4" d="M222.28,41.79c-11.13,0-20.14-9.02-20.14-20.14S211.15,1.5,222.28,1.5"/>
              <path class="cls-4" d="M119.41,101.53c5-.57,9.87-5.89,11.68-10.6,1.8-4.7,2.55-9.85,5.14-14.16,1.96-3.27,4.95-5.91,8.43-7.45,1.55-.69,3.22-1.17,4.91-1.14,4.32,.07,8.11,3.64,9.2,7.83,1.1,4.18-.35,9.53-2.74,13.14"/>
              <path class="cls-4" d="M132.21,99.49c2.33-1.6,4.19-3.87,5.31-6.47,1.18-2.75,1.53-5.8,2.72-8.53s3.69-5.29,6.67-5.14c3.17,.16,5.49,3.47,5.49,6.64,0,3.17-1,4.83-3.11,7.19"/>
              <circle class="cls-4" cx="127.5" cy="212.37" r="15.04"/>
              <circle class="cls-4" cx="155.3" cy="201.58" r="14.15" transform="translate(-76.57 306.41) rotate(-76.72)"/>
              <circle class="cls-4" cx="178.85" cy="184.96" r="14.15" transform="translate(-78.4 180.64) rotate(-45)"/>
              <circle class="cls-4" cx="203.38" cy="169.86" r="14.15" transform="translate(-60.54 193.56) rotate(-45)"/>
              <path class="cls-4" d="M106.81,352.2c14.26,0,30.01-2.23,42.48-9.15,12.47-6.92,23.28-16.46,35.21-24.27,11.93-7.82,23.55-17.01,37.78-16.04"/>
              <path class="cls-4" d="M106.81,386.26c14.26,0,30.01-2.23,42.48-9.15,12.47-6.92,23.28-16.46,35.21-24.27,11.93-7.82,23.55-17.01,37.78-16.04"/>
              <circle class="cls-4" cx="127.5" cy="367.48" r="15.04"/>
              <circle class="cls-4" cx="155.3" cy="356.69" r="14.15"/>
              <circle class="cls-4" cx="178.85" cy="340.07" r="14.15"/>
              <circle class="cls-4" cx="203.38" cy="324.96" r="14.15" transform="translate(-170.21 238.99) rotate(-45)"/>
              <line class="cls-4" x1="121.79" y1="195.14" x2="121.79" y2="101.42"/>
              <line class="cls-4" x1="143.25" y1="190.88" x2="143.25" y2="96.07"/>
              <line class="cls-4" x1="165.41" y1="178.02" x2="165.41" y2="82.23"/>
              <path class="cls-4" d="M186.87,161.9V66.91"/>
              <line class="cls-4" x1="206.96" y1="150.58" x2="206.96" y2="55.74"/>
              <line class="cls-4" x1="121.79" y1="351.19" x2="121.79" y2="229.39"/>
              <line class="cls-4" x1="143.25" y1="346.93" x2="143.25" y2="224.04"/>
              <line class="cls-4" x1="165.41" y1="334.07" x2="165.41" y2="211.54"/>
              <line class="cls-4" x1="186.87" y1="317.44" x2="186.87" y2="196.64"/>
              <line class="cls-4" x1="206.96" y1="304.78" x2="206.96" y2="183.7"/>
              <line class="cls-4" x1="121.79" y1="420.79" x2="121.79" y2="385.2"/>
              <line class="cls-4" x1="143.25" y1="420.79" x2="143.25" y2="380.63"/>
              <line class="cls-4" x1="165.41" y1="420.79" x2="165.41" y2="366.45"/>
              <line class="cls-4" x1="186.87" y1="420.79" x2="186.87" y2="352.84"/>
              <line class="cls-4" x1="206.96" y1="420.79" x2="206.96" y2="339.17"/>
            </g>
            <g>
              <path class="cls-4" d="M223.43,52.85V416.69c0,.44-.65,3.56-.65,4H107.96V102.32c14.26,0,30.01-2.23,42.48-9.15,12.47-6.92,23.28-16.46,35.21-24.27,11.93-7.82,23.55-17.01,37.78-16.04Z"/>
              <path class="cls-4" d="M107.96,197.09c14.26,0,30.01-2.23,42.48-9.15,12.47-6.92,23.28-16.46,35.21-24.27,11.93-7.82,23.55-17.01,37.78-16.04"/>
              <path class="cls-4" d="M107.96,231.15c14.26,0,30.01-2.23,42.48-9.15s23.28-16.46,35.21-24.27c11.93-7.82,23.55-17.01,37.78-16.04"/>
              <path class="cls-4" d="M224.03,52.67c-2.84,.56-5.7-1.21-7.48-3.49-1.79-2.28-2.8-5.06-4.22-7.59-2-3.6-4.93-6.8-8.69-8.47-2.6-1.15-5.49-1.53-8.33-1.56-3.32-.03-6.98,.58-9.09,3.14-1.84,2.24-2.01,5.44-1.56,8.3,.46,2.89,1.5,5.77,3.46,7.95s4.94,3.56,7.84,3.14c3.31-.48,6.07-3.42,6.46-6.75,.39-3.32-1.52-6.76-4.5-8.29-2.23-1.14-5.27-1.1-6.92,.78-1.29,1.48-1.37,3.82-.33,5.49s3.05,2.61,5.01,2.56"/>
              <path class="cls-4" d="M157.18,89.15c2.92-1.28,4.75-5.11,5.55-8.2,.8-3.09,.73-6.32,.92-9.51,.24-4.05,.93-8.16,2.81-11.75,1.88-3.6,5.08-6.66,9.02-7.63s8.56,.5,10.64,3.99c2.29,3.84,.88,9.22-2.6,12.02-1.84,1.48-4.42,2.33-6.57,1.39-1.34-.59-2.34-1.79-2.97-3.11-.89-1.84-1.15-4.07-.35-5.95,.81-1.88,2.81-3.29,4.84-3.07,2.04,.22,3.77,2.32,3.3,4.32"/>
              <circle class="cls-4" cx="175.83" cy="42.33" r="8.44" transform="translate(94.23 203.73) rotate(-76.72)"/>
              <path class="cls-4" d="M223.43,41.79c-11.13,0-20.14-9.02-20.14-20.14S212.3,1.5,223.43,1.5"/>
              <path class="cls-4" d="M120.55,101.53c5-.57,9.87-5.89,11.68-10.6,1.8-4.7,2.55-9.85,5.14-14.16,1.96-3.27,4.95-5.91,8.43-7.45,1.55-.69,3.22-1.17,4.91-1.14,4.32,.07,8.11,3.64,9.2,7.83,1.1,4.18-.35,9.53-2.74,13.14"/>
              <path class="cls-4" d="M133.36,99.49c2.33-1.6,4.19-3.87,5.31-6.47,1.18-2.75,1.53-5.8,2.72-8.53s3.69-5.29,6.67-5.14c3.17,.16,5.49,3.47,5.49,6.64s-1,4.83-3.11,7.19"/>
              <circle class="cls-4" cx="128.65" cy="212.37" r="15.04"/>
              <circle class="cls-4" cx="156.45" cy="201.58" r="14.15" transform="translate(-65.23 75.21) rotate(-22.5)"/>
              <circle class="cls-4" cx="180" cy="184.96" r="14.15" transform="translate(-31.41 333.01) rotate(-80.78)"/>
              <circle class="cls-4" cx="204.53" cy="169.86" r="14.15" transform="translate(-24.57 34.96) rotate(-9.22)"/>
              <path class="cls-4" d="M107.96,352.2c14.26,0,30.01-2.23,42.48-9.15,12.47-6.92,23.28-16.46,35.21-24.27,11.93-7.82,23.55-17.01,37.78-16.04"/>
              <path class="cls-4" d="M107.96,386.26c14.26,0,30.01-2.23,42.48-9.15,12.47-6.92,23.28-16.46,35.21-24.27,11.93-7.82,23.55-17.01,37.78-16.04"/>
              <circle class="cls-4" cx="128.65" cy="367.48" r="15.04"/>
              <circle class="cls-4" cx="156.45" cy="356.69" r="14.15"/>
              <circle class="cls-4" cx="180" cy="340.07" r="14.15"/>
              <circle class="cls-4" cx="204.53" cy="324.96" r="14.15" transform="translate(-49.41 36.96) rotate(-9.22)"/>
              <line class="cls-4" x1="122.93" y1="195.14" x2="122.93" y2="101.42"/>
              <line class="cls-4" x1="144.4" y1="190.88" x2="144.4" y2="96.07"/>
              <line class="cls-4" x1="166.56" y1="178.02" x2="166.56" y2="82.23"/>
              <path class="cls-4" d="M188.02,161.9V66.91"/>
              <line class="cls-4" x1="208.1" y1="150.58" x2="208.1" y2="55.74"/>
              <line class="cls-4" x1="122.93" y1="351.19" x2="122.93" y2="229.39"/>
              <line class="cls-4" x1="144.4" y1="346.93" x2="144.4" y2="224.04"/>
              <line class="cls-4" x1="166.56" y1="334.07" x2="166.56" y2="211.54"/>
              <line class="cls-4" x1="188.02" y1="317.44" x2="188.02" y2="196.64"/>
              <line class="cls-4" x1="208.1" y1="304.78" x2="208.1" y2="183.7"/>
              <line class="cls-4" x1="122.93" y1="420.79" x2="122.93" y2="385.2"/>
              <line class="cls-4" x1="144.4" y1="420.79" x2="144.4" y2="380.63"/>
              <line class="cls-4" x1="166.56" y1="420.79" x2="166.56" y2="366.45"/>
              <line class="cls-4" x1="188.02" y1="420.79" x2="188.02" y2="352.84"/>
              <line class="cls-4" x1="208.1" y1="420.79" x2="208.1" y2="339.17"/>
            </g>
          </g>
        </g>
        <g>
          <g>
            <rect class="cls-2" x="407.62" y="101.85" width="52.59" height="309.6" transform="translate(867.84 513.3) rotate(180)"/>
            <rect class="cls-2" x="407.62" y="105.72" width="52.59" height="309.6" transform="translate(867.84 521.04) rotate(180)"/>
            <path class="cls-2" d="M460.21,124.05v.34h-29.59"/>
            <path class="cls-2" d="M460.21,142.67v.34h-29.59"/>
            <line class="cls-2" x1="452.14" y1="142.67" x2="452.14" y2="124.57"/>
            <path class="cls-2" d="M460.21,161.21v.34h-29.59"/>
            <path class="cls-2" d="M460.21,179.82v.34h-29.59"/>
            <line class="cls-2" x1="452.14" y1="179.82" x2="452.14" y2="161.72"/>
            <path class="cls-2" d="M460.21,198.36v.34h-29.59"/>
            <path class="cls-2" d="M460.21,216.97v.34h-29.59"/>
            <line class="cls-2" x1="452.14" y1="216.97" x2="452.14" y2="198.87"/>
            <path class="cls-2" d="M460.21,235.51v.34h-29.59"/>
            <path class="cls-2" d="M460.21,254.12v.34h-29.59"/>
            <line class="cls-2" x1="452.14" y1="254.12" x2="452.14" y2="236.03"/>
            <path class="cls-2" d="M460.21,272.66v.34h-29.59"/>
            <path class="cls-2" d="M460.21,291.28v.34h-29.59"/>
            <line class="cls-2" x1="452.14" y1="291.27" x2="452.14" y2="273.18"/>
            <path class="cls-2" d="M460.21,309.81v.34h-29.59"/>
            <path class="cls-2" d="M460.21,328.43v.34h-29.59"/>
            <line class="cls-2" x1="452.14" y1="328.42" x2="452.14" y2="310.33"/>
            <path class="cls-2" d="M460.21,346.96v.34h-29.59"/>
            <path class="cls-2" d="M460.21,365.58v.34h-29.59"/>
            <line class="cls-2" x1="452.14" y1="365.58" x2="452.14" y2="347.48"/>
            <path class="cls-2" d="M460.21,384.12v.34h-29.59"/>
            <path class="cls-2" d="M460.21,402.73v.34h-29.59"/>
            <line class="cls-2" x1="452.14" y1="402.73" x2="452.14" y2="384.63"/>
            <polygon class="cls-1" points="430.82 415.32 447.83 415.32 430.82 101.85 430.82 415.32"/>
            <path class="cls-2" d="M424.4,61.49c.69-4.58-3.12-8.72-7.31-10.67-4.2-1.95-8.93-2.48-13.18-4.3-4.25-1.82-8.26-5.66-7.99-10.28-1.04,3.38-3.57,6.65-6.41,8.76-3.77,2.8-8.5,3.89-12.69,6-4.19,2.11-8.16,6-7.88,10.68"/>
            <rect class="cls-2" x="360.03" y="60.53" width="71.8" height="9.73" transform="translate(791.86 130.79) rotate(180)"/>
            <rect class="cls-2" x="361.02" y="93.41" width="69.82" height="328.58" transform="translate(791.86 515.4) rotate(180)"/>
            <rect class="cls-2" x="354.43" y="65.73" width="83.01" height="11.25" transform="translate(791.86 142.71) rotate(180)"/>
            <path class="cls-2" d="M430.76,93.41h-69.66c-10.31,0-18.66-8.36-18.66-18.66h106.98c0,10.31-8.36,18.66-18.66,18.66Z"/>
            <circle class="cls-2" cx="395.8" cy="33.66" r="5.19"/>
            <polygon class="cls-2" points="430.84 93.41 361.02 93.41 361.02 96.95 430.84 93.41"/>
            <path class="cls-2" d="M430.82,112.19v.34h-70.17"/>
            <line class="cls-2" x1="410.17" y1="112.19" x2="410.17" y2="94.09"/>
            <line class="cls-2" x1="382.16" y1="112.19" x2="382.16" y2="94.09"/>
            <path class="cls-2" d="M430.82,130.73v.34h-70.17"/>
            <line class="cls-2" x1="396.36" y1="130.73" x2="396.36" y2="112.63"/>
            <path class="cls-2" d="M430.82,149.34v.34h-70.17"/>
            <line class="cls-2" x1="410.17" y1="149.34" x2="410.17" y2="131.25"/>
            <line class="cls-2" x1="382.16" y1="149.34" x2="382.16" y2="131.25"/>
            <path class="cls-2" d="M430.82,167.88v.34h-70.17"/>
            <line class="cls-2" x1="396.36" y1="167.88" x2="396.36" y2="149.78"/>
            <path class="cls-2" d="M430.82,186.49v.34h-70.17"/>
            <line class="cls-2" x1="410.17" y1="186.49" x2="410.17" y2="168.4"/>
            <line class="cls-2" x1="382.16" y1="186.49" x2="382.16" y2="168.4"/>
            <path class="cls-2" d="M430.82,205.03v.34h-70.17"/>
            <line class="cls-2" x1="396.36" y1="205.03" x2="396.36" y2="186.93"/>
            <path class="cls-2" d="M430.82,223.65v.34h-70.17"/>
            <line class="cls-2" x1="410.17" y1="223.64" x2="410.17" y2="205.55"/>
            <line class="cls-2" x1="382.16" y1="223.64" x2="382.16" y2="205.55"/>
            <path class="cls-2" d="M430.82,242.18v.34h-70.17"/>
            <line class="cls-2" x1="396.36" y1="242.18" x2="396.36" y2="224.09"/>
            <path class="cls-2" d="M430.82,260.8v.34h-70.17"/>
            <line class="cls-2" x1="410.17" y1="260.8" x2="410.17" y2="242.7"/>
            <line class="cls-2" x1="382.16" y1="260.8" x2="382.16" y2="242.7"/>
            <path class="cls-2" d="M430.82,279.34v.34h-70.17"/>
            <line class="cls-2" x1="396.36" y1="279.33" x2="396.36" y2="261.24"/>
            <path class="cls-2" d="M430.82,297.95v.34h-70.17"/>
            <line class="cls-2" x1="410.17" y1="297.95" x2="410.17" y2="279.85"/>
            <line class="cls-2" x1="382.16" y1="297.95" x2="382.16" y2="279.85"/>
            <path class="cls-2" d="M430.82,316.49v.34h-70.17"/>
            <line class="cls-2" x1="396.36" y1="316.48" x2="396.36" y2="298.39"/>
            <path class="cls-2" d="M430.82,335.1v.34h-70.17"/>
            <line class="cls-2" x1="410.17" y1="335.1" x2="410.17" y2="317"/>
            <line class="cls-2" x1="382.16" y1="335.1" x2="382.16" y2="317"/>
            <path class="cls-2" d="M430.82,353.64v.34h-70.17"/>
            <line class="cls-2" x1="396.36" y1="353.64" x2="396.36" y2="335.54"/>
            <path class="cls-2" d="M430.82,372.25v.34h-70.17"/>
            <line class="cls-2" x1="410.17" y1="372.25" x2="410.17" y2="354.16"/>
            <line class="cls-2" x1="382.16" y1="372.25" x2="382.16" y2="354.16"/>
            <path class="cls-2" d="M430.82,390.79v.34h-70.17"/>
            <line class="cls-2" x1="396.36" y1="390.79" x2="396.36" y2="372.69"/>
            <path class="cls-2" d="M430.82,409.4v.34h-70.17"/>
            <line class="cls-2" x1="410.17" y1="409.4" x2="410.17" y2="391.31"/>
            <line class="cls-2" x1="382.16" y1="409.4" x2="382.16" y2="391.31"/>
            <line class="cls-2" x1="396.36" y1="421.76" x2="396.36" y2="409.84"/>
          </g>
          <g>
            <g>
              <path class="cls-3" d="M308.21,51.98l-.52,337.98c0,.42,.24,3.52,.23,3.95,0,0,44.72,26.05,45.97,26.78l-.5-320.45c-5.97-.42-12.43-3.03-17.45-9.99-4.94-6.84-9.14-16-13.72-23.43-4.5-7.31-8.81-15.76-14.02-14.84Z"/>
              <path class="cls-3" d="M353.55,194.19c-6.01-1.33-12.51-4.94-17.56-12.74-4.97-7.67-9.2-17.57-13.8-25.78-4.53-8.08-8.87-17.28-14.1-17.12"/>
              <path class="cls-3" d="M353.6,228.25c-6.02-1.66-12.54-5.64-17.6-13.75-4.98-7.97-9.22-18.15-13.83-26.64-4.54-8.35-8.88-17.83-14.13-17.96"/>
              <path class="cls-3" d="M307.99,51.82c1.03,.51,2.07-1.11,2.73-3.2,.66-2.09,1.03-4.63,1.55-6.95,.74-3.3,1.82-6.27,3.22-7.85,.97-1.1,2.05-1.49,3.11-1.56,1.25-.08,2.63,.43,3.43,2.78,.7,2.06,.76,5.02,.59,7.69-.18,2.69-.57,5.37-1.32,7.4-.74,2.03-1.87,3.31-2.96,2.93-1.24-.44-2.27-3.14-2.41-6.19-.14-3.05,.57-6.23,1.69-7.66,.83-1.07,1.98-1.08,2.6,.65,.49,1.36,.51,3.53,.12,5.08-.39,1.55-1.15,2.44-1.89,2.4"/>
              <path class="cls-3" d="M333.27,86.27c-1.15-1.28-1.87-4.94-2.19-7.88-.31-2.93-.29-5.99-.36-9.01-.09-3.83-.36-7.71-1.1-11.11-.73-3.39-1.97-6.26-3.49-7.16-1.51-.9-3.28,.5-4.07,3.74-.87,3.57-.34,8.57,.99,11.2,.7,1.39,1.69,2.21,2.52,1.35,.52-.54,.9-1.66,1.15-2.9,.35-1.73,.45-3.81,.14-5.58-.31-1.77-1.08-3.09-1.86-2.88-.78,.21-1.44,2.17-1.27,4.03"/>
              <path class="cls-3" d="M322.77,42.1c0,4.33,1.44,7.83,3.23,7.82,1.8-.02,3.27-3.59,3.27-7.97,0-4.38-1.46-7.87-3.26-7.81-1.79,.06-3.23,3.63-3.23,7.96Z"/>
              <path class="cls-3" d="M308.23,41.95c4.06-.1,7.4-8.45,7.41-18.65,.01-10.18-3.3-18.14-7.35-17.79"/>
              <path class="cls-3" d="M348.12,99.1c-2.07-.7-4.08-6-4.82-10.59-.74-4.58-1.05-9.56-2.1-13.76-.8-3.16-2-5.73-3.4-7.24-.62-.67-1.29-1.14-1.96-1.12-1.72,.04-3.21,3.4-3.64,7.36-.43,3.95,.14,9.05,1.08,12.53"/>
              <path class="cls-3" d="M342.85,96.75c-.95-1.61-1.71-3.85-2.17-6.38-.48-2.67-.62-5.61-1.11-8.27-.48-2.65-1.49-5.14-2.68-5.03-1.26,.11-2.19,3.23-2.18,6.26,0,3.02,.4,4.62,1.24,6.92"/>
              <path class="cls-3" d="M338.71,205.8c0,8.11,2.76,15.43,6.18,16.36,3.46,.93,6.29-5.02,6.28-13.3-.01-8.27-2.85-15.59-6.31-16.36-3.42-.76-6.16,5.2-6.15,13.3Z"/>
              <path class="cls-3" d="M327.99,192.83c0,7.48,2.49,14.18,5.59,14.95,3.13,.79,5.69-4.76,5.69-12.38,0-7.62-2.57-14.31-5.7-14.95-3.1-.64-5.58,4.91-5.59,12.38Z"/>
              <path class="cls-3" d="M318.93,175.12c0,7.35,2.4,13.86,5.41,14.53,3.04,.68,5.52-4.84,5.52-12.33,0-7.48-2.48-13.98-5.51-14.53-3-.54-5.41,4.98-5.42,12.32Z"/>
              <path class="cls-3" d="M309.79,159.3c-.01,7.22,2.32,13.55,5.23,14.13,2.94,.59,5.35-4.9,5.35-12.25,0-7.35-2.39-13.67-5.32-14.13-2.9-.45-5.25,5.03-5.26,12.25Z"/>
              <path class="cls-3" d="M353.79,350.57c-6.07-2.86-12.64-8.17-17.75-17.4-5.02-9.07-9.3-20.23-13.94-29.75-4.57-9.37-8.95-19.84-14.24-20.98"/>
              <path class="cls-3" d="M353.85,385.36c-6.09-3.2-12.67-8.9-17.79-18.45-5.03-9.38-9.32-20.83-13.97-30.65-4.58-9.66-8.97-20.41-14.27-21.85"/>
              <path class="cls-3" d="M338.8,358.72c0,8.28,2.79,16.45,6.25,18.25,3.5,1.82,6.36-3.55,6.35-12.01-.01-8.45-2.88-16.63-6.38-18.28-3.45-1.63-6.22,3.77-6.22,12.04Z"/>
              <path class="cls-3" d="M327.97,342.8c0,7.63,2.51,15.09,5.65,16.66,3.17,1.59,5.75-3.43,5.75-11.21,0-7.77-2.6-15.25-5.76-16.69-3.13-1.42-5.64,3.61-5.64,11.24Z"/>
              <path class="cls-3" d="M318.81,322.46c0,7.5,2.43,14.74,5.46,16.18,3.07,1.45,5.58-3.56,5.58-11.2,0-7.63-2.5-14.89-5.56-16.2-3.03-1.3-5.47,3.73-5.47,11.22Z"/>
              <path class="cls-3" d="M309.58,304.04c-.01,7.37,2.34,14.4,5.28,15.72,2.97,1.33,5.4-3.66,5.4-11.17,0-7.5-2.41-14.54-5.38-15.74-2.93-1.18-5.3,3.83-5.31,11.18Z"/>
              <line class="cls-3" x1="347.24" y1="190.86" x2="347.13" y2="98.92"/>
              <line class="cls-3" x1="338.42" y1="184.8" x2="338.37" y2="93.18"/>
              <line class="cls-3" x1="329.58" y1="170.62" x2="329.58" y2="79.54"/>
              <path class="cls-3" d="M321.27,153.84c0-.87,0-1.74,0-2.61l.05-86.28"/>
              <line class="cls-3" x1="313.72" y1="142.08" x2="313.82" y2="54.59"/>
              <line class="cls-3" x1="347.42" y1="346.55" x2="347.28" y2="224.75"/>
              <line class="cls-3" x1="338.5" y1="338.14" x2="338.44" y2="217.12"/>
              <line class="cls-3" x1="329.57" y1="321.45" x2="329.58" y2="202.76"/>
              <line class="cls-3" x1="321.18" y1="301.75" x2="321.25" y2="186.63"/>
              <line class="cls-3" x1="313.55" y1="286.6" x2="313.68" y2="172.89"/>
              <line class="cls-3" x1="347.5" y1="417.06" x2="347.45" y2="380.92"/>
              <line class="cls-3" x1="338.54" y1="411.84" x2="338.52" y2="371.68"/>
              <line class="cls-3" x1="329.56" y1="406.61" x2="329.57" y2="353.14"/>
              <line class="cls-3" x1="321.12" y1="401.69" x2="321.16" y2="335.83"/>
              <line class="cls-3" x1="313.43" y1="397.2" x2="313.51" y2="319.21"/>
            </g>
            <g>
              <path class="cls-3" d="M307.8,51.99l-.52,337.74c0,.42,.23,3.52,.23,3.94,0,0,44.66,26.01,45.9,26.74l-.49-320.2c-5.96-.42-12.41-3.03-17.42-9.98-4.93-6.84-9.13-15.99-13.7-23.41-4.49-7.3-8.8-15.75-14-14.83Z"/>
              <path class="cls-3" d="M353.06,194.08c-6-1.33-12.49-4.93-17.53-12.73-4.96-7.66-9.19-17.56-13.78-25.76-4.52-8.07-8.85-17.26-14.08-17.11"/>
              <path class="cls-3" d="M353.11,228.11c-6.01-1.66-12.52-5.63-17.58-13.74-4.97-7.96-9.21-18.13-13.81-26.62-4.53-8.35-8.87-17.82-14.11-17.94"/>
              <path class="cls-3" d="M307.58,51.82c1.03,.51,2.07-1.11,2.72-3.2,.66-2.09,1.03-4.63,1.55-6.95,.74-3.3,1.82-6.26,3.21-7.84,.97-1.1,2.04-1.49,3.11-1.55,1.24-.08,2.63,.43,3.42,2.78,.7,2.06,.76,5.02,.59,7.69-.18,2.69-.57,5.37-1.32,7.4-.74,2.02-1.87,3.31-2.95,2.92-1.24-.44-2.26-3.13-2.41-6.19-.14-3.05,.57-6.23,1.69-7.66,.83-1.07,1.98-1.08,2.6,.65,.49,1.35,.51,3.52,.12,5.07-.39,1.55-1.15,2.44-1.89,2.4"/>
              <path class="cls-3" d="M332.82,86.25c-1.15-1.28-1.87-4.93-2.18-7.87-.31-2.93-.29-5.99-.36-9-.09-3.83-.36-7.7-1.09-11.1-.73-3.39-1.97-6.25-3.49-7.15-1.51-.9-3.28,.5-4.07,3.74-.87,3.57-.34,8.56,.98,11.19,.7,1.39,1.69,2.21,2.52,1.34,.52-.54,.9-1.66,1.15-2.9,.34-1.72,.45-3.81,.14-5.57-.31-1.77-1.08-3.09-1.86-2.88-.78,.21-1.44,2.17-1.26,4.03"/>
              <path class="cls-3" d="M322.33,42.11c0,4.33,1.44,7.83,3.22,7.81,1.8-.02,3.26-3.58,3.26-7.96,0-4.37-1.46-7.87-3.26-7.8-1.78,.06-3.23,3.62-3.23,7.95Z"/>
              <path class="cls-3" d="M307.81,41.96c4.05-.1,7.39-8.45,7.4-18.64,.01-10.17-3.3-18.13-7.34-17.77"/>
              <path class="cls-3" d="M347.64,99.07c-2.07-.7-4.07-6-4.81-10.59-.74-4.58-1.04-9.56-2.1-13.75-.8-3.16-2-5.72-3.4-7.23-.62-.67-1.29-1.14-1.96-1.12-1.71,.04-3.21,3.4-3.64,7.35-.43,3.95,.14,9.05,1.08,12.52"/>
              <path class="cls-3" d="M342.38,96.72c-.95-1.61-1.71-3.85-2.16-6.38-.48-2.67-.62-5.61-1.11-8.26-.48-2.65-1.48-5.13-2.68-5.03-1.26,.11-2.18,3.23-2.18,6.25,0,3.02,.4,4.62,1.24,6.92"/>
              <path class="cls-3" d="M338.25,205.69c0,8.11,2.75,15.42,6.17,16.34,3.46,.93,6.28-5.02,6.27-13.29-.01-8.26-2.85-15.58-6.3-16.34-3.41-.76-6.15,5.2-6.14,13.29Z"/>
              <path class="cls-3" d="M327.54,192.73c0,7.48,2.48,14.17,5.58,14.94,3.13,.78,5.69-4.75,5.68-12.37,0-7.61-2.56-14.3-5.69-14.94-3.09-.64-5.58,4.9-5.58,12.37Z"/>
              <path class="cls-3" d="M318.49,175.03c0,7.35,2.4,13.85,5.4,14.52,3.03,.68,5.51-4.84,5.51-12.32,0-7.48-2.47-13.97-5.5-14.52-3-.54-5.41,4.98-5.41,12.31Z"/>
              <path class="cls-3" d="M309.37,159.22c-.01,7.22,2.32,13.54,5.22,14.12,2.93,.59,5.34-4.9,5.34-12.25,0-7.34-2.39-13.66-5.32-14.12-2.9-.45-5.24,5.03-5.25,12.24Z"/>
              <path class="cls-3" d="M353.3,350.34c-6.06-2.85-12.62-8.16-17.72-17.38-5.01-9.06-9.28-20.21-13.92-29.73-4.56-9.36-8.94-19.82-14.22-20.96"/>
              <path class="cls-3" d="M353.35,385.1c-6.08-3.2-12.65-8.89-17.76-18.43-5.02-9.37-9.3-20.81-13.95-30.62-4.57-9.65-8.96-20.39-14.25-21.83"/>
              <path class="cls-3" d="M338.33,358.49c0,8.27,2.78,16.43,6.24,18.23,3.49,1.82,6.35-3.55,6.34-12-.01-8.44-2.88-16.62-6.36-18.26-3.45-1.62-6.21,3.77-6.21,12.03Z"/>
              <path class="cls-3" d="M327.51,342.58c0,7.63,2.51,15.08,5.64,16.65,3.16,1.58,5.75-3.43,5.74-11.21,0-7.77-2.59-15.23-5.75-16.67-3.12-1.42-5.63,3.61-5.63,11.23Z"/>
              <path class="cls-3" d="M318.37,322.26c0,7.49,2.42,14.73,5.45,16.16,3.06,1.45,5.57-3.56,5.57-11.19,0-7.63-2.5-14.88-5.56-16.19-3.02-1.29-5.46,3.73-5.47,11.22Z"/>
              <path class="cls-3" d="M309.16,303.86c-.01,7.36,2.34,14.39,5.27,15.71,2.96,1.33,5.39-3.66,5.4-11.16,0-7.49-2.41-14.53-5.37-15.73-2.93-1.18-5.29,3.82-5.3,11.18Z"/>
              <line class="cls-3" x1="346.76" y1="190.76" x2="346.66" y2="98.89"/>
              <line class="cls-3" x1="337.95" y1="184.7" x2="337.91" y2="93.15"/>
              <line class="cls-3" x1="329.13" y1="170.54" x2="329.14" y2="79.53"/>
              <path class="cls-3" d="M320.83,153.77c0-.87,0-1.74,0-2.61l.06-86.22"/>
              <line class="cls-3" x1="313.29" y1="142.02" x2="313.39" y2="54.59"/>
              <line class="cls-3" x1="346.93" y1="346.32" x2="346.8" y2="224.62"/>
              <line class="cls-3" x1="338.03" y1="337.92" x2="337.97" y2="217"/>
              <line class="cls-3" x1="329.11" y1="321.25" x2="329.13" y2="202.65"/>
              <line class="cls-3" x1="320.74" y1="301.57" x2="320.81" y2="186.53"/>
              <line class="cls-3" x1="313.12" y1="286.43" x2="313.25" y2="172.8"/>
              <line class="cls-3" x1="347.01" y1="416.77" x2="346.97" y2="380.67"/>
              <line class="cls-3" x1="338.07" y1="411.56" x2="338.05" y2="371.44"/>
              <line class="cls-3" x1="329.11" y1="406.34" x2="329.11" y2="352.91"/>
              <line class="cls-3" x1="320.67" y1="401.43" x2="320.72" y2="335.62"/>
              <line class="cls-3" x1="312.99" y1="396.95" x2="313.08" y2="319.02"/>
            </g>
          </g>
        </g>
        <g>
          <path class="cls-2" d="M12.79,101.88c4.56-8.19,13.06-8.7,21.95-5.71,8.89,2.99,15.59,10.5,20.18,18.68,4.59,8.18,7.46,17.19,11.36,25.72,6.24,13.63,15.11,25.96,21,39.74,5.89,13.79,8.54,30.07,1.96,43.54-3.6,7.37-9.63,13.24-14.2,20.05-9.3,13.88-12.15,31.82-7.99,48.01,2.61,10.17,7.83,19.7,8.97,30.14,1.03,9.51-1.55,19.38-7.11,27.17-1.96,2.75-4.65,5.43-8.03,5.59-3.23,.15-6.03-2.04-8.71-3.85-6.64-4.46-14.46-7.14-22.44-7.67-4.14-.28-8.61,.12-11.87,2.69-3.67,2.9-4.96,7.83-5.78,12.43-1.06,5.94-1.62,12.42,1.37,17.66,6.24,10.96,22.96,9.6,32.58,17.76,7.67,6.5,9.23,17.58,9.73,27.62"/>
          <path class="cls-2" d="M.5,149.28c6.69,13.33,21.29,16.28,33.18,25.28,9.92,7.51,15.9,19.71,16.68,32.13,.78,12.42-3.4,24.94-10.76,34.98-8.84,12.07-22.8,22.56-22.82,37.53-.01,9.33,5.72,17.69,12.13,24.46,6.41,6.78,13.83,12.78,18.65,20.77"/>
          <path class="cls-2" d="M99.12,312.58c-8.09,7.53-10.7,19.35-10.66,30.4,.04,11.05,2.3,22.03,2.09,33.08-.1,5.08-.89,10.53-4.36,14.23-2.74,2.91-6.75,4.31-9.69,7.02-6.73,6.23-5.81,16.94-4.36,26"/>
          <path class="cls-2" d="M455.92,101.87c-2.9-3.13-7.67-4.03-11.83-3.05-4.16,.97-7.77,3.55-10.86,6.49-6.7,6.36-11.48,14.72-13.57,23.71-3.47,14.91,.32,31.05-4.69,45.51-4.85,14.03-17.2,24.2-23.52,37.63-3.98,8.45-5.42,17.9-5.74,27.24-.28,8.09,.28,16.37,3.3,23.88,4.47,11.16,13.85,19.54,20.16,29.77,12.14,19.67,11.58,46.45-1.38,65.59-4.39,6.48-10.05,12.14-13.54,19.14-7.04,14.11-3.36,32.77,8.52,43.14"/>
          <path class="cls-2" d="M460.21,197.52c-11.96,7.74-25.92,9.78-37.04,18.68-9.12,7.29-14.57,18.95-14.31,30.62,.11,4.89,1.27,9.97,4.48,13.67,2.78,3.21,6.78,5.04,10.42,7.23,18.99,11.41,29.47,35.43,24.93,57.11-1.2,5.75-3.36,11.44-2.92,17.3,.69,9.17,7.5,16.55,13.92,23.13"/>
          <path class="cls-2" d="M444.5,74.68c-5.77-5.99-17.38-4.79-24.42-.36-7.04,4.43-11.41,12.08-14.42,19.83-3.35,8.62-5.37,17.76-5.98,26.99-.69,10.6,.25,22.09-5.62,30.94-3.79,5.72-9.95,9.47-14.22,14.84-6.19,7.79-7.8,18.96-4.07,28.19"/>
          <g>
            <path class="cls-2" d="M46.82,127.31c-.95-2.84-.84-6.01,.3-8.77,1.14-2.76,3.3-5.09,5.97-6.44,1.05,2.89,.78,6.46-.51,9.25-1.29,2.79-3.36,4.05-5.76,5.96Z"/>
            <path class="cls-2" d="M69.46,115.1c-2.6,1.48-5.74,1.98-8.67,1.4-2.93-.58-5.63-2.25-7.47-4.61,2.63-1.59,6.19-2.01,9.17-1.29,2.98,.72,4.63,2.51,6.96,4.5Z"/>
          </g>
          <g>
            <path class="cls-2" d="M69.16,172.24c-.95-2.84-.84-6.01,.3-8.77s3.3-5.09,5.97-6.44c1.05,2.89,.78,6.46-.51,9.25-1.29,2.79-3.36,4.05-5.76,5.96Z"/>
            <path class="cls-2" d="M91.79,160.03c-2.6,1.48-5.74,1.98-8.67,1.4-2.93-.58-5.64-2.25-7.47-4.61,2.63-1.59,6.19-2.01,9.17-1.29,2.98,.72,4.63,2.51,6.96,4.5Z"/>
          </g>
          <g>
            <path class="cls-2" d="M369.57,209.59c-.95-2.84-.84-6.01,.3-8.77,1.14-2.76,3.3-5.09,5.97-6.44,1.05,2.89,.78,6.46-.51,9.25-1.29,2.79-3.36,4.05-5.76,5.96Z"/>
            <path class="cls-2" d="M392.21,197.38c-2.6,1.48-5.74,1.98-8.67,1.4s-5.63-2.25-7.47-4.61c2.63-1.59,6.19-2.01,9.17-1.29,2.98,.72,4.63,2.51,6.96,4.5Z"/>
          </g>
          <g>
            <path class="cls-2" d="M414.16,112.49c1.72-2.45,4.34-4.24,7.24-4.97,2.9-.72,6.06-.37,8.72,.98-1.7,2.56-4.74,4.46-7.74,5.08-3.01,.62-5.26-.29-8.22-1.1Z"/>
            <path class="cls-2" d="M437.43,123.45c-2.73-1.21-5-3.44-6.27-6.14-1.27-2.71-1.53-5.87-.73-8.75,2.84,1.17,5.3,3.78,6.49,6.61,1.19,2.83,.73,5.21,.51,8.28Z"/>
          </g>
          <g>
            <path class="cls-2" d="M380.07,152.7c1.72-2.45,4.34-4.24,7.24-4.97,2.9-.72,6.06-.37,8.72,.98-1.7,2.56-4.74,4.46-7.74,5.08-3.01,.62-5.26-.29-8.22-1.1Z"/>
            <path class="cls-2" d="M403.34,163.66c-2.73-1.21-5-3.44-6.27-6.14-1.27-2.71-1.53-5.87-.73-8.75,2.84,1.17,5.3,3.78,6.49,6.61,1.19,2.83,.73,5.21,.51,8.28Z"/>
          </g>
          <g>
            <path class="cls-2" d="M372.44,244.75c.79-2.88,2.65-5.46,5.14-7.12,2.49-1.66,5.58-2.39,8.54-2.02-.74,2.98-2.96,5.8-5.58,7.4-2.62,1.6-5.05,1.49-8.11,1.74Z"/>
            <path class="cls-2" d="M398.04,247.23c-2.98-.22-5.87-1.55-7.98-3.67-2.11-2.12-3.42-5.01-3.63-7.99,3.07,.15,6.26,1.78,8.33,4.04,2.07,2.26,2.44,4.66,3.27,7.62Z"/>
          </g>
          <g>
            <path class="cls-2" d="M428.83,197.04c2.94-.55,6.07,0,8.65,1.51,2.58,1.51,4.59,3.97,5.55,6.8-3,.64-6.51-.12-9.09-1.78-2.58-1.66-3.55-3.89-5.11-6.53Z"/>
            <path class="cls-2" d="M437.8,221.14c-1.1-2.78-1.17-5.95-.19-8.78s3.01-5.27,5.6-6.76c1.21,2.82,1.14,6.41,.01,9.26-1.13,2.86-3.12,4.24-5.42,6.28Z"/>
          </g>
          <g>
            <path class="cls-2" d="M429.85,290.02c-1.77-2.41-2.65-5.46-2.42-8.44,.23-2.98,1.57-5.86,3.7-7.96,1.89,2.42,2.73,5.91,2.37,8.96-.37,3.05-1.95,4.89-3.65,7.45Z"/>
            <path class="cls-2" d="M447.62,271.43c-2.02,2.21-4.85,3.65-7.81,4-2.97,.35-6.05-.41-8.53-2.09,2.01-2.32,5.27-3.82,8.33-4.05,3.06-.23,5.18,.96,8.01,2.14Z"/>
          </g>
          <g>
            <path class="cls-2" d="M400.38,351.57c1.07-2.79,3.17-5.18,5.8-6.59,2.63-1.41,5.78-1.84,8.7-1.19-1.02,2.89-3.5,5.49-6.26,6.83-2.76,1.34-5.17,1-8.24,.95Z"/>
            <path class="cls-2" d="M425.63,356.48c-2.95-.51-5.69-2.1-7.59-4.42s-2.93-5.32-2.85-8.3c3.04,.44,6.06,2.37,7.91,4.82,1.85,2.45,1.98,4.88,2.53,7.9Z"/>
          </g>
          <g>
            <path class="cls-2" d="M386.49,419.88c-.99-2.82-.92-6,.18-8.78,1.1-2.78,3.23-5.14,5.88-6.52,1.09,2.87,.87,6.45-.38,9.26-1.25,2.8-3.3,4.1-5.68,6.04Z"/>
            <path class="cls-2" d="M408.95,407.35c-2.58,1.51-5.71,2.06-8.65,1.52s-5.67-2.17-7.53-4.51c2.61-1.62,6.16-2.1,9.15-1.42,2.99,.68,4.66,2.45,7.03,4.4Z"/>
          </g>
          <path class="cls-2" d="M58.13,151.44c-.95-2.84-.84-6.01,.3-8.77s3.3-5.09,5.97-6.44c1.05,2.89,.78,6.46-.51,9.25-1.29,2.79-3.36,4.05-5.76,5.96Z"/>
          <path class="cls-2" d="M14.06,164.29c-.95-2.84-.84-6.01,.3-8.77,1.14-2.76,3.3-5.09,5.97-6.44,1.05,2.89,.78,6.46-.51,9.25-1.29,2.79-3.36,4.05-5.76,5.96Z"/>
          <path class="cls-2" d="M85.48,212.12c-.95-2.84-.84-6.01,.3-8.77,1.14-2.76,3.3-5.09,5.97-6.44,1.05,2.89,.78,6.46-.51,9.25-1.29,2.79-3.36,4.05-5.76,5.96Z"/>
          <path class="cls-2" d="M58.59,210.84c-2.91-.68-5.56-2.43-7.32-4.85-1.76-2.42-2.61-5.48-2.36-8.46,3.01,.62,5.91,2.72,7.61,5.28s1.69,4.98,2.06,8.03Z"/>
          <path class="cls-2" d="M36.22,233.56c.33-2.97,1.77-5.81,3.96-7.84,2.2-2.03,5.13-3.24,8.12-3.33-.26,3.06-2.01,6.19-4.35,8.18-2.34,1.99-4.75,2.27-7.74,2.99Z"/>
          <path class="cls-2" d="M22.8,321.06c.33-2.97,1.77-5.81,3.96-7.84,2.2-2.03,5.13-3.24,8.12-3.33-.26,3.06-2.01,6.19-4.35,8.18-2.34,1.99-4.75,2.27-7.74,2.99Z"/>
          <path class="cls-2" d="M62.49,313.26c-.95-2.84-.84-6.01,.3-8.77,1.14-2.76,3.3-5.09,5.97-6.44,1.05,2.89,.78,6.46-.51,9.25-1.29,2.79-3.36,4.05-5.76,5.96Z"/>
          <path class="cls-2" d="M80.31,262.23c-2.75-1.16-5.07-3.34-6.39-6.02-1.32-2.68-1.65-5.84-.89-8.73,2.86,1.12,5.37,3.68,6.61,6.49,1.24,2.81,.83,5.2,.67,8.27Z"/>
          <path class="cls-2" d="M24.89,287.7c-2.75-1.16-5.07-3.34-6.39-6.02-1.32-2.68-1.65-5.84-.89-8.73,2.86,1.12,5.37,3.68,6.61,6.49,1.24,2.81,.83,5.2,.67,8.27Z"/>
          <g>
            <path class="cls-2" d="M73.04,230.39c1.57-2.54,4.09-4.49,6.94-5.38,2.85-.89,6.03-.72,8.77,.47-1.55,2.65-4.47,4.73-7.44,5.52-2.97,.79-5.27,.01-8.27-.62Z"/>
            <path class="cls-2" d="M96.91,239.98c-2.8-1.05-5.19-3.14-6.62-5.77-1.43-2.63-1.87-5.77-1.23-8.69,2.9,1.01,5.51,3.47,6.86,6.23,1.35,2.76,1.03,5.16,.99,8.23Z"/>
          </g>
          <g>
            <path class="cls-2" d="M22.79,248.65c1.57-2.54,4.09-4.49,6.94-5.38,2.85-.89,6.03-.72,8.77,.47-1.55,2.65-4.47,4.73-7.44,5.52-2.97,.79-5.26,.01-8.27-.62Z"/>
            <path class="cls-2" d="M46.65,258.24c-2.8-1.05-5.19-3.14-6.62-5.77-1.43-2.63-1.87-5.77-1.23-8.69,2.9,1.01,5.51,3.47,6.86,6.23,1.35,2.76,1.03,5.16,.99,8.23Z"/>
          </g>
          <g>
            <path class="cls-2" d="M34.84,192.07c-1.92-2.29-2.98-5.29-2.93-8.27,.05-2.99,1.2-5.95,3.2-8.18,2.03,2.3,3.09,5.73,2.92,8.79-.18,3.06-1.64,5-3.18,7.66Z"/>
            <path class="cls-2" d="M51.42,172.41c-1.88,2.33-4.61,3.95-7.55,4.48-2.94,.53-6.07-.03-8.64-1.55,1.86-2.44,5.02-4.14,8.06-4.56,3.04-.42,5.23,.64,8.13,1.64Z"/>
          </g>
          <g>
            <path class="cls-2" d="M46.77,339.6c-1.92-2.29-2.98-5.29-2.93-8.27,.05-2.99,1.2-5.95,3.2-8.18,2.03,2.3,3.09,5.73,2.92,8.79-.18,3.06-1.64,5-3.18,7.66Z"/>
            <path class="cls-2" d="M63.35,319.94c-1.88,2.33-4.61,3.95-7.55,4.48-2.94,.53-6.07-.03-8.64-1.55,1.86-2.44,5.02-4.14,8.06-4.56,3.04-.42,5.23,.64,8.13,1.64Z"/>
          </g>
          <g>
            <path class="cls-2" d="M49.68,281.23c1.57-2.54,4.09-4.49,6.94-5.38,2.85-.89,6.03-.72,8.77,.47-1.55,2.65-4.47,4.73-7.44,5.52-2.97,.79-5.27,.01-8.27-.62Z"/>
            <path class="cls-2" d="M73.54,290.82c-2.8-1.05-5.19-3.14-6.62-5.77-1.43-2.63-1.87-5.77-1.23-8.69,2.9,1.01,5.51,3.47,6.86,6.23,1.35,2.76,1.03,5.16,.99,8.23Z"/>
          </g>
          <g>
            <path class="cls-2" d="M60.46,334.11c1.57-2.54,4.09-4.49,6.94-5.38s6.03-.72,8.77,.47c-1.55,2.65-4.47,4.73-7.44,5.52-2.97,.79-5.27,.01-8.27-.62Z"/>
            <path class="cls-2" d="M84.33,343.7c-2.8-1.05-5.19-3.14-6.62-5.77-1.43-2.63-1.87-5.77-1.23-8.69,2.9,1.01,5.51,3.47,6.86,6.23,1.35,2.76,1.03,5.16,.99,8.23Z"/>
          </g>
          <g>
            <path class="cls-2" d="M79.49,365.5c-.4-2.96,.3-6.06,1.93-8.56,1.63-2.5,4.19-4.39,7.07-5.21,.49,3.03-.44,6.49-2.22,8.99-1.78,2.5-4.06,3.36-6.77,4.78Z"/>
            <path class="cls-2" d="M104.01,357.72c-2.83,.97-6,.88-8.78-.24-2.77-1.12-5.12-3.26-6.48-5.92,2.88-1.07,6.46-.82,9.25,.44s4.08,3.33,6,5.72Z"/>
          </g>
          <path class="cls-2" d="M422.66,92.55c-2.73-1.21-5-3.44-6.27-6.14-1.27-2.71-1.53-5.87-.73-8.75,2.84,1.17,5.3,3.78,6.49,6.61,1.19,2.83,.73,5.21,.51,8.28Z"/>
          <path class="cls-2" d="M407.52,132.59c-2.73-1.21-5-3.44-6.27-6.14-1.27-2.71-1.53-5.87-.73-8.75,2.84,1.17,5.3,3.78,6.49,6.61,1.19,2.83,.73,5.21,.51,8.28Z"/>
          <path class="cls-2" d="M428.95,160.94c-2.96-.39-5.77-1.89-7.75-4.12-1.98-2.24-3.13-5.2-3.16-8.19,3.05,.33,6.15,2.14,8.09,4.52,1.94,2.38,2.17,4.8,2.83,7.8Z"/>
          <path class="cls-2" d="M405.29,142.23c.72-2.9,2.51-5.52,4.95-7.25s5.51-2.53,8.49-2.24c-.66,3-2.8,5.87-5.38,7.54-2.58,1.67-5.01,1.63-8.06,1.95Z"/>
          <path class="cls-2" d="M395.78,180.81c2.2-2.03,5.14-3.23,8.13-3.32,2.99-.09,6,.92,8.32,2.8-2.2,2.14-5.57,3.36-8.64,3.33-3.07-.03-5.08-1.4-7.8-2.81Z"/>
          <path class="cls-2" d="M408.55,312.87c-1.57-2.54-2.2-5.66-1.72-8.61,.47-2.95,2.04-5.72,4.33-7.64,1.68,2.57,2.24,6.11,1.63,9.12-.61,3.01-2.34,4.72-4.24,7.13Z"/>
          <path class="cls-2" d="M386.27,366.49c2.14-2.09,5.04-3.38,8.03-3.56,2.98-.18,6.02,.74,8.4,2.56-2.14,2.2-5.47,3.52-8.54,3.58-3.07,.06-5.11-1.25-7.88-2.58Z"/>
          <path class="cls-2" d="M441.68,317.51c-.91-2.85-.77-6.02,.41-8.77,1.17-2.75,3.36-5.05,6.05-6.37,1.01,2.9,.7,6.47-.62,9.24-1.32,2.77-3.41,4.01-5.83,5.89Z"/>
          <path class="cls-2" d="M404.38,220.99c1.87-2.33,4.6-3.96,7.54-4.5,2.94-.54,6.07,.02,8.64,1.54-1.86,2.44-5.01,4.15-8.05,4.58-3.04,.43-5.23-.63-8.13-1.62Z"/>
          <path class="cls-2" d="M446.66,373.55c-.91-2.85-.77-6.02,.41-8.77,1.17-2.75,3.36-5.05,6.05-6.37,1.01,2.9,.7,6.47-.62,9.24-1.32,2.77-3.41,4.01-5.83,5.89Z"/>
          <path class="cls-2" d="M412.07,210.06c-2.96-.39-5.77-1.89-7.75-4.12-1.98-2.24-3.13-5.2-3.16-8.19,3.05,.33,6.15,2.14,8.09,4.52,1.94,2.38,2.17,4.8,2.83,7.8Z"/>
          <path class="cls-2" d="M411.42,280.34c-2.83,.97-6,.88-8.78-.24-2.77-1.12-5.12-3.26-6.48-5.93,2.88-1.07,6.46-.82,9.25,.45,2.8,1.27,4.08,3.33,6,5.72Z"/>
          <path class="cls-2" d="M432.41,319.94c-2.83,.97-6,.88-8.78-.24-2.77-1.12-5.12-3.26-6.48-5.93,2.88-1.07,6.46-.82,9.25,.45,2.8,1.27,4.08,3.33,6,5.72Z"/>
          <path class="cls-2" d="M410.12,383.12c-2.83,.97-6,.88-8.78-.24-2.77-1.12-5.12-3.26-6.48-5.93,2.88-1.07,6.46-.82,9.25,.45,2.8,1.27,4.08,3.33,6,5.72Z"/>
          <path class="cls-2" d="M459.09,345.62c-2.99,.1-6-.92-8.32-2.8-2.32-1.88-3.94-4.62-4.46-7.56,3.06-.18,6.41,1.1,8.72,3.13,2.3,2.03,2.92,4.38,4.06,7.23Z"/>
          <path class="cls-2" d="M421.66,252.58c-2.99,.1-6-.92-8.32-2.8-2.32-1.88-3.94-4.62-4.46-7.56,3.06-.18,6.41,1.1,8.72,3.13,2.3,2.03,2.92,4.38,4.06,7.23Z"/>
        </g>
      </g>
    </g>
  </g>
</svg>