<?xml version="1.0" encoding="UTF-8"?>
<svg id="Livello_1" data-name="Livello 1" xmlns="http://www.w3.org/2000/svg" viewBox="0 0 200.21 228.28">
  <defs>
    <style>
      .cls-1 {
        fill: #fff;
      }

      .cls-2 {
        fill: #ffc857;
      }

      .cls-3 {
        fill: #0b1a3f;
      }
    </style>
  </defs>
  <path class="cls-3" d="M91.99,225.02c-35.34,0-64.09-28.75-64.09-64.1V64.09C27.9,28.75,56.65,0,91.99,0s64.1,28.75,64.1,64.09v96.83c0,35.34-28.75,64.1-64.1,64.1Zm0-218.87c-31.95,0-57.95,26-57.95,57.95v96.83c0,31.96,26,57.95,57.95,57.95s57.95-26,57.95-57.95V64.09c0-31.95-26-57.95-57.95-57.95Z"/>
  <g>
    <path class="cls-3" d="M92.08,227.05c-25.85,0-46.88-26.64-46.88-59.39V77.94c0-32.75,21.03-59.39,46.88-59.39s46.88,26.64,46.88,59.39v89.72c0,32.75-21.03,59.39-46.88,59.39Zm0-202.82c-23.37,0-42.38,24.09-42.38,53.7v89.72c0,29.61,19.01,53.7,42.38,53.7s42.38-24.09,42.38-53.7V77.94c0-29.61-19.01-53.7-42.38-53.7Z"/>
    <path class="cls-3" d="M92.07,228.08c-26.41,0-47.9-27.1-47.9-60.42V77.93c0-33.31,21.49-60.42,47.9-60.42s47.9,27.1,47.9,60.42v89.72c0,33.32-21.49,60.42-47.9,60.42Zm0-208.51c-25.28,0-45.85,26.18-45.85,58.37v89.72c0,32.19,20.57,58.37,45.85,58.37s45.85-26.18,45.85-58.37V77.93c0-32.19-20.57-58.37-45.85-58.37Zm0,202.82c-23.93,0-43.41-24.55-43.41-54.73V77.93c0-30.18,19.47-54.73,43.41-54.73s43.41,24.55,43.41,54.73v89.72c0,30.18-19.47,54.73-43.41,54.73Zm0-197.13c-22.81,0-41.36,23.63-41.36,52.68v89.72c0,29.05,18.55,52.68,41.36,52.68s41.36-23.63,41.36-52.68V77.93c0-29.05-18.55-52.68-41.36-52.68Z"/>
  </g>
  <rect class="cls-1" y="172.2" width="200.21" height="56.08"/>
  <path class="cls-3" d="M168.35,172.84H14.24c-1.7,0-3.07-1.38-3.07-3.07s1.37-3.07,3.07-3.07H168.35c1.7,0,3.07,1.38,3.07,3.07s-1.38,3.07-3.07,3.07Z"/>
  <path class="cls-3" d="M136.92,170.81c-.31,0-.63-.05-.94-.15l-59.82-19.26c-1.12-.36-1.94-1.33-2.1-2.5-.1-.73-2.47-18.14-1.88-39.76,.8-29.34,6.51-51.15,16.97-64.84,7.01-9.18,16.13-14.56,27.1-15.98,1.68-.23,3.22,.97,3.44,2.65,.22,1.68-.97,3.22-2.65,3.44-9.28,1.2-17.02,5.78-23,13.61-21.02,27.51-15.42,86.77-14.12,98.13l57.95,18.66c1.61,.52,2.5,2.25,1.98,3.87-.42,1.3-1.63,2.13-2.92,2.13Z"/>
  <path class="cls-2" d="M95.35,116.3c-4.75,0-8.62-4.56-8.62-10.17s3.87-10.17,8.62-10.17,8.62,4.56,8.62,10.17-3.87,10.17-8.62,10.17Zm0-14.19c-1.17,0-2.47,1.72-2.47,4.03s1.31,4.03,2.47,4.03,2.47-1.72,2.47-4.03-1.3-4.03-2.47-4.03Z"/>
</svg>