<?xml version="1.0" encoding="utf-8"?>
<!-- Generator: Adobe Illustrator 27.0.0, SVG Export Plug-In . SVG Version: 6.00 Build 0)  -->
<svg version="1.1" id="Livello_1" xmlns="http://www.w3.org/2000/svg" xmlns:xlink="http://www.w3.org/1999/xlink" x="0px" y="0px"
	 viewBox="0 0 213.7 196.5" style="enable-background:new 0 0 213.7 196.5;" xml:space="preserve">
<style type="text/css">
	.st0{fill:#FFC857;stroke:#F49C00;stroke-miterlimit:10;}
</style>
<polygon class="st0" points="192,17.1 192,170.3 124.1,182.3 124.1,156.7 135.4,154.7 135.4,129.2 146.7,127.2 146.7,101.7 
	158.1,99.7 158.1,74.1 169.4,72.1 169.4,46.6 180.7,44.6 180.7,19 "/>
<polygon class="st0" points="83.8,13.6 83.8,166.9 15.9,178.8 15.9,153.2 27.2,151.3 27.2,125.7 38.5,123.7 38.5,98.2 49.8,96.2 
	49.8,70.6 61.1,68.7 61.1,43.1 72.4,41.1 72.4,15.6 "/>
<polygon class="st0" points="15.9,153.2 124.1,156.7 124.1,182.3 15.9,178.8 "/>
<polygon class="st0" points="27.2,151.3 135.4,154.7 124.1,156.7 15.9,153.2 "/>
<polygon class="st0" points="27.2,125.7 27.2,151.3 135.4,154.7 135.4,129.2 "/>
<polygon class="st0" points="38.5,123.7 146.7,127.2 135.4,129.2 27.2,125.7 "/>
<polygon class="st0" points="146.7,101.7 146.7,127.2 38.5,123.7 38.5,98.2 "/>
<polygon class="st0" points="49.8,96.2 158.1,99.7 146.7,101.7 38.5,98.2 "/>
<polygon class="st0" points="49.8,70.6 49.8,96.2 158.1,99.7 158.1,74.1 "/>
<polygon class="st0" points="61.1,68.7 49.8,70.6 158.1,74.1 169.4,72.1 "/>
<polygon class="st0" points="61.1,43.1 169.4,46.6 169.4,72.1 61.1,68.7 "/>
<polygon class="st0" points="72.4,41.1 180.7,44.6 169.4,46.6 61.1,43.1 "/>
<polygon class="st0" points="72.4,15.6 180.7,19 180.7,44.6 72.4,41.1 "/>
<polygon class="st0" points="83.8,13.6 72.4,15.6 180.7,19 192,17.1 "/>
</svg>
