<?xml version="1.0" encoding="UTF-8"?>
<svg id="Livello_1" data-name="Livello 1" xmlns="http://www.w3.org/2000/svg" viewBox="0 0 176.66 175.26">
  <defs>
    <style>
      .cls-1 {
        fill: #ffc857;
      }
    </style>
  </defs>
  <circle class="cls-1" cx="88.47" cy="87.66" r="44.86"/>
  <path class="cls-1" d="M88.47,44.97c-1.2,0-2.17-.97-2.17-2.17V2.17c0-1.2,.97-2.17,2.17-2.17s2.17,.97,2.17,2.17V42.8c0,1.2-.97,2.17-2.17,2.17Z"/>
  <path class="cls-1" d="M120.81,55.83c-.56,0-1.11-.21-1.54-.64-.85-.85-.85-2.22,0-3.07l28.73-28.73c.85-.85,2.22-.85,3.07,0s.85,2.22,0,3.07l-28.73,28.73c-.42,.42-.98,.64-1.54,.64h0Z"/>
  <path class="cls-1" d="M56.54,56.94c-.56,0-1.11-.19-1.55-.62L25.83,28.03c-.86-.84-.88-2.21-.05-3.07s2.21-.88,3.07-.05l29.16,28.3c.86,.84,.88,2.21,.05,3.07-.41,.43-.97,.65-1.53,.66h.01Z"/>
  <path class="cls-1" d="M89.29,175.26c-1.2,0-2.17-.97-2.17-2.17v-40.63c0-1.2,.97-2.17,2.17-2.17s2.17,.97,2.17,2.17v40.63c0,1.2-.97,2.17-2.17,2.17Z"/>
  <path class="cls-1" d="M28.22,152.51c-.56,0-1.11-.21-1.54-.64-.85-.85-.85-2.22,0-3.07l28.73-28.73c.85-.85,2.22-.85,3.07,0s.85,2.22,0,3.07l-28.73,28.73c-.42,.42-.98,.64-1.54,.64h.01Z"/>
  <path class="cls-1" d="M150.2,151.18c-.56,0-1.11-.21-1.54-.64l-28.73-28.73c-.85-.85-.85-2.22,0-3.07,.85-.85,2.22-.85,3.07,0l28.73,28.73c.85,.85,.85,2.22,0,3.07-.42,.42-.98,.64-1.54,.64h0Z"/>
  <path class="cls-1" d="M174.49,89.2h-40.63c-1.2,0-2.17-.97-2.17-2.17s.97-2.17,2.17-2.17h40.63c1.2,0,2.17,.97,2.17,2.17s-.97,2.17-2.17,2.17Z"/>
  <path class="cls-1" d="M42.79,89.2H2.17c-1.2,0-2.17-.97-2.17-2.17s.97-2.17,2.17-2.17H42.79c1.2,0,2.17,.97,2.17,2.17s-.97,2.17-2.17,2.17Z"/>
</svg>