<?xml version="1.0" encoding="UTF-8"?>
<svg id="Livello_1" data-name="Livello 1" xmlns="http://www.w3.org/2000/svg" viewBox="0 0 132.89 180.43">
  <defs>
    <style>
      .cls-1 {
        fill: #ffc857;
      }

      .cls-2 {
        fill: #0b1a3f;
      }
    </style>
  </defs>
  <path class="cls-2" d="M16.21,180.43c-4.38,0-8.54-1.66-11.75-4.77l-.3-.29c-5.02-5.02-5.53-11.14-1.37-16.77l11.63-15.33,26.82-37.49c1.01-1.41,2.98-1.74,4.4-.73,1.42,1.01,1.74,2.98,.73,4.4l-26.87,37.56-11.66,15.37c-2.27,3.07-2.03,5.72,.8,8.54l.16,.16c2.55,2.46,5.97,3.49,9.45,2.85,3.6-.66,6.56-2.92,8.12-6.22l25.77-54.51c.74-1.57,2.62-2.24,4.2-1.5,1.57,.75,2.25,2.62,1.5,4.2l-25.77,54.51c-2.4,5.08-7.15,8.72-12.69,9.73-1.06,.19-2.12,.29-3.17,.29Z"/>
  <path class="cls-2" d="M66.16,104.13c-4.7,0-9.04-1.2-12.81-3.6-7.59-4.84-11.74-13.86-11.7-25.4,.04-11.01,3.93-23.13,10.94-34.12s16.36-19.63,26.33-24.3c10.44-4.9,20.37-4.94,27.96-.1,7.59,4.84,11.74,13.86,11.7,25.4-.04,11.01-3.92,23.13-10.94,34.12-7.01,11-16.36,19.63-26.33,24.31-5.26,2.47-10.39,3.7-15.15,3.7ZM94.04,19.31c-3.84,0-8.06,1.03-12.45,3.1-8.9,4.18-17.31,11.99-23.69,21.99-6.38,10-9.91,20.92-9.95,30.75-.03,9.3,3.09,16.42,8.78,20.06,5.7,3.64,13.47,3.46,21.89-.49,8.9-4.18,17.31-11.99,23.69-21.99h0c6.38-10,9.91-20.92,9.95-30.75,.03-9.3-3.08-16.42-8.78-20.06-2.72-1.74-5.92-2.6-9.44-2.6Z"/>
  <path class="cls-2" d="M66.7,118.36c-7.24,0-14.17-1.83-20.23-5.7-10.77-6.87-17.23-18.97-18.18-34.06-.93-14.72,3.53-30.61,12.54-44.73S62.37,9.01,76.11,3.64c14.09-5.51,27.77-4.75,38.55,2.12,21.91,13.97,24.44,49.32,5.64,78.79h0c-13.59,21.31-34.68,33.8-53.59,33.8ZM94.31,6.32c-5.07,0-10.44,1.06-15.91,3.2-12.5,4.89-23.96,14.74-32.26,27.75-8.3,13.01-12.4,27.55-11.56,40.95,.82,13.03,6.24,23.38,15.28,29.14,18.97,12.1,48.19,.35,65.12-26.18h0c16.93-26.54,15.26-57.98-3.71-70.08-4.97-3.17-10.74-4.77-16.95-4.77Zm23.33,76.55h0Z"/>
  <path class="cls-1" d="M61.78,72.21c-.8,0-1.61-.31-2.22-.92-1.23-1.23-1.24-3.22-.01-4.46l24.67-24.79c1.23-1.23,3.22-1.24,4.46-.01,1.23,1.23,1.24,3.22,.01,4.46l-24.67,24.79c-.62,.62-1.42,.93-2.23,.93Z"/>
  <path class="cls-1" d="M75.72,76.48c-.79,0-1.58-.3-2.2-.89-1.25-1.21-1.28-3.21-.06-4.46l10.27-10.57c1.22-1.25,3.21-1.28,4.46-.06,1.25,1.21,1.28,3.21,.06,4.46l-10.27,10.57c-.62,.64-1.44,.96-2.26,.96Z"/>
</svg>