<?xml version="1.0" encoding="UTF-8"?>
<svg id="Livello_1" data-name="Livello 1" xmlns="http://www.w3.org/2000/svg" viewBox="0 0 183.52 130.05">
  <defs>
    <style>
      .cls-1 {
        fill: #fff;
      }
    </style>
  </defs>
  <path class="cls-1" d="M54.02,130.05C24.23,130.05,0,105.82,0,76.03,0,55.72,7.91,36.63,22.27,22.27,36.63,7.91,55.72,0,76.03,0c28.71,0,55.7,11.18,76,31.48,20.3,20.3,31.48,47.29,31.48,76h-5.3c0-27.3-10.63-52.96-29.93-72.26C128.99,15.93,103.33,5.3,76.03,5.3,37.03,5.3,5.3,37.03,5.3,76.03c0,26.87,21.86,48.72,48.72,48.72,18.37,0,33.31-14.94,33.31-33.31,0-12.42-10.1-22.52-22.52-22.52-8.26,0-14.97,6.72-14.97,14.97,0,5.34,4.34,9.69,9.69,9.69,3.3,0,5.99-2.69,5.99-5.99,0-.06,0-.11,0-.16-.36,2.24-2.32,3.96-4.66,3.96-3.09,0-5.61-2.52-5.61-5.61,0-3.79,3.09-6.88,6.88-6.88,4.79,0,8.69,3.9,8.69,8.69,0,6.22-5.06,11.28-11.28,11.28-8.26,0-14.98-6.72-14.98-14.98,0-11.18,9.09-20.27,20.27-20.27,15.34,0,27.82,12.48,27.82,27.82,0,21.29-17.32,38.61-38.61,38.61Zm6.45-43.82c-.12,.11-.2,.26-.2,.44,0,.66,.54,1.2,1.2,1.2,.9,0,1.63-.73,1.63-1.63h-2.63Z"/>
</svg>