<?xml version="1.0" encoding="UTF-8"?>
<svg id="Livello_1" data-name="Livello 1" xmlns="http://www.w3.org/2000/svg" viewBox="0 0 162.25 187.35">
  <defs>
    <style>
      .cls-1 {
        fill: #ffc857;
      }

      .cls-2 {
        fill: #b0d7ff;
      }
    </style>
  </defs>
  <polygon class="cls-2" points="81.13 7.87 102.58 56.52 155.43 50.78 124.03 93.68 155.43 136.58 102.58 130.83 81.13 179.48 59.68 130.83 6.82 136.58 38.23 93.68 6.82 50.78 59.68 56.52 81.13 7.87"/>
  <path class="cls-1" d="M81.13,187.35l-23.42-53.11L0,140.51l34.29-46.84L0,46.84l57.71,6.28L81.13,0l23.42,53.11,57.71-6.28-34.29,46.84,34.29,46.84-57.71-6.28-23.42,53.11Zm-19.48-59.93l19.48,44.18,19.48-44.18,48.01,5.22-28.52-38.96,28.52-38.96-48.01,5.22L81.13,15.75l-19.48,44.18-48.01-5.22,28.52,38.96-28.52,38.96,48.01-5.22Z"/>
</svg>