<?xml version="1.0" encoding="UTF-8"?>
<svg id="Character" xmlns="http://www.w3.org/2000/svg" viewBox="0 0 499.41 503.64">
  <defs>
    <style>
      .cls-1, .cls-2, .cls-3 {
        fill: #ffc857;
      }

      .cls-4 {
        fill: #0b163d;
      }

      .cls-2 {
        opacity: .2;
      }

      .cls-3 {
        opacity: .4;
      }
    </style>
  </defs>
  <rect class="cls-4" y="0" width="499.41" height="503.64"/>
  <g>
    <g>
      <g>
        <path class="cls-1" d="M208.69,303.13l-29.6-4.49c-10.85-1.64-17.71-12.54-14.51-23.03h0c3.2-10.5,14.97-15.7,24.89-11.01l27.07,12.8c3.34,1.58,5.02,5.37,3.94,8.91l-3.55,11.64c-1.08,3.53-4.59,5.74-8.24,5.19Z"/>
        <path class="cls-3" d="M208.69,303.13l-29.6-4.49c-10.85-1.64-17.71-12.54-14.51-23.03h0c3.2-10.5,14.97-15.7,24.89-11.01l27.07,12.8c3.34,1.58,5.02,5.37,3.94,8.91l-3.55,11.64c-1.08,3.53-4.59,5.74-8.24,5.19Z"/>
      </g>
      <path class="cls-1" d="M199.41,223.58c5.47,1.19,13.47,1.97,14.96-.73,8.89-16.18,21.96-42.04,24.86-47.79,.43-.85-.1-1.64-1.52-2.25l-19.41-8.36c-4.06-1.5-9.02-.19-12.72,1.25-22.83,8.84-65.06,26.99-74.78,34.3,10.32,9.43,49.98,19.53,68.62,23.59Z"/>
      <path class="cls-2" d="M199.41,223.58c5.47,1.19,13.47,1.97,14.96-.73,8.89-16.18,21.96-42.04,24.86-47.79,.43-.85-.1-1.64-1.52-2.25l-19.41-8.36c-4.06-1.5-9.02-.19-12.72,1.25-22.83,8.84-65.06,26.99-74.78,34.3,10.32,9.43,49.98,19.53,68.62,23.59Z"/>
      <path class="cls-1" d="M366.35,248.81c2.13,.05,4.47-.5,2.56-2.5-11.38-11.94-29.83-30.88-33.93-35.08-.61-.62-1.36-1.07-2.17-1.29l-10.97-2.94c-2.09-.45-2.06,1.09-1.67,2.54,2.41,8.94,8.36,26.68,12.3,32.85,9.92,4.88,26.59,6.24,33.86,6.42Z"/>
      <path class="cls-2" d="M366.35,248.81c2.13,.05,4.47-.5,2.56-2.5-11.38-11.94-29.83-30.88-33.93-35.08-.61-.62-1.36-1.07-2.17-1.29l-10.97-2.94c-2.09-.45-2.06,1.09-1.67,2.54,2.41,8.94,8.36,26.68,12.3,32.85,9.92,4.88,26.59,6.24,33.86,6.42Z"/>
      <path class="cls-1" d="M183.66,170.37c-3.09-.68-6.15-1.3-9.08-1.87l.19-.98c2.94,.57,6,1.2,9.1,1.87l-.21,.98Z"/>
      <path class="cls-1" d="M167.29,167.18c-12.22-2.07-23.2-3.11-32.62-3.11-4.69,0-9.12,.25-13.16,.74l-.12-.99c4.08-.5,8.55-.75,13.28-.75,9.48,0,20.51,1.05,32.79,3.13l-.17,.99Z"/>
      <path class="cls-1" d="M99.05,174.55c47.23-29.04,174.98,29.35,243.77,44.59,31.95,7.07,12.39,33.06-2.92,36.45-15.31,3.39-202.86,15.96-264.53-12-61.67-27.97,1.55-55.43,23.67-69.04Z"/>
      <path class="cls-1" d="M335.97,256.21c17.86-1.32,31.12-13.28,36.34-27.85s8.91-25,8.91-25h0c-8.3-4.76-18.41-5.1-27.01-.92l-35.39,17.23,17.15,36.54Z"/>
      <path class="cls-2" d="M334.26,235.76c2.37,5.91,9.21,12.94,14.26,17.56,5.5-2.21,10.3-5.54,14.22-9.6l-28.47-7.96Z"/>
      <path class="cls-2" d="M354.53,240.44c-6.33,.65-12.72,.75-19.1,.67-6.38-.11-12.76-.63-19.12-1.28-6.36-.69-12.69-1.65-19-2.74-25.24-4.53-49.94-11.85-74.28-20.21-6.1-2.08-12.17-4.24-18.3-6.4-3.09-1.07-6.12-2.15-9.39-3.15-1.71-.44-3.41-.98-5.15-1.32l-2.63-.48c-.87-.16-1.75-.33-2.64-.38-7.1-.83-14.41-.25-21.34,1.59-3.43,1.01-6.83,2.18-10.04,3.73-3.21,1.53-6.31,3.29-9.24,5.27l-2.17,1.54-2.11,1.62-2,1.65c-.59,.49-1.17,.98-1.78,1.46-2.39,1.92-4.88,3.77-7.43,5.56-5.11,3.56-10.43,6.87-15.87,9.84-5.44,2.97-11.04,5.63-16.62,7.6-2.79,.98-5.59,1.8-8.22,2.25-.78,.14-1.56,.24-2.29,.3,7.48,2.43,16.09,4.46,25.53,6.15,2.83-1.44,5.58-2.98,8.29-4.58,5.8-3.43,11.36-7.17,16.72-11.21,2.69-2.03,5.32-4.13,7.9-6.35,.65-.55,1.28-1.13,1.92-1.69l1.69-1.51,1.68-1.39,1.75-1.33c2.36-1.73,4.86-3.26,7.44-4.61,2.58-1.36,5.29-2.4,8.03-3.32,5.52-1.67,11.31-2.35,17.08-1.89,.72,0,1.44,.14,2.16,.24l2.16,.3c1.44,.23,2.86,.65,4.29,.95,2.94,.77,6.05,1.76,9.11,2.7,6.15,1.93,12.36,3.88,18.57,5.77,24.88,7.56,50.23,14.12,76.13,17.83,6.48,.88,12.97,1.63,19.5,2.12,6.54,.43,13.08,.73,19.65,.62,6.57-.14,13.13-.48,19.65-1.39,2.56-.35,5.13-.77,7.67-1.27,1.58-1.6,2.99-3.33,4.28-5.15-4.12,.82-8.29,1.43-12.48,1.86Z"/>
      <path class="cls-2" d="M242.5,256.21s-46.9-.25-91.47-4.5c-1.02-.1-3.87-5.16-6.92-6.43-.33,3.52,.29,5.76-1.48,5.57-25.78-2.8-56.99-9.18-69.18-15.64-6.2-22.18-19.87-28.85-19.87-28.85-8.54,11.41-6.77,24.26,21.8,37.22,61.67,27.97,249.23,15.4,264.53,12l-97.41,.62Z"/>
      <path class="cls-1" d="M151.04,237.35c-6.62-.12-9.63,8.21-4.47,12.36,30.83,24.82,88.42,64.38,102.69,74.13,2.12,1.45,4.63,2.49,7.19,2.98l35.03,6.79c4.2,.81,5.85-1.54,4.09-4.9-10.88-20.74-35.94-62.89-50.48-77.19-32.53-11.28-71.51-13.77-94.06-14.17Z"/>
      <path class="cls-2" d="M244.86,315.51l-94.24-73.23c-3.07-2.39-7.57,.62-6.3,4.3,.4,1.15,1.13,2.24,2.24,3.13,30.83,24.82,88.42,64.38,102.69,74.13,2.12,1.45,4.63,2.49,7.19,2.98l35.03,6.79c2.1,.41,3.56,.02,4.28-.89l-31.45-7.78c-7.07-1.75-13.7-4.96-19.46-9.44Z"/>
      <path class="cls-1" d="M331.49,230.46c-2.3,.3-2.91,3.33-.91,4.5,11.94,7,33.89,17.74,39.32,20.38,.81,.39,1.73,.62,2.64,.66l12.47,.55c1.49,.07,1.95-.83,1.16-1.91-4.83-6.62-15.66-19.91-21.42-24.11-11.83-2.23-25.44-1.1-33.26-.08Z"/>
      <path class="cls-2" d="M367.95,252.68l-36.35-20.5c-1.18-.67-2.59,.6-1.96,1.81,.2,.38,.51,.72,.94,.97,11.94,7,33.89,17.74,39.32,20.38,.81,.39,1.73,.62,2.64,.66l12.47,.55c.75,.03,1.23-.18,1.43-.53l-11.28-1.08c-2.54-.24-4.99-1.01-7.21-2.27Z"/>
      <g>
        <path class="cls-1" d="M101.45,173.2c-.82,.42-1.62,.87-2.4,1.35-2.95,1.82-6.64,3.88-10.66,6.16,1.87,5.38,7.77,11.66,15.26,17.26l13.84-10.62c-6.94-4.38-12.84-9.41-16.05-14.16Z"/>
        <path class="cls-1" d="M122.44,190.27l-12.35,12.11c3.16,1.98,6.47,3.8,9.77,5.36,4.38,2.07,9.59-.03,11.34-4.54h0c1.58-4.07-.24-8.65-4.17-10.55-1.55-.75-3.08-1.55-4.59-2.38Z"/>
      </g>
    </g>
    <g>
      <path class="cls-1" d="M391.76,226.99c23.53,4.97,84.21,14.97,53.18-22.22,35.9,36.61-2.25,42.14-34.97,44.04-6.18,.36-12.18-2.13-16.29-6.75-2.77-3.11-4.88-6.07-6.47-8.62-2-3.2,.86-7.23,4.55-6.45Z"/>
      <path class="cls-2" d="M391.76,226.99c23.53,4.97,84.21,14.97,53.18-22.22,35.9,36.61-2.25,42.14-34.97,44.04-6.18,.36-12.18-2.13-16.29-6.75-2.77-3.11-4.88-6.07-6.47-8.62-2-3.2,.86-7.23,4.55-6.45Z"/>
    </g>
  </g>
</svg>