<?xml version="1.0" encoding="UTF-8"?>
<svg id="Livello_1" data-name="Livello 1" xmlns="http://www.w3.org/2000/svg" viewBox="0 0 196.26 179.35">
  <defs>
    <style>
      .cls-1 {
        fill: #0b1a3f;
      }
    </style>
  </defs>
  <path class="cls-1" d="M145.01,50.35c-13.88,0-25.17-11.29-25.17-25.17S131.13,0,145.01,0s25.17,11.29,25.17,25.17-11.29,25.17-25.17,25.17Zm0-43.69c-10.21,0-18.51,8.3-18.51,18.51s8.3,18.51,18.51,18.51,18.51-8.3,18.51-18.51-8.3-18.51-18.51-18.51Z"/>
  <path class="cls-1" d="M35.01,179.35c-3.22,0-6.38-.81-9.16-2.43-4.58-2.67-6.7-6.81-5.98-11.66,.49-3.27,2.33-6.32,5.19-8.57l29.58-23.22,1.58-1.63-39.6,1.87c-6.44,.33-12.43-3.04-15.14-8.53-2.18-4.41-1.95-8.83,.66-12.77,2.69-4.06,7.41-6.58,12.61-6.75l19.75-.64c8.07-.26,15.82-3.38,21.83-8.77l22.53-20.22h-21.63c-5.85,0-11.29-2.63-14.57-7.04-3.7-4.99-3.52-10.46,.49-15.02,3.27-3.72,8.2-5.86,13.51-5.86h46.4c2.14-.13,23.58-.95,34.85,17.92,1.64,2.74,5.2,3.81,8.27,2.51l27.09-11.49c5.11-2.17,10.75-2.24,15.47-.19,5.72,2.48,8.36,7.42,7.26,13.56-.93,5.18-4.44,9.81-9.4,12.38l-31.56,16.39c-4.48,2.32-9.51,3.45-14.53,3.27l-8.44-.31c-3.53-.14-6.96,1.26-9.39,3.81-16.66,17.41-57.57,59.15-77.69,70.67-3.13,1.8-6.59,2.7-9.99,2.7Zm31.85-48.9l-7.6,7.83c-.1,.11-.22,.21-.33,.3l-29.76,23.35c-1.52,1.19-2.48,2.72-2.72,4.31-.23,1.51-.07,3.28,2.75,4.92,3.66,2.13,8.45,2.03,12.49-.29,19.91-11.4,63.35-56.07,76.19-69.5,3.75-3.92,8.98-6.07,14.45-5.86l8.44,.31c3.86,.14,7.76-.73,11.22-2.52l31.56-16.39c3.14-1.63,5.34-4.49,5.91-7.65,.56-3.13-.44-5.01-3.36-6.28-3.05-1.32-6.78-1.25-10.22,.21l-27.09,11.49c-6.13,2.6-13.26,.36-16.59-5.22-9.53-15.95-28.59-14.7-28.77-14.68-.08,0-.17,0-.25,0H56.67c-3.4,0-6.5,1.31-8.51,3.59-1.96,2.22-2,4.15-.14,6.65,2.02,2.72,5.47,4.35,9.22,4.35h30.33c1.38,0,2.62,.85,3.11,2.14,.49,1.29,.14,2.75-.89,3.67l-29,26.03c-7.17,6.44-16.43,10.16-26.07,10.47l-19.75,.64c-3.06,.1-5.78,1.51-7.28,3.77-1.28,1.93-1.36,3.88-.24,6.14,1.51,3.06,5.07,4.97,8.85,4.83l46.69-2.21,18.29-18.85c1.28-1.32,3.39-1.35,4.71-.07,1.32,1.28,1.35,3.39,.07,4.71l-19.21,19.79s0,0,0,0Z"/>
</svg>